SplineFontDB: 3.0
FontName: Gidole-Light
FullName: Gidole Light
FamilyName: Gidole
Weight: Light
Copyright: Copyright (c) 2014, Andreas Larsen (<andreaslarsen.dk|mail@andreaslarsen.dk>), with Reserved Font Name Gidole Sans.
Version: 0.4
ItalicAngle: 0
UnderlinePosition: -50
UnderlineWidth: 50
Ascent: 760
Descent: 240
InvalidEm: 0
sfntRevision: 0x00006667
LayerCount: 4
Layer: 0 0 "Back" 1
Layer: 1 0 "Fore" 0
Layer: 2 0 "Back 2" 1
Layer: 3 0 "Back 3" 1
HasVMetrics: 1
XUID: [1021 365 -928128380 14339766]
FSType: 0
OS2Version: 4
OS2_WeightWidthSlopeOnly: 1
OS2_UseTypoMetrics: 1
CreationTime: 1417722385
ModificationTime: 1419377162
PfmFamily: 33
TTFWeight: 300
TTFWidth: 5
LineGap: 0
VLineGap: 0
Panose: 2 0 5 3 0 0 0 0 0 0
OS2TypoAscent: 760
OS2TypoAOffset: 0
OS2TypoDescent: -240
OS2TypoDOffset: 0
OS2TypoLinegap: 0
OS2WinAscent: 1000
OS2WinAOffset: 0
OS2WinDescent: 265
OS2WinDOffset: 0
HheadAscent: 1000
HheadAOffset: 0
HheadDescent: 265
HheadDOffset: 0
OS2SubXSize: 650
OS2SubYSize: 700
OS2SubXOff: 0
OS2SubYOff: 140
OS2SupXSize: 650
OS2SupYSize: 700
OS2SupXOff: 0
OS2SupYOff: 480
OS2StrikeYSize: 49
OS2StrikeYPos: 258
OS2CapHeight: 0
OS2XHeight: 0
OS2Vendor: 'PfEd'
OS2CodePages: 00000001.00000000
OS2UnicodeRanges: 00000001.00000000.00000000.00000000
Lookup: 1 0 0 "'salt' Stylistic Alternatives lookup 0" { "'salt' Stylistic Alternatives lookup 0-1"  } ['salt' ('DFLT' <'dflt' > 'grek' <'dflt' > 'latn' <'dflt' > ) ]
Lookup: 258 0 0 "'kern' Horizontal Kerning lookup 0" { "'kern' Horizontal Kerning lookup 0-1" [150,15,0] } ['kern' ('DFLT' <'dflt' > 'grek' <'dflt' > 'latn' <'dflt' > ) ]
Lookup: 260 0 0 "'mark' Mark Positioning in Latin lookup 0" { "'mark' Mark Positioning in Latin lookup 0-1"  } []
MarkAttachClasses: 1
DEI: 91125
KernClass2: 28 23 "'kern' Horizontal Kerning lookup 0-1"
 1 c

StartChar: period
Encoding: 46 46 1
Width: 182
VWidth: 0
Flags: W
HStem: 14 82<54.0967 127.903>
VStem: 50 82<18.0967 91.9033>
LayerCount: 4
Back
Fore
SplineSet
50 55 m 0
 50 79.734375 66.265625 96 91 96 c 0
 115.734375 96 132 79.734375 132 55 c 0
 132 30.265625 115.734375 14 91 14 c 0
 66.265625 14 50 30.265625 50 55 c 0
EndSplineSet
Layer: 2
Layer: 3
EndChar

StartChar: zero
Encoding: 48 48 2
Width: 480
Flags: W
HStem: 4 50<173.218 306.78> 613 50<173.22 306.782>
VStem: 65 54<109.926 557.074> 361 54<109.926 557.074>
LayerCount: 4
Back
Fore
SplineSet
415 473 m 0
 415 194 l 2
 415 54.11328125 323.084960938 4 240 4 c 0
 156.915039062 4 65 54.11328125 65 194 c 0
 65 473 l 0
 65 612.88671875 156.915039062 663 240 663 c 0
 323.084960938 663 415 612.88671875 415 473 c 0
119 473 m 0
 119 194 l 2
 119 91.275390625 184.861328125 54 240 54 c 0
 295.130859375 54 361 91.2548828125 361 194 c 0
 361 473 l 0
 361 575.724609375 295.138671875 613 240 613 c 0
 184.869140625 613 119 575.745117188 119 473 c 0
EndSplineSet
Layer: 2
Layer: 3
EndChar

StartChar: one
Encoding: 49 49 3
Width: 301
Flags: W
HStem: 0 21G<158.544 212.544>
VStem: 158.544 54<0 588.574>
LayerCount: 4
Back
Fore
SplineSet
55 593.5859375 m 1
 160.922851562 647 l 1
 212.543945312 647 l 1
 212.543945312 0 l 1
 158.543945312 0 l 1
 158.543945312 588.57421875 l 1
 78.8642578125 546.581054688 l 1
 55 593.5859375 l 1
EndSplineSet
Layer: 2
Layer: 3
EndChar

StartChar: two
Encoding: 50 50 4
Width: 475
Flags: W
HStem: 0 50<133.768 415> 603 50<133.269 288.821>
VStem: 332 54<390.084 557.308>
LayerCount: 4
Back
SplineSet
240 378 m 6
 312 378 352 424 352 490 c 4xec
 352 554 314 603 240 603 c 5
 210 603 160 595 111 557 c 5
 68 613 l 5
 124 662 197 673 240 673 c 5
 360 673 426 593 426 490 c 4xec
 426 422 392 371 349 344 c 5
 398 315 435 259 435 186 c 4
 435 79 365 -6 240 -6 c 5
 179 -6 106 12 55 56 c 5
 102 109 l 5
 139 76 193 64 240 64 c 5
 320 64 359 116 359 186 c 4
 359 245 332 308 240 308 c 6xf2
 172 308 l 5
 172 378 l 5
 240 378 l 6
EndSplineSet
Fore
SplineSet
332 480 m 0
 332 548.47265625 294.594613009 603 224.186046512 603 c 0
 193.679551235 603 143.157226562 595.330078125 95.421875 557.231445312 c 1
 63.69140625 596.893554688 l 1
 116.961914062 642.514648438 184.699945494 653 224.186046512 653 c 0
 325.399709302 653 386 578.1796875 386 480 c 0
 386 439.416015625 381.10546875 396.880859375 325.029478561 325.147460938 c 1
 133.767578125 50 l 1
 415 50 l 1
 415 0 l 1
 60 0 l 1
 60 36.6123046875 l 1
 291.348837209 358 l 0
 321.225336119 403.077148438 332 438.819335938 332 480 c 0
EndSplineSet
Layer: 2
Layer: 3
EndChar

StartChar: three
Encoding: 51 51 5
Width: 471
VWidth: 0
Flags: W
HStem: 4 50<122.64 286.592> 318 50<168.818 282.182> 613 50<129.625 283.192>
VStem: 328.818 54<415.49 566.159> 337.818 54<106.377 267.427>
LayerCount: 4
Back
Fore
SplineSet
391.818359375 186 m 0xe8
 391.818359375 83.8427734375 326.296875 4 217.578313464 4 c 0
 170.213867188 4 99.0263671875 20.6083984375 51 61.62109375 c 1
 85.4560546875 98.9482421875 l 1
 125.474609375 65.3798828125 179.50841826 54 217.578313464 54 c 0
 293.438476562 54 337.818359375 111.587890625 337.818359375 186 c 0xe8
 337.818359375 248.2109375 306.388671875 318 217.578313464 318 c 0
 168.818359375 318 l 1
 168.818359375 368 l 1
 217.578313464 368 l 0
 284.181640625 368 328.818359375 419.237304688 328.818359375 490 c 0
 328.818359375 558.47265625 286.491210938 613 217.578313464 613 c 0
 188.772253024 613 139.975585938 605.330078125 92.2392578125 567.231445312 c 1
 60.509765625 606.893554688 l 1
 113.779296875 652.514648438 180.293171328 663 217.578313464 663 c 0
 321.348632812 663 382.818359375 588.1796875 382.818359375 490 c 0xf0
 382.818359375 425.48828125 350.723632812 377.725585938 310.5 352.46875 c 0
 296.610351562 343.747070312 l 1
 310.724609375 335.39453125 l 0
 356.762695312 308.147460938 391.818359375 255.477539062 391.818359375 186 c 0xe8
EndSplineSet
Layer: 2
Layer: 3
EndChar

StartChar: four
Encoding: 52 52 6
Width: 490
Flags: W
HStem: 0 21G<328 378> 175 48<116.608 328 378 435>
VStem: 328 50<0 175 223 393>
LayerCount: 4
Back
Fore
SplineSet
60 212.876953125 m 1
 247.497448337 657 l 1
 292.884734123 657 l 1
 116.608398438 223 l 1
 328 223 l 1
 328 393 l 1
 378 393 l 1
 378 223 l 1
 435 223 l 1
 435 175 l 1
 378 175 l 1
 378 0 l 1
 328 0 l 1
 328 175 l 1
 60 175 l 1
 60 212.876953125 l 1
EndSplineSet
Layer: 2
Layer: 3
EndChar

StartChar: five
Encoding: 53 53 7
Width: 472
Flags: W
HStem: 4 50<133.873 300.818> 342 50<150.013 301.46> 607 50<134.818 361.818>
VStem: 82.8184 52<362.062 607> 349.256 53.5621<105.917 291.428>
LayerCount: 4
Back
SplineSet
252 -7 m 5xe8
 377 -7 447 78 447 185 c 4xe8
 447 258 410 314 361 343 c 5
 404 370 438 421 438 489 c 4
 438 592 372 672 252 672 c 5
 204 672 128 660 72 607 c 5
 116 552 l 5
 165 595 217 602 252 602 c 5
 326 602 364 553 364 489 c 4xf0
 364 423 324 377 252 377 c 6
 184 377 l 5
 184 307 l 5
 252 307 l 6
 345 307 373 244 373 185 c 4
 373 115 333 63 252 63 c 5
 205 63 147 76 110 112 c 5
 62 60 l 5
 113 11 191 -7 252 -7 c 5xe8
EndSplineSet
Fore
SplineSet
402.818359375 205 m 0
 402.818359375 56.2705078125 323.785984539 4 231.97350499 4 c 0
 181.213867188 4 110.026367188 20.6083984375 62 61.62109375 c 1
 96.4560546875 98.9482421875 l 1
 136.474609375 65.3798828125 191.128614815 54 231.97350499 54 c 0
 298.076182101 54 349.256227503 94.431640625 349.256227503 205 c 0
 348.818359375 300.282226562 297.088427198 342 231.684473729 342 c 0
 202.269992703 342 172.413085938 334.666015625 140.087890625 316.182617188 c 1
 82.818359375 340.606445312 l 1
 82.818359375 657 l 1
 361.818359375 657 l 1
 361.818359375 607 l 1
 134.818359375 607 l 1
 134.818359375 362.061523438 l 1
 149.6484375 370.244140625 l 0
 176.987304688 385.328125 204.489182692 392 231.684473729 392 c 0
 323.186727335 392 402.818359375 337.249023438 402.818359375 205 c 0
EndSplineSet
Layer: 2
SplineSet
376 205 m 0
 376 97.470703125 326.583007812 64 260 64 c 0
 193.416992188 64 144 97.470703125 144 205 c 0
 144 308.715820312 193.416992188 341 260 341 c 0
 326.583007812 341 376 308.715820312 376 205 c 0
209.096679688 414.96875 m 1
 338.104492188 677 l 1
 249.91015625 677 l 1
 121.528320312 415.236328125 l 0
 70.224609375 312.630859375 60 267.385742188 60 205 c 0
 60 44.7392578125 150.775390625 -16 260 -16 c 0
 369.223632812 -16 460 44.73828125 460 205 c 0
 460 361.634765625 369.224609375 421 260 421 c 0
 241.551757812 421 223.138671875 419.015625 209.096679688 414.96875 c 1
EndSplineSet
Layer: 3
EndChar

StartChar: six
Encoding: 54 54 8
Width: 470
Flags: W
HStem: 4 50<165.5 304.5> 356 50<165.207 304.5>
VStem: 60 54<109.741 300.74> 356 54<109.741 300.259>
LayerCount: 4
Back
Fore
SplineSet
235 54 m 0
 298.833984375 54 356 94.431640625 356 205 c 0
 356 315.568359375 298.833984375 356 235 356 c 0
 171.166015625 356 114 315.568359375 114 205 c 0
 114 94.431640625 171.166015625 54 235 54 c 0
163.053710938 386.560546875 m 1
 186.606445312 396.752929688 l 2
 199.521859976 403.038085938 216.253230168 406 235 406 c 0
 327.551757812 406 410 353.729492188 410 205 c 0
 410 56.2705078125 327.551757812 4 235 4 c 0
 142.448242188 4 60 56.2705078125 60 205 c 0
 60 265.541992188 69.1328125 306.90625 119.944335938 408.528320312 c 0
 234.306715745 657 l 1
 280.516301082 657 l 1
 163.053710938 386.560546875 l 1
EndSplineSet
Layer: 2
Layer: 3
EndChar

StartChar: seven
Encoding: 55 55 9
Width: 465
Flags: W
HStem: 0 21G<109.099 174.218> 597 50<55 342.099>
LayerCount: 4
Back
Fore
SplineSet
55 597 m 1
 55 647 l 1
 405 647 l 1
 405 609.03515625 l 1
 166.381835938 -0 l 1
 109.098632812 0 l 1
 342.098632812 597 l 1
 55 597 l 1
EndSplineSet
Layer: 2
Layer: 3
EndChar

StartChar: eight
Encoding: 56 56 10
Width: 470
Flags: W
HStem: 4 48<165.202 304.795> 320 46<166.797 303.209> 615 48<168.353 301.647>
VStem: 60 52<105.78 266.814> 69 52<413.774 566.76> 349 52<413.774 566.76> 358 52<105.779 266.813>
LayerCount: 4
Back
Fore
SplineSet
358 186 m 0xf2
 358 249.344726562 324.549804688 320 235 320 c 0
 145.463867188 320 112 249.345703125 112 186 c 0
 112 110.487304688 158.385742188 52 235 52 c 0
 311.608398438 52 358 110.484375 358 186 c 0xf2
349 490 m 0xec
 349 559.499023438 305.676757812 615 235 615 c 0
 164.323242188 615 121 559.499023438 121 490 c 0
 121 418.216796875 166.626953125 366 235 366 c 0
 303.373046875 366 349 418.216796875 349 490 c 0xec
69 490 m 0
 69 588.1796875 130.46875 663 235 663 c 0
 339.53125 663 401 588.1796875 401 490 c 0xec
 401 425.48828125 368.905273438 377.725585938 328.682617188 352.46875 c 0
 314.79296875 343.747070312 l 1
 328.907226562 335.39453125 l 0
 374.944335938 308.147460938 410 255.477539062 410 186 c 0
 410 83.8427734375 344.478515625 4 235 4 c 0
 125.514648438 4 60 83.8466796875 60 186 c 0xf2
 60 255.481445312 95.0546875 308.146484375 141.092773438 335.39453125 c 0
 155.20703125 343.747070312 l 1
 141.317382812 352.46875 l 0
 101.094726562 377.725585938 69 425.48828125 69 490 c 0
EndSplineSet
Layer: 2
Layer: 3
EndChar

StartChar: nine
Encoding: 57 57 11
Width: 470
Flags: W
HStem: 0 21G<186.48 245.4> 261 50<164.938 307.074> 613 50<164.938 306.291>
VStem: 60 54<366.741 557.259> 356 54<363.308 561.083>
LayerCount: 4
Back
SplineSet
134 462 m 4
 134 568 186 603 255 603 c 4
 324 603 376 568 376 462 c 4
 376 356 324 321 255 321 c 4
 186 321 134 356 134 462 c 4
450 462 m 4
 450 616 362 673 255 673 c 4
 148 673 60 616 60 462 c 4
 60 308 148 251 255 251 c 4
 362 251 450 308 450 462 c 4
EndSplineSet
Fore
SplineSet
235.826446281 613 m 0
 168.094444086 613 114 572.568359375 114 462 c 0
 114 351.431640625 168.094444086 311 235.826446281 311 c 0
 303.558448476 311 356 351.431640625 356 462 c 0
 356 572.568359375 303.558448476 613 235.826446281 613 c 0
311.00031476 280.439453125 m 1
 288.292185886 270.247070312 l 2
 274.289974496 263.961914062 256.150705385 261 235.826446281 261 c 0
 141.750040354 261 60 313.270507812 60 462 c 0
 60 610.729492188 141.750040354 663 235.826446281 663 c 0
 329.902852208 663 410 610.729492188 410 462 c 0
 410 401.427734375 400.8671875 360.043945312 350.546931495 258.37109375 c 0
 236.578068505 0 l 1
 186.480073283 0 l 1
 311.00031476 280.439453125 l 1
EndSplineSet
Layer: 2
SplineSet
366.942382812 288.33203125 m 1
 334.215820312 265.611328125 294.29296875 256 250 256 c 0
 145.223632812 256 60 310.635742188 60 462 c 0
 60 617.0390625 145.224609375 673 250 673 c 0
 355.109375 673 439.556640625 616.189453125 439.999023438 463.000976562 c 1
 400.25 367.966796875 l 1
 440 442.095703125 l 1
 440 205 l 2
 440 49.9609375 354.775390625 -6 250 -6 c 0
 191.021484375 -6 116.974609375 11.650390625 67.0419921875 57.5419921875 c 1
 108.256835938 102.169921875 l 1
 148.1171875 65.76171875 203.709960938 54 250 54 c 0
 321.416992188 54 376 93.0078125 376 205 c 2
 376 309.98828125 l 1
 366.942382812 288.33203125 l 1
124 462 m 0
 124 353.715820312 178.583007812 316 250 316 c 0
 321.416992188 316 376 353.715820312 376 462 c 0
 376 573.9921875 321.416992188 613 250 613 c 0
 178.583007812 613 124 573.9921875 124 462 c 0
EndSplineSet
Layer: 3
SplineSet
144 462 m 0
 144 569.529296875 193.416992188 603 260 603 c 0
 326.583007812 603 376 569.529296875 376 462 c 0
 376 358.284179688 326.583007812 326 260 326 c 0
 193.416992188 326 144 358.284179688 144 462 c 0
310.903320312 252.03125 m 1
 181.895507812 -10 l 1
 270.08984375 -10 l 1
 398.471679688 251.763671875 l 0
 449.774414062 354.369140625 460 399.614257812 460 462 c 0
 460 622.260742188 369.224609375 683 260 683 c 0
 150.776367188 683 60 622.26171875 60 462 c 0
 60 305.365234375 150.775390625 246 260 246 c 0
 278.448242188 246 296.861328125 247.984375 310.903320312 252.03125 c 1
EndSplineSet
EndChar

StartChar: colon
Encoding: 58 58 12
Width: 182
VWidth: 0
Flags: W
HStem: 4 82<54.0967 127.903> 293 82<54.0967 127.903>
VStem: 50 82<8.0967 81.9033 297.097 370.903>
LayerCount: 4
Back
Fore
SplineSet
50 45 m 0
 50 69.734375 66.265625 86 91 86 c 0
 115.734375 86 132 69.734375 132 45 c 0
 132 20.265625 115.734375 4 91 4 c 0
 66.265625 4 50 20.265625 50 45 c 0
50 334 m 0
 50 358.734375 66.265625 375 91 375 c 0
 115.734375 375 132 358.734375 132 334 c 0
 132 309.265625 115.734375 293 91 293 c 0
 66.265625 293 50 309.265625 50 334 c 0
EndSplineSet
Layer: 2
Layer: 3
EndChar

StartChar: A
Encoding: 65 65 13
Width: 569
Flags: W
HStem: 0 21G<35 96.254 465.374 525.648> 165 60<158.236 402.405> 647 20G<250.444 311.146>
AnchorPoint: "Center" 10 0 basechar 0
AnchorPoint: "Bottom" 536 0 basechar 0
AnchorPoint: "Top" 305 667 basechar 0
LayerCount: 4
Back
Fore
SplineSet
35 0 m 1
 257.10383429 667 l 1
 304.514815321 667 l 1
 525.6484375 0 l 1
 471.939453125 0 l 1
 417.773504666 165 l 1
 143.854425021 165 l 1
 89.6884765625 0 l 1
 35 0 l 1
402.404770558 225 m 1
 280.853405167 602.001953125 l 1
 158.235759028 225 l 1
 402.404770558 225 l 1
EndSplineSet
Layer: 2
Layer: 3
Substitution2: "'salt' Stylistic Alternatives lookup 0-1" A.alt
EndChar

StartChar: B
Encoding: 66 66 14
Width: 510
VWidth: 0
Flags: W
HStem: 0 59<139 349.695> 319 48<139 339.355> 608 59<139 340.364>
VStem: 85 54<59 319 367 608> 382 54<411.114 562.332> 401 54<110.412 263.562>
LayerCount: 4
Back
Fore
SplineSet
401 189 m 0xf4
 401 253.719726562 357.540039062 319 280 319 c 2
 139 319 l 1
 139 59 l 1
 280 59 l 0
 354.736328125 59 401 112.9375 401 189 c 0xf4
85 667 m 1
 280 667 l 2
 374.748046875 667 436 592.80078125 436 491.745117188 c 0xf8
 436 425.356445312 404.141601562 379.245117188 363.682617188 353.055664062 c 0
 349.79296875 344.064453125 l 1
 363.907226562 335.453125 l 0
 410.987304688 306.727539062 455 254.978515625 455 184.533203125 c 0
 455 79.6162109375 390.060546875 0 280 0 c 0
 85 0 l 1
 85 667 l 1
382 487 m 0
 382 556.658203125 339.360351562 608 280 608 c 2
 139 608 l 1
 139 367 l 1
 280 367 l 0
 337.041015625 367 382 415.05078125 382 487 c 0
EndSplineSet
Layer: 2
Layer: 3
EndChar

StartChar: C
Encoding: 67 67 15
Width: 521
VWidth: 0
Flags: W
HStem: 4 50<185.657 382.459> 613 50<185.661 376.223>
VStem: 65 54<122.391 545.006>
AnchorPoint: "Center" 0 0 basechar 0
AnchorPoint: "Bottom" 290 0 basechar 0
AnchorPoint: "Top" 290 667 basechar 0
LayerCount: 4
Back
SplineSet
65 194 m 2
 65 48 173 -6 290 -6 c 1
 396.977777778 -6 535 48 535 194 c 10
 525 473 l 18
 525 619 392 673 290 673 c 1
 247 673 147 665 95 584 c 1
 148 540 l 1
 195 602 260 603 290 603 c 1
 356 603 451 570 451 473 c 10
 461 194 l 18
 461 97 361.033112583 64 290 64 c 1
 209 64 139 97 139 194 c 1
 139 287 l 1
 277 287 l 1
 277 357 l 1
 65 357 l 1
 65 194 l 2
EndSplineSet
Fore
SplineSet
280 613 m 0
 201.284179688 613 119 582.491210938 119 453 c 2
 119 214 l 0
 119 85.521484375 201.211914062 54 280 54 c 0
 325.883789062 54 382.504882812 66.353515625 421.361328125 98.9482421875 c 1
 455.818359375 61.62109375 l 1
 406.677734375 19.6572265625 336.393554688 4 280 4 c 0
 171.040039062 4 65 49.5771484375 65 214 c 0
 65 453 l 0
 65 618.415039062 170.991210938 663 280 663 c 0
 324.859375 663 394.178710938 651.538085938 446.30859375 606.893554688 c 1
 414.578125 567.231445312 l 1
 365.477539062 606.419921875 314.440429688 613 280 613 c 0
EndSplineSet
Layer: 2
Layer: 3
Substitution2: "'salt' Stylistic Alternatives lookup 0-1" C.alt
EndChar

StartChar: O
Encoding: 79 79 16
Width: 560
VWidth: 0
Flags: W
HStem: 4 50<187.406 372.594> 613 50<187.406 372.594>
VStem: 65 54<123.284 543.716> 441 54<123.284 543.716>
AnchorPoint: "Center" 0 0 basechar 0
AnchorPoint: "Bottom" 300 0 basechar 0
AnchorPoint: "Top" 300 667 basechar 0
LayerCount: 4
Back
Fore
SplineSet
495 453 m 0
 495 214 l 2
 495 49.91015625 384.298828125 4 280 4 c 0
 175.701171875 4 65 49.9150390625 65 214 c 0
 65 453 l 0
 65 617.08984375 175.701171875 663 280 663 c 0
 384.298828125 663 495 617.084960938 495 453 c 0
119 453 m 0
 119 214 l 2
 119 85.0361328125 204.630859375 54 280 54 c 0
 355.369140625 54 441 85.0361328125 441 214 c 0
 441 453 l 0
 441 581.963867188 355.369140625 613 280 613 c 0
 204.630859375 613 119 581.963867188 119 453 c 0
EndSplineSet
Layer: 2
Layer: 3
EndChar

StartChar: D
Encoding: 68 68 17
Width: 550
VWidth: 0
Flags: W
HStem: 0 60<139 369.016> 607 60<139 369.036>
VStem: 85 54<60 607> 421 54<114.862 551.937>
AnchorPoint: "Center" 5 0 basechar 0
AnchorPoint: "Bottom" 287 0 basechar 0
AnchorPoint: "Top" 290 667 basechar 0
LayerCount: 4
Back
Fore
SplineSet
290 667 m 0
 411.185546875 667 475 593.016601562 475 462.879882812 c 2
 475 205.151367188 l 0
 475 72.927734375 411.20703125 0 290 0 c 0
 85 0 l 1
 85 667 l 1
 290 667 l 0
290 60 m 0
 375.485351562 60 421 108.591796875 421 209 c 2
 421 459 l 0
 421 557.424804688 375.53125 607 290 607 c 0
 139 607 l 1
 139 60 l 1
 290 60 l 0
EndSplineSet
Layer: 2
Layer: 3
EndChar

StartChar: E
Encoding: 69 69 18
Width: 470
VWidth: 0
Flags: W
HStem: 0 51.623<139 405> 318 50<139 354> 615.27 51.7305<137 404>
VStem: 85 54<51.623 318 368 615.27>
AnchorPoint: "Center" 5 0 basechar 0
AnchorPoint: "Bottom" 261 0 basechar 0
AnchorPoint: "Top" 261 667 basechar 0
LayerCount: 4
Back
Fore
SplineSet
85 0 m 1
 85 667 l 1
 404 667 l 1
 404 615.26953125 l 1
 137 615.26953125 l 1
 137 368 l 1
 354 368 l 1
 354 318 l 1
 139 318 l 1
 139 51.623046875 l 1
 405 51.623046875 l 1
 405 0 l 1
 85 0 l 1
EndSplineSet
Layer: 2
Layer: 3
EndChar

StartChar: F
Encoding: 70 70 19
Width: 464
VWidth: 0
Flags: W
HStem: 0 21G<85 139> 318 50<139 354> 615.27 51.7305<139 404>
VStem: 85 54<0 318 368 615.27>
LayerCount: 4
Back
Fore
SplineSet
85 0 m 1
 85 667 l 1
 404 667 l 1
 404 615.26953125 l 1
 139 615.26953125 l 1
 139 368 l 1
 354 368 l 1
 354 318 l 1
 139 318 l 1
 139 0 l 1
 85 0 l 1
EndSplineSet
Layer: 2
Layer: 3
EndChar

StartChar: H
Encoding: 72 72 20
Width: 570
VWidth: 0
Flags: W
HStem: 0 21G<85 139 431 485> 318 50<139 431> 647 20G<85 139 431 485>
VStem: 85 54<0 318 368 667> 431 54<0 318 368 667>
AnchorPoint: "Center" 5 0 basechar 0
AnchorPoint: "Bottom" 305 0 basechar 0
AnchorPoint: "Top" 305 667 basechar 0
LayerCount: 4
Back
Fore
SplineSet
85 0 m 1
 85 667 l 1
 139 667 l 1
 139 368 l 1
 431 368 l 1
 431 667 l 1
 485 667 l 1
 485 0 l 1
 431 0 l 1
 431 318 l 1
 139 318 l 1
 139 0 l 1
 85 0 l 1
EndSplineSet
Layer: 2
Layer: 3
EndChar

StartChar: I
Encoding: 73 73 21
Width: 224
VWidth: 0
Flags: W
HStem: 0 21G<85 139> 647 20G<85 139>
VStem: 85 54<0 667>
AnchorPoint: "Center" 5 0 basechar 0
AnchorPoint: "Bottom" 122 0 basechar 0
AnchorPoint: "Top" 122 667 basechar 0
LayerCount: 4
Back
Fore
SplineSet
85 667 m 1
 139 667 l 1
 139 0 l 1
 85 0 l 1
 85 667 l 1
EndSplineSet
Layer: 2
Layer: 3
EndChar

StartChar: J
Encoding: 74 74 22
Width: 451
VWidth: 0
Flags: W
HStem: 14 50<128.292 271.498> 647 20G<318.697 372.697>
VStem: 318.697 54<116.6 667>
AnchorPoint: "Center" 20 0 basechar 0
AnchorPoint: "Bottom" 231 0 basechar 0
AnchorPoint: "Top" 379 667 basechar 0
LayerCount: 4
Back
Fore
SplineSet
318.697265625 224 m 0
 318.697265625 667 l 1
 372.697265625 667 l 1
 372.697265625 224 l 0
 372.697265625 58.2236328125 290.407182566 14 203.702419957 14 c 0
 171.662109375 14 97.8134765625 22.998046875 55 84.8359375 c 1
 94.833984375 116.703125 l 1
 133.241210938 68.462890625 179.405403983 64 203.702419957 64 c 0
 256.965888661 64 318.697265625 87.80859375 318.697265625 224 c 0
EndSplineSet
Layer: 2
SplineSet
406 194 m 2
 406 47.3916015625 311.041992188 -6 216 -6 c 0
 120.958007812 -6 26 47.3916015625 26 194 c 0
 26 473 l 0
 26 619.608398438 120.958007812 673 216 673 c 0
 311.041992188 673 406 619.608398438 406 473 c 0
 406 194 l 2
90 194 m 2
 90 90.439453125 152.930664062 54 216 54 c 0
 279.065429688 54 342 90.4287109375 342 194 c 0
 342 473 l 0
 342 576.560546875 279.069335938 613 216 613 c 0
 152.934570312 613 90 576.571289062 90 473 c 0
 90 194 l 2
EndSplineSet
Layer: 3
Substitution2: "'salt' Stylistic Alternatives lookup 0-1" J.alt
EndChar

StartChar: L
Encoding: 76 76 23
Width: 480
VWidth: 0
Flags: W
HStem: 0 51.5459<139 425> 647 20G<85 139>
VStem: 85 54<51.5459 667>
AnchorPoint: "Apos" 222 667 basechar 0
AnchorPoint: "Bottom" 272 0 basechar 0
AnchorPoint: "Center" 275 334 basechar 0
AnchorPoint: "Top" 123 667 basechar 0
LayerCount: 4
Back
Fore
SplineSet
85 0 m 1
 85 667 l 1
 139 667 l 1
 139 51.5458984375 l 1
 425 51.5458984375 l 1
 425 0 l 1
 85 0 l 1
EndSplineSet
Layer: 2
Layer: 3
EndChar

StartChar: U
Encoding: 85 85 24
Width: 540
VWidth: 0
Flags: W
HStem: 14 50<188.385 351.615> 647 20G<75 129 411 465>
VStem: 75 54<126.887 667> 411 54<126.887 667>
AnchorPoint: "Center" 5 0 basechar 0
AnchorPoint: "Bottom" 288 0 basechar 0
AnchorPoint: "Top" 290 667 basechar 0
LayerCount: 4
Back
Fore
SplineSet
129 667 m 1
 129 224 l 2
 129 96.044921875 200.609769505 64 270 64 c 0
 339.390230495 64 411 96.044921875 411 224 c 0
 411 667 l 1
 465 667 l 1
 465 224 l 0
 465 59.224609375 366.743267539 14 270 14 c 0
 173.256732461 14 75 59.224609375 75 224 c 0
 75 667 l 1
 129 667 l 1
EndSplineSet
Layer: 2
Layer: 3
EndChar

StartChar: V
Encoding: 86 86 25
Width: 569
Flags: W
HStem: 0 21G<250.45 311.14> 647 20G<35 97.2165 464.412 525.648>
LayerCount: 4
Back
Fore
SplineSet
257.10999977 0 m 1
 35 667 l 1
 90.6796875 667 l 1
 280.814453125 85.2607421875 l 1
 470.94921875 667 l 1
 525.6484375 667 l 1
 304.50870104 -0 l 1
 257.10999977 0 l 1
EndSplineSet
Layer: 2
Layer: 3
EndChar

StartChar: W
Encoding: 87 87 26
Width: 762
VWidth: 0
Flags: W
HStem: 0 21G<208.131 269.944 487.789 548.565> 647 20G<35 94.1087 661.663 720.755>
AnchorPoint: "Bottom" 10 0 basechar 0
AnchorPoint: "Center" 10 0 basechar 0
AnchorPoint: "Top" 401 667 basechar 0
LayerCount: 4
Back
Fore
SplineSet
213.482421875 0 m 1
 35 667 l 1
 89.0732421875 667 l 1
 238.092773438 75.119140625 l 1
 355.126475797 502 l 1
 402.530941482 502 l 1
 518.639648438 75.9189453125 l 1
 666.671875 667 l 1
 720.754882812 667 l 1
 543.2421875 0 l 1
 493.30859375 0 l 1
 378.834843857 414.80078125 l 1
 264.427734375 -0 l 1
 213.482421875 0 l 1
EndSplineSet
Layer: 2
Layer: 3
EndChar

StartChar: M
Encoding: 77 77 27
Width: 701
VWidth: 0
Flags: W
HStem: 0 21G<85 138.775 562.18 616> 647 20G<85 143.841 556.159 616>
VStem: 85 53.7754<0 542.093> 562.18 53.8197<0 544.1>
LayerCount: 4
Back
Fore
SplineSet
85 0 m 1
 85 667 l 1
 133.922851562 667 l 1
 350 231.287109375 l 1
 566.077148438 667 l 1
 616 667 l 1
 616 0 l 1
 562.180343235 0 l 1
 562.180343235 544.099609375 l 1
 374.767813855 165 l 1
 325.232186145 165 l 1
 138.775424077 542.092773438 l 1
 138.775424077 0 l 1
 85 0 l 1
EndSplineSet
Layer: 2
Layer: 3
EndChar

StartChar: G
Encoding: 71 71 28
Width: 540
VWidth: 0
Flags: W
HStem: 4 50<181.797 359.13> 297 50<292.139 421> 613 50<181.797 360.549>
VStem: 65 54<121.994 545.006> 421 54<116.741 297>
AnchorPoint: "Center" 0 0 basechar 0
AnchorPoint: "Bottom" 290 0 basechar 0
AnchorPoint: "Top" 290 667 basechar 0
LayerCount: 4
Back
SplineSet
515 194 m 18
 515 48 402 -6 290 -6 c 1
 178 -6 65 48 65 194 c 10
 65 473 l 18
 65 619 178 673 290 673 c 1
 402 673 515 619 515 473 c 10
 515 194 l 18
139 194 m 18
 139 97 214 64 290 64 c 1
 366 64 441 97 441 194 c 10
 441 473 l 18
 441 570 366 603 290 603 c 1
 214 603 139 570 139 473 c 10
 139 194 l 18
EndSplineSet
Fore
SplineSet
396.327918046 567.231445312 m 1
 350.479026542 606.419921875 302.821858185 613 270.662251656 613 c 0
 197.159399576 613 119 582.491210938 119 453 c 0
 119 214 l 0
 119 84.5087890625 197.159399576 54 270.662251656 54 c 0
 344.165103736 54 421 84.5087890625 421 214 c 0
 421 297 l 1
 292.139072848 297 l 1
 292.139072848 347 l 1
 475 347 l 1
 475 214 l 0
 475 48.87109375 372.438237272 4 270.662251656 4 c 0
 168.872587697 4 65 48.5849609375 65 214 c 0
 65 453 l 0
 65 618.415039062 168.872587697 663 270.662251656 663 c 0
 312.550807119 663 377.279458558 651.538085938 426.30859375 606.893554688 c 1
 396.327918046 567.231445312 l 1
EndSplineSet
Layer: 2
Layer: 3
Substitution2: "'salt' Stylistic Alternatives lookup 0-1" G.alt
EndChar

StartChar: T
Encoding: 84 84 29
Width: 520
VWidth: 0
Flags: W
HStem: 0 21G<223 277.233> 615.454 51.5459<55 235.842 284.158 465>
VStem: 223 54<0 335.473> 235.842 48.3158<279.981 615.454>
AnchorPoint: "Center" 35 0 basechar 0
AnchorPoint: "Bottom" 281 0 basechar 0
AnchorPoint: "Top" 280 667 basechar 0
LayerCount: 4
Back
Fore
SplineSet
55 615.454101562 m 1xd0
 55 667 l 1
 465 667 l 1
 465 615.454101562 l 1
 284.157894737 615.454101562 l 1xd0
 277 0 l 1
 223 0 l 1xe0
 235.842105263 615.454101562 l 1
 55 615.454101562 l 1xd0
EndSplineSet
Layer: 2
Layer: 3
EndChar

StartChar: Q
Encoding: 81 81 30
Width: 560
VWidth: 0
Flags: W
HStem: -6 60<186.62 358.998> 613 40<190.512 370.386>
VStem: 65 54<123.689 545.038> 441 54<121.806 545.036>
LayerCount: 4
Back
SplineSet
535 204 m 22
 535 47 417 -6 300 -6 c 5
 183 -6 65 47 65 204 c 14
 65 463 l 22
 65 620 183 673 300 673 c 5
 417 673 535 620 535 463 c 14
 535 204 l 22
139 204 m 22
 139 96 219 64 300 64 c 5
 381 64 461 96 461 204 c 14
 461 463 l 22
 461 571 381 603 300 603 c 5
 219 603 139 571 139 463 c 14
 139 204 l 22
390 66 m 5
 544 -36 l 5
 507 -95 l 5
 352 7 l 5
 390 66 l 5
EndSplineSet
Fore
SplineSet
119 453 m 0
 119 214 l 2
 119 85.0361328125 202.492466518 54 280.621118012 54 c 0
 358.749769507 54 441 85.0361328125 441 214 c 0
 441 453 l 0
 441 581.963867188 358.749769507 613 280.621118012 613 c 0
 202.492466518 613 119 581.963867188 119 453 c 0
412.637125146 27.5166015625 m 0
 400.138665809 19.3154296875 l 1
 500.348632812 -48.9453125 l 1
 473.956054688 -91.0322265625 l 1
 342.832231415 -0.5654296875 l 1
 339.319730202 -1.1005859375 l 0
 319.954720254 -4.0498046875 299.724178717 -6 280.621118012 -6 c 0
 173.421595982 -6 65 39.9150390625 65 204 c 0
 65 443 l 0
 65 607.08984375 173.421595982 653 280.621118012 653 c 0
 387.820640043 653 495 607.084960938 495 443 c 0
 495 204 l 0
 495 111.7578125 459.640625 57.59765625 412.637125146 27.5166015625 c 0
EndSplineSet
Layer: 2
Layer: 3
EndChar

StartChar: P
Encoding: 80 80 31
Width: 492
VWidth: 0
Flags: W
HStem: 0 21G<85 138> 267 50<139 331.425> 607 60<139 331.425>
VStem: 85 54<0 267 317 607> 383 54<371.446 552.791>
LayerCount: 4
Back
Fore
SplineSet
139 317 m 1
 262 317 l 2
 327.401367188 317 383 360.986328125 383 462 c 0
 383 563.013671875 327.401367188 607 262 607 c 0
 139 607 l 1
 139 317 l 1
85 667 m 1
 262 667 l 2
 355.842773438 667 437 608.94140625 437 467 c 0
 437 325.056640625 355.841796875 267 262 267 c 0
 138 267 l 1
 138 0 l 1
 85 0 l 1
 85 667 l 1
EndSplineSet
Layer: 2
Layer: 3
EndChar

StartChar: R
Encoding: 82 82 32
Width: 522
VWidth: 0
Flags: W
HStem: 0 21G<85 138 388.121 451.929> 267 50<139 294.603> 607 60<139 340.208>
VStem: 85 54<0 267 317 607> 393 54<371.452 552.513>
AnchorPoint: "Center" 5 0 basechar 0
AnchorPoint: "Bottom" 287 0 basechar 0
AnchorPoint: "Top" 265 667 basechar 0
LayerCount: 4
Back
SplineSet
282 327 m 4
 362 327 413 366 413 462 c 4
 413 558 362 597 282 597 c 4
 159 597 l 5
 159 327 l 5
 282 327 l 4
282 667 m 4
 400 667 487 606 487 462 c 4
 487 318 400 257 282 257 c 4
 158 257 l 5
 158 0 l 5
 85 0 l 5
 85 667 l 5
 282 667 l 4
380.70703125 275.33984375 m 5
 497 0 l 5
 419 0 l 5
 310.157226562 258.629882812 l 5
 380.70703125 275.33984375 l 5
EndSplineSet
Fore
SplineSet
85 667 m 1
 263.102362205 667 l 2
 367.981137734 667 447 608.642578125 447 465.97265625 c 0
 447 366.038085938 407.169921875 309.778320312 350.614849902 282.63671875 c 0
 342.285725271 278.55859375 l 1
 451.928710938 0 l 1
 395.630859375 0 l 1
 294.70949188 268.762695312 l 1
 287.880113497 267.938476562 l 0
 280.268024114 267.020507812 272.324856976 267 263.102362205 267 c 0
 138 267 l 1
 138 0 l 1
 85 0 l 1
 85 667 l 1
139 317 m 1
 263.102362205 317 l 2
 340.842658095 317 393 360.918945312 393 462 c 0
 393 563.081054688 340.842658095 607 263.102362205 607 c 0
 139 607 l 1
 139 317 l 1
EndSplineSet
Layer: 2
Layer: 3
EndChar

StartChar: N
Encoding: 78 78 33
Width: 570
VWidth: 0
Flags: W
HStem: 0 21G<85 138.699 424.909 485> 647 20G<85 145.08 431 485>
VStem: 85 53.6991<0 547.237> 431 54<119.763 667>
AnchorPoint: "Center" 7 0 basechar 0
AnchorPoint: "Bottom" 307 0 basechar 0
AnchorPoint: "Top" 305 667 basechar 0
LayerCount: 4
Back
Fore
SplineSet
85 0 m 1
 85 667 l 1
 134.234375 667 l 1
 431 119.762695312 l 1
 431 667 l 1
 485 667 l 1
 485 0 l 1
 435.765625 0 l 1
 138.699107187 547.237304688 l 1
 138.699107187 0 l 1
 85 0 l 1
EndSplineSet
Layer: 2
Layer: 3
EndChar

StartChar: K
Encoding: 75 75 34
Width: 544
VWidth: 0
Flags: W
HStem: 0 21G<85 139 412.845 488.888> 647 20G<85 139 399.459 474.623>
VStem: 85 54<0 229.706 306.014 667>
AnchorPoint: "Top" 5 0 basechar 0
AnchorPoint: "Center" 5 0 basechar 0
AnchorPoint: "Bottom" 295 0 basechar 0
LayerCount: 4
Back
Fore
SplineSet
139 229.706054688 m 1
 139 0 l 1
 85 0 l 1
 85 667 l 1
 139 667 l 1
 139 306.013671875 l 1
 414.735351562 667 l 1
 474.623046875 667 l 1
 238.043579586 359.071289062 l 1
 488.887695312 -0 l 1
 426.977539062 0 l 1
 205.855891107 312.92578125 l 1
 139 229.706054688 l 1
EndSplineSet
Layer: 2
Layer: 3
EndChar

StartChar: S
Encoding: 83 83 35
Width: 501
VWidth: 0
Flags: W
HStem: 4 50<128.533 313.651> 613 50<157.594 329.837>
VStem: 53 54<422.742 563.827> 370 54<108.775 257.126>
AnchorPoint: "Center" 0 0 basechar 0
AnchorPoint: "Bottom" 256 0 basechar 0
AnchorPoint: "Top" 256 667 basechar 0
LayerCount: 4
Back
SplineSet
256 673 m 5
 304 673 380 661 436 608 c 5
 392 553 l 5
 343 596 291 603 256 603 c 1029
EndSplineSet
Fore
SplineSet
424 186 m 0
 424 70.9853515625 346.916015625 4 231.993377483 4 c 0
 182.790433568 4 103.182617188 21.208984375 55.212890625 61.654296875 c 1
 89.6826171875 98.9970703125 l 1
 132.208984375 64.599609375 192.418201573 54 231.993377483 54 c 0
 309.5703125 54 370 98.7587890625 370 186 c 0
 370 279.967773438 293.270003363 306.866210938 229.964294029 318.861328125 c 0
 144.541015625 334.712890625 53 376.611328125 53 488 c 0
 53 611.326171875 141.379882812 663 234.59602649 663 c 0
 273.565442622 663 348.381835938 650.90625 400.287109375 606.866210938 c 1
 368.549804688 567.1953125 l 1
 316.9375 607.288085938 264.502768005 613 234.59602649 613 c 0
 170.875976562 613 107 577.639648438 107 488 c 0
 107 404.84765625 177.802870188 380.1015625 239.065093388 367.172851562 c 0
 329.620117188 348.272460938 424 309.5234375 424 186 c 0
EndSplineSet
Layer: 2
SplineSet
251 315 m 0
 140.155273438 315 108 247.984375 108 186 c 0
 108 109.61328125 152.6171875 52 251 52 c 0
 349.3828125 52 394 109.61328125 394 186 c 0
 394 247.984375 361.844726562 315 251 315 c 0
251 615 m 0
 158.615234375 615 117 560.368164062 117 490 c 0
 117 420.315429688 160.76171875 371 251 371 c 0
 341.236328125 371 385 420.3125 385 490 c 0
 385 560.365234375 343.387695312 615 251 615 c 0
251 673 m 0
 383.551757812 673 447 593.219726562 447 490 c 0
 447 423.744140625 413.953125 374.362304688 372.340820312 348.234375 c 0
 365.396484375 343.874023438 l 1
 372.453125 339.697265625 l 0
 419.97265625 311.573242188 456 257.23828125 456 186 c 0
 456 78.80859375 388.517578125 -6 251 -6 c 0
 113.482421875 -6 46 78.80859375 46 186 c 0
 46 257.241210938 82.02734375 311.573242188 129.546875 339.697265625 c 0
 136.603515625 343.874023438 l 1
 129.659179688 348.234375 l 0
 88.046875 374.362304688 55 423.744140625 55 490 c 0
 55 593.223632812 118.451171875 673 251 673 c 0
EndSplineSet
Layer: 3
Substitution2: "'salt' Stylistic Alternatives lookup 0-1" S.alt
EndChar

StartChar: X
Encoding: 88 88 36
Width: 527
VWidth: 0
Flags: W
HStem: 0 21G<45 113.573 398.857 467.434> 647 20G<45.9814 116.359 399.726 467.408>
LayerCount: 4
Back
Fore
SplineSet
224.431948092 334.009765625 m 1
 45.9814453125 667 l 1
 105.819335938 667 l 1
 256.684703454 380.7265625 l 1
 410.469726562 667 l 1
 467.408203125 667 l 1
 290.053636001 334.0234375 l 1
 467.43359375 0 l 1
 409.499023438 0 l 1
 256.667497396 287.231445312 l 1
 102.86328125 -0 l 1
 45 0 l 1
 224.431948092 334.009765625 l 1
EndSplineSet
Layer: 2
Layer: 3
EndChar

StartChar: Y
Encoding: 89 89 37
Width: 501
VWidth: 0
Flags: W
HStem: 0 21G<218.469 269.129> 647 20G<35 102.87 387.311 453.379>
VStem: 218.469 50.6597<0 277.721>
AnchorPoint: "Bottom" 10 0 basechar 0
AnchorPoint: "Center" 10 0 basechar 0
AnchorPoint: "Top" 270.5 667 basechar 0
LayerCount: 4
Back
Fore
SplineSet
218.469277577 277.720703125 m 1
 35 667 l 1
 93.5185546875 667 l 1
 243.718510804 345.75390625 l 1
 396.84375 667 l 1
 453.37890625 667 l 1
 269.128987319 277.731445312 l 1
 269.128987319 0 l 1
 218.469277577 0 l 1
 218.469277577 277.720703125 l 1
EndSplineSet
Layer: 2
Layer: 3
EndChar

StartChar: Z
Encoding: 90 90 38
Width: 500
VWidth: 0
Flags: W
HStem: 0 51.5459<119.481 440> 615.454 51.5459<70 369.49>
AnchorPoint: "Center" 5 0 basechar 0
AnchorPoint: "Bottom" 270 0 basechar 0
AnchorPoint: "Top" 270 667 basechar 0
LayerCount: 4
Back
Fore
SplineSet
70 615.454101562 m 1
 70 667 l 1
 430 667 l 1
 430 628.580078125 l 1
 119.481445312 51.5458984375 l 1
 440 51.5458984375 l 1
 440 0 l 1
 60 0 l 1
 60 38.427734375 l 1
 369.490234375 615.454101562 l 1
 70 615.454101562 l 1
EndSplineSet
Layer: 2
Layer: 3
EndChar

StartChar: comma
Encoding: 44 44 39
Width: 182
Flags: W
HStem: -121 217
VStem: 50 82<18.338 91.884> 55.7549 25.2949<-121 -98.8867>
LayerCount: 4
Back
SplineSet
101 96 m 4
 126 96 152 80 152 45 c 4
 152 39 151 22 143 -1 c 6
 98 -121 l 5
 53 -121 l 5
 86 13 l 5
 91 14 97 -3 101 -6 c 5
 76 -6 50 10 50 45 c 4
 50 80 76 96 101 96 c 4
EndSplineSet
Fore
SplineSet
50 55 m 0xc0
 50 83.7080078125 70.140625 96 91 96 c 0
 111.859375 96 132 83.7080078125 132 55 c 0xc0
 132 50.126953125 131.120117188 35.03515625 123.58984375 13.3857421875 c 1
 81.0498046875 -121 l 1
 55.7548828125 -121 l 1xa0
 83.912109375 13.5703125 l 1
 75.162109375 16.4873046875 l 0
 61.05078125 21.1904296875 50 33.0380859375 50 55 c 0xc0
EndSplineSet
Layer: 2
Layer: 3
EndChar

StartChar: semicolon
Encoding: 59 59 40
Width: 182
VWidth: 0
Flags: W
HStem: 293 82<53.9193 126.903>
VStem: 50 82<-1.662 71.884 297.527 370.473>
LayerCount: 4
Back
Fore
SplineSet
50 35 m 0
 50 63.7080078125 70.140625 76 91 76 c 0
 111.859375 76 132 63.7080078125 132 35 c 0
 132 30.126953125 131.120117188 15.03515625 123.58984375 -6.6142578125 c 1
 81.0498046875 -121 l 1
 55.7548828125 -121 l 1
 83.912109375 -6.4296875 l 1
 75.162109375 -3.5126953125 l 0
 61.05078125 1.1904296875 50 13.0380859375 50 35 c 0
50 334 m 0
 50 359.005859375 65.4521484375 375 90 375 c 0
 114.734375 375 131 358.734375 131 334 c 0
 131 309.265625 114.734375 293 90 293 c 0
 65.4521484375 293 50 308.995117188 50 334 c 0
EndSplineSet
Layer: 2
Layer: 3
EndChar

StartChar: AE
Encoding: 174 198 41
Width: 752
Flags: W
HStem: 0 50.5908<451.731 680.371> 175 50<201.544 403.129> 318 49<451.731 647.371> 615.275 51.7246<451.731 670.371>
VStem: 403.129 48.6021<50.5908 175 225 318 367 615.275>
LayerCount: 4
Back
Fore
SplineSet
177.241525712 175 m 1
 91.3388671875 0 l 1
 35 0 l 1
 367.882642872 667 l 1
 670.37109375 667 l 1
 670.37109375 615.275390625 l 1
 451.731119463 615.275390625 l 1
 451.731119463 367 l 1
 647.37109375 367 l 1
 647.37109375 318 l 1
 451.731119463 318 l 1
 451.731119463 50.5908203125 l 1
 680.37109375 50.5908203125 l 1
 680.37109375 0 l 1
 403.129025703 0 l 1
 403.129025703 175 l 1
 177.241525712 175 l 1
403.129025703 225 m 1
 403.129025703 628.624023438 l 1
 201.544433885 225 l 1
 403.129025703 225 l 1
EndSplineSet
Layer: 2
Layer: 3
EndChar

StartChar: Oslash
Encoding: 175 216 42
Width: 561
VWidth: 0
Flags: W
HStem: -5.40039 54.4004<186.123 367.292> 618 54.4287<184.096 363.94>
VStem: 60 50<125.486 542.087> 440.184 49.816<125.496 543.379>
LayerCount: 4
Back
SplineSet
300 606 m 4
 209 606 137 566 137 447 c 6
 137 220 l 6
 137 101 209 61 300 61 c 4
 391 61 463 101 463 220 c 6
 463 447 l 6
 463 566 391 606 300 606 c 4
300 673 m 4
 427 673 535 612 535 446 c 6
 535 222 l 6
 535 56 427 -6 300 -6 c 4
 173 -6 65 56 65 222 c 6
 65 446 l 6
 65 612 173 673 300 673 c 4
545 693 m 5
 127 -27 l 5
 56 -27 l 5
 474 693 l 5
 545 693 l 5
EndSplineSet
Fore
SplineSet
383.615701687 584.192382812 m 0
 353.65680718 606.534179688 316.061295773 618 275.920245399 618 c 0
 187.179292082 618 110 572.083984375 110 447 c 0
 110 220 l 0
 110 185.375976562 118.3671875 155.025390625 128.896484375 131.862304688 c 0
 136.907226562 114.237304688 l 1
 390.686745111 578.918945312 l 1
 383.615701687 584.192382812 l 0
149.536114839 36.2001953125 m 0
 141.333924463 41.900390625 l 1
 102.276367188 -27 l 1
 62.2099609375 -27 l 1
 114.131835938 66.693359375 l 1
 109.665039062 72.1767578125 l 0
 79.8935546875 108.725585938 60 152.209960938 60 218.828125 c 0
 60 449.228515625 l 0
 60 613.557617188 160.012515577 672.428710938 275.920245399 672.428710938 c 0
 323.984824339 672.428710938 366.179172258 658.626953125 404.133094086 631.890625 c 0
 412.336201112 626.112304688 l 1
 448.709960938 693 l 1
 489.551757812 693 l 1
 437.237017111 600.491210938 l 1
 441.358278614 594.955078125 l 0
 471.09765625 557.32421875 490 514.884765625 490 449.228515625 c 0
 490 218.828125 l 0
 490 54.4580078125 391.764726323 -5.400390625 275.920245399 -5.400390625 c 0
 229.074811877 -5.400390625 186.754882812 10.3369140625 149.536114839 36.2001953125 c 0
422.446858225 535.137695312 m 0
 414.902823044 552.8203125 l 1
 162.180394459 87.193359375 l 1
 169.040608225 81.900390625 l 0
 198.286348495 59.3388671875 235.967108416 49 275.920245399 49 c 0
 364.661198715 49 440.18404908 94.916015625 440.18404908 220 c 0
 440.18404908 447 l 0
 440.18404908 480.66015625 432.365018692 511.891601562 422.446858225 535.137695312 c 0
EndSplineSet
Layer: 2
Layer: 3
EndChar

StartChar: question
Encoding: 63 63 43
Width: 428
VWidth: 0
Flags: W
HStem: 4 82<169.975 230.4> 613 50<108.487 268.282>
VStem: 166.621 67.1326<6.25339 83.7466> 182.176 33.0954<190 287.116> 315.309 54<417.105 564.201>
LayerCount: 4
Back
SplineSet
101 489 m 4
 101 552 154 603 220 603 c 4
 286 603 339 552 339 489 c 4
 339 426 286 375 220 375 c 4
 154 375 101 426 101 489 c 4
EndSplineSet
Fore
SplineSet
39 606.893554688 m 1xd8
 92.26953125 652.514648438 160.331971008 663 196.912404083 663 c 0
 291.92578125 663 369.30859375 599.033203125 369.30859375 490 c 0
 369.30859375 421.400390625 338.485351562 374.896484375 289.993164062 344.470703125 c 0
 240.131105634 311.909179688 218.327076023 282.2734375 216.568970232 226.434570312 c 0
 215.271377828 190 l 1
 182.175975739 190 l 1
 182.175975739 237 l 0
 182.175975739 299.541015625 203.882466057 343.862304688 252.494140625 379.450195312 c 0
 289.158203125 401.688476562 315.30859375 434.376953125 315.30859375 490 c 0
 315.30859375 567.509765625 264.717773438 613 196.912404083 613 c 0
 168.65079354 613 118.465820312 605.330078125 70.7294921875 567.231445312 c 1
 39 606.893554688 l 1xd8
166.620856932 45 m 0xe8
 166.620856932 69.734375 179.937369003 86 200.187165937 86 c 0
 220.436962872 86 233.753474943 69.734375 233.753474943 45 c 0
 233.753474943 20.265625 220.436962872 4 200.187165937 4 c 0
 179.937369003 4 166.620856932 20.265625 166.620856932 45 c 0xe8
EndSplineSet
Layer: 2
SplineSet
190.833007812 185 m 1
 190.24609375 196.723632812 189.084960938 221.516601562 189.084960938 237 c 0
 189.084960938 303.733398438 225.357421875 345.166992188 285.80078125 384.801757812 c 0
 319.724609375 406.752929688 357.084960938 432.314453125 357.084960938 490 c 0
 357.084960938 566.553710938 298.721679688 613 212.084960938 613 c 0
 168.3671875 613 116.42578125 602.685546875 81.14453125 557.97265625 c 1
 31 596.012695312 l 1
 77.5244140625 658.825195312 155.884765625 673 212.084960938 673 c 0
 331.2578125 673 421.084960938 602.674804688 421.084960938 490 c 0
 421.084960938 417.290039062 378.755859375 372.814453125 328.426757812 341.235351562 c 0
 277.470703125 309.262695312 243.588867188 283.715820312 241.088867188 226.216796875 c 0
 239.296875 185 l 1
 190.833007812 185 l 1
216.084960938 86 m 0
 243.452148438 86 262.084960938 69.392578125 262.084960938 45 c 0
 262.084960938 14.658203125 243.452148438 -6 216.084960938 -6 c 0
 188.716796875 -6 170.084960938 14.658203125 170.084960938 45 c 0
 170.084960938 69.392578125 188.716796875 86 216.084960938 86 c 0
EndSplineSet
Layer: 3
SplineSet
190.833007812 185 m 1
 190.24609375 196.723632812 189.084960938 221.516601562 189.084960938 237 c 0
 189.084960938 299.271484375 215.887695312 345.514648438 275.80078125 384.801757812 c 0
 310.581054688 407.307617188 337.084960938 437.995117188 337.084960938 490 c 0
 337.084960938 566.215820312 279.276367188 613 212.084960938 613 c 0
 168.3671875 613 116.42578125 602.685546875 81.14453125 557.97265625 c 1
 31 596.012695312 l 1
 77.5244140625 658.825195312 155.884765625 673 212.084960938 673 c 0
 310.897460938 673 401.084960938 602.883789062 401.084960938 490 c 0
 401.084960938 421.780273438 368.1953125 372.461914062 318.426757812 341.235351562 c 0
 266.79296875 308.836914062 243.162109375 278.043945312 241.088867188 226.216796875 c 0
 239.296875 185 l 1
 190.833007812 185 l 1
216.084960938 86 m 0
 243.452148438 86 262.084960938 69.392578125 262.084960938 45 c 0
 262.084960938 14.658203125 243.452148438 -6 216.084960938 -6 c 0
 188.716796875 -6 170.084960938 14.658203125 170.084960938 45 c 0
 170.084960938 69.392578125 188.716796875 86 216.084960938 86 c 0
EndSplineSet
EndChar

StartChar: w
Encoding: 119 119 44
Width: 690
Flags: W
AnchorPoint: "Bottom" 5 0 basechar 0
AnchorPoint: "Center" 5 0 basechar 0
AnchorPoint: "Top" 365 477 basechar 0
LayerCount: 4
Back
Fore
SplineSet
185.684539078 10 m 1
 35 467 l 1
 84.794921875 467 l 1
 207.592534464 68.8388671875 l 1
 319.738598077 467 l 1
 362.532357838 467 l 1
 475.68860441 68.8388671875 l 1
 597.475585938 467 l 1
 647.279296875 467 l 1
 497.502995687 10 l 1
 454.56929315 10 l 1
 341.085895583 427.46484375 l 1
 228.614534521 10 l 1
 185.684539078 10 l 1
EndSplineSet
Layer: 2
Layer: 3
EndChar

StartChar: v
Encoding: 118 118 45
Width: 467
Flags: W
AnchorPoint: "Bottom" 5 0 basechar 0
AnchorPoint: "Center" 5 0 basechar 0
AnchorPoint: "Top" 253.5 476 basechar 0
LayerCount: 4
Back
Fore
SplineSet
207.944159762 10 m 1
 35 467 l 1
 87.3779296875 467 l 1
 229.279211277 61.412109375 l 1
 370.258789062 467 l 1
 422.620117188 467 l 1
 249.675957425 10 l 1
 207.944159762 10 l 1
EndSplineSet
Layer: 2
Layer: 3
EndChar

StartChar: m
Encoding: 109 109 46
Width: 710
VWidth: 0
Flags: W
HStem: 427 46<172.867 294.08 426.731 553.585>
VStem: 75 50<10 382.232 400.493 467> 335 50<10 382.052> 595 50<10 379.841>
CounterMasks: 1 70
LayerCount: 4
Back
SplineSet
705 0 m 13xe8
 705 298 l 6
 705 438 607 483 540 483 c 4
 453 483 363 438 363 299 c 5xd8
 363 287.408203125 392.408203125 278 404 278 c 5
 415.591796875 278 425 286.408203125 425 298 c 5
 425 392 483 417 530 417 c 4
 577 417 635 391 635 299 c 6
 635 0 l 21
 705 0 l 13xe8
425 0 m 5xe8
 425 298 l 5xe8
 415 298 l 5xd8
 415 438 327 483 260 483 c 4
 179 483 99 418 99 279 c 5
 99 267.408203125 112.408203125 258 124 258 c 4
 135.591796875 258 145 286.408203125 145 298 c 5
 145 392 203 417 250 417 c 4
 297 417 355 391 355 299 c 13
 355 0 l 21
 425 0 l 5xe8
145 477 m 5
 75 477 l 5
 75 0 l 5
 145 0 l 5
 145 477 l 5
EndSplineSet
Fore
SplineSet
75 467 m 1
 125 467 l 1
 125 400.493164062 l 1
 142.665039062 421.578125 l 0
 169.236839658 456.337890625 204.612676711 473 240 473 c 0
 278.141369048 473 322.700009301 454.450195312 351.356445312 402.970703125 c 0
 359.8671875 388.342773438 l 1
 368.575195312 402.85546875 l 0
 399.189453125 453.87890625 449.396065848 473 500 473 c 0
 556.844494048 473 645 437.1796875 645 288 c 0
 645 10 l 1
 595 10 l 1
 595 289 l 0
 595 401.384765625 537.079334077 427 490.952380952 427 c 0
 444.874023438 427 385 402.350585938 385 288 c 0
 385 10 l 1
 335 10 l 1
 335 289 l 0
 335 401.384765625 277.079334077 427 230.952380952 427 c 0
 184.874023438 427 125 402.350585938 125 288 c 0
 125 10 l 1
 75 10 l 1
 75 467 l 1
EndSplineSet
Layer: 2
SplineSet
143 298 m 0
 143 367.729492188 184.834960938 417 243 417 c 0
 301.170898438 417 343.119140625 367.721679688 343.119140625 298 c 0
 343.119140625 231.223632812 301.255859375 184.494140625 243.059570312 184.494140625 c 0
 184.86328125 184.494140625 143 231.223632812 143 298 c 0
EndSplineSet
Layer: 3
SplineSet
155 487 m 1
 75 487 l 1
 75 -10 l 1
 155 -10 l 1
 155 278 l 2
 155 383.556640625 210.856445312 417 255 417 c 0
 299.993164062 417 355 392.000976562 355 299 c 2
 355 -10 l 1
 435 -10 l 1
 435 298 l 2
 435 393.076171875 489.981445312 417 535 417 c 0
 579.993164062 417 635 392.000976562 635 299 c 2
 635 -10 l 1
 715 -10 l 1
 715 298 l 2
 715 444.841796875 614.09375 493 545 493 c 0
 488.1484375 493 429.553710938 473.19140625 394.711914062 420.575195312 c 1
 362.200195312 473.286132812 309.259765625 493 265 493 c 0
 223.909179688 493 184.602539062 471.586914062 155 434.169921875 c 1
 155 487 l 1
EndSplineSet
Substitution2: "'salt' Stylistic Alternatives lookup 0-1" m.alt
EndChar

StartChar: a
Encoding: 97 97 47
Width: 461
VWidth: 0
Flags: W
HStem: 4 45<137.827 282.698> 243 41<151.992 345> 429 44<112.02 296.742>
VStem: 55 48<84.728 203.071> 345 48<10 76.6777 113.641 237.912 277.344 377.715>
AnchorPoint: "Center" -5 0 basechar 0
AnchorPoint: "Bottom" 379 0 basechar 0
AnchorPoint: "Top" 238 476 basechar 0
LayerCount: 4
Back
Fore
SplineSet
87.029296875 444.881835938 m 1
 136.067382812 466.126953125 179.90234375 473 228 473 c 0
 319.245117188 473 393 422.913085938 393 290 c 0
 393 10 l 1
 345 10 l 1
 345 76.677734375 l 1
 327.821289062 58.9619140625 l 0
 296.915039062 27.08984375 261.979492188 4 202 4 c 0
 119.6171875 4 55 59.044921875 55 143 c 0
 55 241.961914062 132.538085938 284 256 284 c 0
 277.690429688 284 308.366210938 282.979492188 333.479492188 279.116210938 c 0
 345 277.34375 l 1
 345 289 l 0
 345 383.947265625 296.751953125 429 228 429 c 0
 185.970703125 429 146.622070312 422.440429688 104.22265625 404.305664062 c 1
 87.029296875 444.881835938 l 1
264 243 m 0
 203.97265625 243 103 235.841796875 103 143 c 0
 103 87.8408203125 145.815429688 49 210 49 c 0
 277.125 49 345 95.9111328125 345 204 c 0
 345 237.912109375 l 1
 336.146484375 238.934570312 l 0
 309.702148438 241.985351562 285.317382812 243 264 243 c 0
EndSplineSet
Layer: 2
SplineSet
55.126953125 143 m 0
 55.126953125 232.221679688 117.880859375 286.145507812 212.645507812 286.145507812 c 0
 300.504882812 286.145507812 365.873046875 232.584960938 365.873046875 143.389648438 c 0
 365.873046875 51.1953125 293.805664062 -6.1455078125 216.065429688 -6.1455078125 c 0
 121.249023438 -6.1455078125 55.126953125 50.7998046875 55.126953125 143 c 0
123 143 m 0
 123 191.817382812 158.290039062 221 213 221 c 0
 264.290039062 221 314 190.930664062 314 143 c 0
 314 91.8564453125 266.116210938 59 215 59 c 0
 160.270507812 59 123 91.185546875 123 143 c 0
EndSplineSet
Layer: 3
SplineSet
25 194 m 2
 25 39.248046875 130.931640625 -16 215 -16 c 0
 266.014648438 -16 312.661132812 -0.1923828125 345 34.9375 c 1
 345 -10 l 1
 425 -10 l 1
 425 677 l 1
 345 677 l 1
 345 442.0625 l 1
 311.711914062 478.223632812 265.680664062 493 215 493 c 0
 130.931640625 493 25 437.755859375 25 283 c 0
 25 194 l 2
345 283 m 2
 345 194 l 0
 345 95.2001953125 284.872070312 60 225 60 c 0
 165.127929688 60 105 95.2001953125 105 194 c 0
 105 283 l 0
 105 381.799804688 165.127929688 417 225 417 c 0
 284.872070312 417 345 381.799804688 345 283 c 2
EndSplineSet
Substitution2: "'salt' Stylistic Alternatives lookup 0-1" a.alt
EndChar

StartChar: s
Encoding: 115 115 48
Width: 397
VWidth: 0
Flags: W
HStem: 4 46<86.209 267.726> 427 46<119.176 295.427>
VStem: 46.5205 47.1436<301.185 401.338> 297.321 47.1426<79.0266 191.348>
AnchorPoint: "Center" -5 0 basechar 0
AnchorPoint: "Bottom" 213 0 basechar 0
AnchorPoint: "Top" 213 477 basechar 0
LayerCount: 4
Back
SplineSet
366.157226562 442.690429688 m 5
 418.713504488 411.049040113 457.795147897 359.459482115 457.999023438 283.341796875 c 2
 458 194.5 l 2
 457.999023438 50.62890625 319.649414062 -6 213 -6 c 4
 158.642094234 -6 96.0490591503 8.71115119278 47.736328125 42.1865234375 c 5
 1.2607421875 74.3896484375 -31.9995211795 123.958248237 -32 194.5 c 2
 -32 282.5 l 2
 -31.9990234375 426.37109375 106.350585938 483 213 483 c 4
 262.907003867 483 319.779296875 470.612304688 366.157226562 442.690429688 c 5
323.466796875 389.166992188 m 5
 289.400598863 408.734114357 247.605036705 417 213 417 c 4
 141.166992188 417 38.248046875 381.44140625 38.0009765625 283.078125 c 2
 38 194.5 l 2
 38.0004484764 149.144684049 59.732421875 117.081054688 90.2060546875 95.6669921875 c 5
 126.087890625 70.4501953125 174.089560465 60 213 60 c 4
 284.833007812 60 387.751953125 95.55859375 387.999023438 193.921875 c 2
 388 282.5 l 2
 387.999493092 333.764683218 360.235351562 368.048828125 323.466796875 389.166992188 c 5
EndSplineSet
Fore
SplineSet
190.778320312 473 m 0
 233.540039062 473 288.831054688 462.326171875 326.970703125 441.985351562 c 1
 305.805664062 400.598632812 l 1
 269.083007812 420.298828125 222.561523438 427 190.778320312 427 c 0
 137.181640625 427 93.6640625 403.915039062 93.6640625 349 c 0
 93.6640625 297.469726562 133.73046875 283.927734375 194.8046875 272.150390625 c 1
 256.6015625 261.05859375 344.463867188 233.265625 344.463867188 137 c 0
 344.463867188 41.1796875 262.346679688 4 190.778320312 4 c 0
 144.25390625 4 82.6435546875 17.8037109375 43 42.484375 c 1
 64.0078125 83.564453125 l 1
 102.435546875 58.4501953125 155.4296875 50 190.778320312 50 c 0
 249.142578125 50 297.321289062 75.203125 297.321289062 137 c 0
 297.321289062 196.37890625 248.53125 215.936523438 186.73828125 227.8515625 c 1
 129.049804688 238.049804688 46.5205078125 259.021484375 46.5205078125 349 c 0
 46.5205078125 439.647460938 125.620117188 473 190.778320312 473 c 0
EndSplineSet
Layer: 2
SplineSet
223 459.984375 m 1
 223 449.984375 l 1
 218 449.984375 l 0
 155.935546875 449.984375 95 421.490234375 95 349 c 0
 95 282.435546875 155.241210938 266.138671875 218.87890625 254.923828125 c 0
 284.161132812 243.419921875 361 219.30078125 361 137 c 0
 361 50.3671875 288.008789062 16.9892578125 218.099609375 16.9892578125 c 0
 213.099609375 16.9892578125 l 1
 213.099609375 26.9892578125 l 1
 218.099609375 26.9892578125 l 0
 285.991210938 26.9892578125 351 58.453125 351 137 c 0
 351 210.69921875 282.95703125 233.477539062 217.143554688 245.076171875 c 0
 154.723632812 256.076171875 85 273.564453125 85 349 c 0
 85 429.736328125 154.064453125 459.984375 218 459.984375 c 0
 223 459.984375 l 1
EndSplineSet
Layer: 3
SplineSet
41.806640625 29.0595703125 m 1
 33.974609375 35.2783203125 l 1
 41.763671875 44.958984375 l 1
 -1.544921875 77.34375 -32 126.154296875 -32 194.5 c 2
 -32 282.5 l 2
 -31.9990234375 425.758789062 102.3828125 483 208 483 c 0
 255.592773438 483 309.044921875 471.473632812 353.403320312 445.805664062 c 1
 360.193359375 453.924804688 l 1
 368.025390625 447.706054688 l 1
 362.063476562 440.517578125 l 1
 411.592773438 408.552734375 447.805664062 357.49609375 447.999023438 283.341796875 c 2
 448 194.5 l 2
 447.999023438 51.2412109375 313.6171875 -6 208 -6 c 0
 155.794921875 -6 96.5615234375 7.8896484375 50.0029296875 39.1220703125 c 1
 41.806640625 29.0595703125 l 1
208 427 m 0
 135.500976562 427 28.259765625 389.690429688 28.0009765625 283.078125 c 2
 28 194.5 l 2
 28 147.361328125 48.6787109375 113.655273438 78.0234375 90.6708984375 c 1
 317.053710938 400.08203125 l 1
 282.649414062 419.069335938 241.60546875 427 208 427 c 0
325.810546875 394.883789062 m 1
 86.216796875 84.72265625 l 1
 122.829101562 60.08203125 170.135742188 50 208 50 c 0
 280.499023438 50 387.740234375 87.3095703125 387.999023438 193.921875 c 2
 388 282.5 l 2
 388 335.887695312 361.442382812 372.034179688 325.810546875 394.883789062 c 1
EndSplineSet
Substitution2: "'salt' Stylistic Alternatives lookup 0-1" s.alt
EndChar

StartChar: d
Encoding: 100 100 49
Width: 480
VWidth: 0
Flags: W
HStem: 14 36<165.984 294.045> 427 56<159.941 300.092> 647 20G<355 405>
VStem: 55 50<111.615 365.224> 355 50<20 91.0654 109.365 367.635 405.935 667>
AnchorPoint: "Apos" 508 667 basechar 0
AnchorPoint: "Bottom" 240 0 basechar 0
LayerCount: 4
Back
Fore
SplineSet
221.538461538 14 m 0
 152.126953125 14 55 56.8251953125 55 214 c 2
 55 283 l 0
 55 440.174804688 152.126953125 483 221.538461538 483 c 0
 265.542593149 483 307.522460938 466.764648438 337.1171875 428.84765625 c 0
 355 405.934570312 l 1
 355 667 l 1
 405 667 l 1
 405 20 l 1
 355 20 l 1
 355 91.0654296875 l 1
 337.1171875 68.15234375 l 0
 307.512695312 30.22265625 265.55085637 14 221.538461538 14 c 0
355 204 m 0
 355 273 l 2
 355 391.331054688 286.240234375 427 230 427 c 0
 173.759765625 427 105 391.331054688 105 273 c 0
 105 204 l 0
 105 85.6689453125 173.759765625 50 230 50 c 0
 286.240234375 50 355 85.6689453125 355 204 c 0
EndSplineSet
Layer: 2
Layer: 3
Substitution2: "'salt' Stylistic Alternatives lookup 0-1" d.alt
EndChar

StartChar: bracketright
Encoding: 93 93 50
Width: 249
VWidth: 0
Flags: W
HStem: -190 37<30 124> 760 37<30 124>
VStem: 30 134<-190 -153 760 797> 124 40<-153 760>
LayerCount: 4
Back
Fore
SplineSet
30 797 m 1xe0
 164 797 l 1
 164 -190 l 1
 30 -190 l 1
 30 -153 l 1xe0
 124 -153 l 1
 124 760 l 1xd0
 30 760 l 1
 30 797 l 1xe0
EndSplineSet
Layer: 2
Layer: 3
EndChar

StartChar: l
Encoding: 108 108 51
Width: 200
VWidth: 0
Flags: W
HStem: 647 20G<75 125>
VStem: 75 50<20 667>
AnchorPoint: "Center" 146 334 basechar 0
AnchorPoint: "Apos" 209 667 basechar 0
AnchorPoint: "Bottom" 114 0 basechar 0
AnchorPoint: "Top" 110 667 basechar 0
LayerCount: 4
Back
Fore
SplineSet
75 20 m 1
 75 667 l 1
 125 667 l 1
 125 20 l 1
 75 20 l 1
EndSplineSet
Layer: 2
Layer: 3
EndChar

StartChar: i
Encoding: 105 105 52
Width: 212
VWidth: 0
Flags: W
HStem: 570 74<71.7187 140.295>
VStem: 69 74<572.947 641.053> 81 50<10 467>
LayerCount: 4
Back
Fore
SplineSet
81 10 m 1xa0
 81 467 l 1
 131 467 l 1
 131 10 l 1
 81 10 l 1xa0
69 607 m 0xc0
 69 629.694335938 84.3330078125 644 105 644 c 0
 127.987304688 644 143 629.500976562 143 607 c 0
 143 584.499023438 127.987304688 570 105 570 c 0
 84.3330078125 570 69 584.306640625 69 607 c 0xc0
EndSplineSet
Layer: 2
Layer: 3
EndChar

StartChar: o
Encoding: 111 111 53
Width: 460
VWidth: 0
Flags: W
HStem: 4 46<159.387 301.769> 427 46<159.387 301.77>
VStem: 55 50<107.277 369.723> 355 50<107.277 369.723>
AnchorPoint: "Center" 5 0 basechar 0
AnchorPoint: "Bottom" 250 0 basechar 0
AnchorPoint: "Top" 250 477 basechar 0
LayerCount: 4
Back
SplineSet
445 204 m 22
 445 47 347 -6 250 -6 c 1
 153 -6 55 47 55 204 c 14
 55 273 l 18
 55 430 153 483 250 483 c 1
 347 483 445 430 445 273 c 10
 445 204 l 22
125 204 m 22
 125 95 188 60 250 60 c 1
 312 60 375 95 375 204 c 14
 375 273 l 18
 375 382 312 417 250 417 c 1
 188 417 125 382 125 273 c 10
 125 204 l 22
EndSplineSet
Fore
SplineSet
405 273 m 0
 405 204 l 2
 405 48.8046875 316.4390625 4 230.8 4 c 0
 145.160039063 4 55 48.8056640625 55 204 c 0
 55 273 l 0
 55 428.1953125 145.1609375 473 230.8 473 c 0
 316.439960938 473 405 428.194335938 405 273 c 0
105 273 m 0
 105 204 l 2
 105 85.6689453125 169.858984375 50 230.8 50 c 0
 291.741015625 50 355 85.6689453125 355 204 c 0
 355 273 l 0
 355 391.331054688 291.741015625 427 230.8 427 c 0
 169.858984375 427 105 391.331054688 105 273 c 0
EndSplineSet
Layer: 2
Layer: 3
EndChar

StartChar: c
Encoding: 99 99 54
Width: 406
VWidth: 0
Flags: W
HStem: 4 46<169.387 313.63> 427 46<169.387 321.173>
VStem: 65 50<107.277 369.723>
AnchorPoint: "Center" 15 0 basechar 0
AnchorPoint: "Bottom" 260 0 basechar 0
AnchorPoint: "Top" 260 476 basechar 0
LayerCount: 4
Back
SplineSet
455 194 m 18
 455 48 357 -6 260 -6 c 5
 163 -6 65 48 65 194 c 14
 65 283 l 22
 65 429 163 483 260 483 c 5
 357 483 455 429 455 283 c 10
 455 194 l 18
135 194 m 22
 135 96 198 60 260 60 c 5
 322 60 385 96 385 194 c 10
 385 283 l 18
 385 381 322 417 260 417 c 5
 198 417 135 381 135 283 c 14
 135 194 l 22
EndSplineSet
Fore
SplineSet
115 204 m 0
 115 85.6689453125 179.858984375 50 240.8 50 c 0
 275.029570313 50 305.38328125 63.083984375 329.331132812 82.7802734375 c 1
 351.26828125 41.40234375 l 1
 323.437382813 18.08984375 287.962578125 4 240.8 4 c 0
 155.160039063 4 65 48.8056640625 65 204 c 0
 65 273 l 0
 65 428.1953125 155.1609375 473 240.8 473 c 0
 287.98234375 473 320.014335937 458.130859375 341.734960937 442.969726562 c 1
 319.677421875 401.364257812 l 1
 299.6584375 415.478515625 276.182265625 427 240.8 427 c 0
 179.858984375 427 115 391.331054688 115 273 c 0
 115 204 l 0
EndSplineSet
Layer: 2
Layer: 3
Substitution2: "'salt' Stylistic Alternatives lookup 0-1" c.alt
EndChar

StartChar: b
Encoding: 98 98 55
Width: 480
VWidth: 0
Flags: W
HStem: 14 36<184.432 316.442> 427 56<178.418 322.432> 647 20G<75 125>
VStem: 75 50<20 91.0654 106.271 370.729 405.935 667> 375 50<106.928 370.479>
LayerCount: 4
Back
SplineSet
465 194 m 22
 465 48 367 -6 270 -6 c 5
 173 -6 75 48 75 194 c 14
 75 283 l 22
 75 429 173 483 270 483 c 5
 367 483 465 429 465 283 c 14
 465 194 l 22
145 194 m 22
 145 96 208 60 270 60 c 5
 332 60 395 96 395 194 c 14
 395 283 l 22
 395 381 332 417 270 417 c 5
 208 417 145 381 145 283 c 14
 145 194 l 22
EndSplineSet
Fore
SplineSet
425 283 m 0
 425 214 l 2
 425 56.8251953125 331.643203125 14 260 14 c 0
 212.155507812 14 170.279335938 30.2353515625 142.8828125 68.15234375 c 0
 125 91.0654296875 l 1
 125 20 l 1
 75 20 l 1
 75 667 l 1
 125 667 l 1
 125 405.934570312 l 1
 142.8828125 428.84765625 l 0
 170.288320312 466.77734375 212.146523437 483 260 483 c 0
 331.643203125 483 425 440.174804688 425 283 c 0
250.8 427 m 0
 189.858984375 427 125 391.331054688 125 273 c 2
 125 204 l 0
 125 85.6689453125 189.858984375 50 250.8 50 c 0
 311.741015625 50 375 85.6689453125 375 204 c 0
 375 273 l 0
 375 391.331054688 311.741015625 427 250.8 427 c 0
EndSplineSet
Layer: 2
SplineSet
455 194 m 2
 455 45.3515625 354.931640625 -6 275 -6 c 0
 216.63671875 -6 165.553710938 14.2548828125 135 64.6875 c 1
 135 0 l 1
 75 0 l 1
 75 667 l 1
 135 667 l 1
 135 412.3125 l 1
 165.5546875 462.74609375 216.638671875 483 275 483 c 0
 354.931640625 483 455 431.64453125 455 283 c 2
 455 194 l 2
135 283 m 2
 135 194 l 2
 135 89.484375 200.872070312 50 265 50 c 0
 329.127929688 50 395 89.4833984375 395 194 c 2
 395 283 l 2
 395 387.515625 329.127929688 427 265 427 c 0
 200.872070312 427 135 387.516601562 135 283 c 2
EndSplineSet
Layer: 3
Substitution2: "'salt' Stylistic Alternatives lookup 0-1" b.alt
EndChar

StartChar: h
Encoding: 104 104 56
Width: 478
VWidth: 0
Flags: W
HStem: 437 46<177.426 311.957> 647 20G<75 125>
VStem: 75 50<20 380.518 409.349 667> 365 50<20 380.518>
AnchorPoint: "Center" 0 0 basechar 0
AnchorPoint: "Bottom" 265 0 basechar 0
AnchorPoint: "Top" 110.5 667 basechar 0
LayerCount: 4
Back
Fore
SplineSet
125 283 m 0
 125 20 l 1
 75 20 l 1
 75 667 l 1
 125 667 l 1
 125 409.348632812 l 1
 142.828125 431.77734375 l 0
 171.458984375 467.796875 210.776367188 483 253.333333333 483 c 0
 322.631835938 483 415 440.484375 415 283 c 0
 415 20 l 1
 365 20 l 1
 365 283 l 0
 365 400.853515625 301.595703125 437 245 437 c 0
 188.404296875 437 125 400.853515625 125 283 c 0
EndSplineSet
Layer: 2
Layer: 3
Substitution2: "'salt' Stylistic Alternatives lookup 0-1" h.alt
EndChar

StartChar: e
Encoding: 101 101 57
Width: 456
VWidth: 0
Flags: W
HStem: 4 44<165.743 329.908> 228 44<106 350> 429 44<159.869 297.835>
VStem: 58 48<113.514 228 272 368.934> 350 48<272 370.92>
AnchorPoint: "Center" 8 0 basechar 0
AnchorPoint: "Bottom" 260 0 basechar 0
AnchorPoint: "Top" 248 477 basechar 0
LayerCount: 4
Back
SplineSet
260 -6 m 4xf4
 151.26 -6 58 55 58 214 c 14
 58 273 l 22xf4
 58 434 156 483 248 483 c 5
 340 483 438 434 438 272 c 13
 438 218 l 5
 98 218 l 5
 98 282 l 5xec
 370 282 l 5
 370 386 306 419 248 419 c 5
 190 419 126 387 126 273 c 14
 126 214 l 22
 126 102 185.263671875 58 260 58 c 5
 298.91015625 58 344.6484375 68.4501953125 382.530273438 95.6669921875 c 5
 415 39.1865234375 l 5
 369.6875 8.7109375 314.360351297 -6 260 -6 c 4xf4
EndSplineSet
Fore
SplineSet
63.248046875 153.856445312 m 0
 58.1005859375 181.098632812 58 210.375 58 243 c 0
 58 274.969726562 58.2197265625 305.952148438 63.2568359375 332.109375 c 0
 83.89453125 439.283203125 158.946080943 473 228.819672131 473 c 0
 294.580046107 473 362.62890625 443.024414062 388.3359375 350.327148438 c 0
 397.791015625 316.236328125 398 284.01171875 398 248 c 0
 398 243.158203125 397.638671875 232.81640625 397.44140625 228 c 1
 106 228 l 1
 106 214 l 0
 106 97.4287109375 166.223104508 48 239.836065574 48 c 0
 274.450563525 48 314.654841189 57.1162109375 349.680840164 81.5361328125 c 1
 371.653320312 42.345703125 l 1
 331.463627049 16.83984375 284.903944672 4 239.836065574 4 c 0
 157.148565574 4 83.634765625 45.9609375 63.248046875 153.856445312 c 0
106.00390625 282.280273438 m 0
 105.715820312 272 l 1
 350 272 l 1
 350 282 l 0
 350 391.626953125 286.003970287 429 228.819672131 429 c 0
 173.519851434 429 109.153320312 394.616210938 106.00390625 282.280273438 c 0
EndSplineSet
Layer: 2
Layer: 3
Substitution2: "'salt' Stylistic Alternatives lookup 0-1" e.alt
EndChar

StartChar: n
Encoding: 110 110 58
Width: 478
VWidth: 0
Flags: W
HStem: 427 46<175.965 314.268>
VStem: 75 50<10 370.518 399.349 467> 365 50<10 370.689>
AnchorPoint: "Apos" 75 667 basechar 0
AnchorPoint: "Bottom" 262 0 basechar 0
AnchorPoint: "Top" 275 477 basechar 0
LayerCount: 4
Back
SplineSet
145 0 m 5
 75 0 l 5
 75 477 l 5
 145 477 l 5
 145 0 l 5
105 283 m 21
 105 429 178 483 275 483 c 5
 357 483 455 431 455 283 c 14
 455 0 l 21
 385 0 l 13
 385 283 l 22
 385 381 327 417 265 417 c 5
 203 417 145 381 145 283 c 13
 105 283 l 21
EndSplineSet
Fore
SplineSet
75 10 m 1
 75 467 l 1
 125 467 l 1
 125 399.348632812 l 1
 142.828125 421.77734375 l 0
 169.25406901 457.796875 208.18733724 473 255 473 c 0
 326.162516276 473 415 430.484375 415 273 c 0
 415 10 l 1
 365 10 l 1
 365 273 l 0
 365 390.853515625 306.879394531 427 245.833333333 427 c 0
 184.787272135 427 125 390.853515625 125 273 c 0
 125 10 l 1
 75 10 l 1
EndSplineSet
Layer: 2
Layer: 3
Substitution2: "'salt' Stylistic Alternatives lookup 0-1" n.alt
EndChar

StartChar: g
Encoding: 103 103 59
Width: 480
VWidth: 0
Flags: W
HStem: -190 46<126.158 292.458> -6 56<159.941 300.091> 427 36<165.984 294.046>
VStem: 55 50<111.776 365.385> 355 50<-81.671 71.0654 109.365 367.635 385.935 457>
AnchorPoint: "Bottom" 239 -185 basechar 0
AnchorPoint: "Top" 240 476 basechar 0
LayerCount: 4
Back
Fore
SplineSet
355 71.0654296875 m 1
 337.1171875 48.15234375 l 2
 307.512695312 10.22265625 265.55085637 -6 221.538461538 -6 c 0
 152.126953125 -6 55 36.8251953125 55 194 c 0
 55 263 l 0
 55 420.174804688 152.126953125 463 221.538461538 463 c 0
 265.542593149 463 307.522460938 446.764648438 337.1171875 408.84765625 c 0
 355 385.934570312 l 1
 355 457 l 1
 405 457 l 1
 405 -10 l 0
 405 -105.329101562 328.879882812 -190 220.692307692 -190 c 0
 178.972956731 -190 124.48828125 -176.8125 82.2412109375 -151.561523438 c 1
 104.505859375 -110.510742188 l 1
 144.465820312 -135.721679688 188.892953726 -144 220.692307692 -144 c 0
 296.95703125 -144 355 -82.7548828125 355 -10 c 0
 355 71.0654296875 l 1
355 204 m 0
 355 273 l 2
 355 391.331054688 286.240234375 427 230 427 c 0
 173.759765625 427 105 391.331054688 105 273 c 0
 105 204 l 0
 105 85.6689453125 173.759765625 50 230 50 c 0
 286.240234375 50 355 85.6689453125 355 204 c 0
EndSplineSet
Layer: 2
Layer: 3
Substitution2: "'salt' Stylistic Alternatives lookup 0-1" g.alt
EndChar

StartChar: f
Encoding: 102 102 60
Width: 350
VWidth: 0
Flags: W
HStem: 436 41<45 125 175 285> 625 42<192.558 305>
VStem: 125 50<20 436 477 608.903>
LayerCount: 4
Back
Fore
SplineSet
45 436 m 1
 45 477 l 1
 125 477 l 1
 125 547 l 0
 125 630.377929688 180.827148438 667 235 667 c 0
 305 667 l 1
 305 625 l 1
 235 625 l 0
 203.524414062 625 175 598.755859375 175 547 c 0
 175 477 l 1
 285 477 l 1
 285 436 l 1
 175 436 l 1
 175 20 l 1
 125 20 l 1
 125 436 l 1
 45 436 l 1
EndSplineSet
Layer: 2
Layer: 3
Substitution2: "'salt' Stylistic Alternatives lookup 0-1" f.alt
EndChar

StartChar: j
Encoding: 106 106 61
Width: 211
VWidth: 0
Flags: W
HStem: -185 42<0 62.4419> 570 74<70.7115 139.423>
VStem: 68 74<572.933 641.068> 80 50<-127.161 457>
LayerCount: 4
Back
Fore
SplineSet
130 457 m 1xd0
 130 -65 l 2
 130 -148.377929688 74.1728515625 -185 20 -185 c 0
 0 -185 l 1
 0 -143 l 1
 20 -143 l 0
 51.30859375 -143 80 -117.806640625 80 -65 c 0
 80 457 l 1
 130 457 l 1xd0
68 607 m 0xe0
 68 629.596679688 83.1708984375 644 105 644 c 0
 127.788085938 644 142 629.788085938 142 607 c 0
 142 584.211914062 127.788085938 570 105 570 c 0
 83.1708984375 570 68 584.404296875 68 607 c 0xe0
EndSplineSet
Layer: 2
Layer: 3
EndChar

StartChar: r
Encoding: 114 114 62
Width: 358
VWidth: 0
Flags: W
HStem: 427 46<179.135 305.43>
VStem: 75 50<10 370.518 399.349 467>
AnchorPoint: "Center" 0 0 basechar 0
AnchorPoint: "Bottom" 109 0 basechar 0
AnchorPoint: "Top" 210 477 basechar 0
LayerCount: 4
Back
SplineSet
145 0 m 5
 75 0 l 5
 75 477 l 5
 145 477 l 5
 145 0 l 5
323.279296875 413.912109375 m 5
 305.595703125 416.342773438 285.516735081 417 265 417 c 5
 203 417 145 381 145 283 c 13
 105 283 l 21
 105 429 178 483 275 483 c 5
 293.935335464 483 313.723846249 481.826883932 332.961806483 478.200059771 c 5
 323.279296875 413.912109375 l 5
EndSplineSet
Fore
SplineSet
75 10 m 1
 75 467 l 1
 125 467 l 1
 125 399.348632812 l 1
 142.828125 421.77734375 l 0
 171.458984375 457.796875 213.931640625 473 265 473 c 0
 279.991210938 473 297.642578125 471.396484375 311.604492188 469 c 1
 304.609375 424.927734375 l 1
 287.969726562 426.419921875 272.747070312 427 255 427 c 0
 188.404296875 427 125 390.853515625 125 273 c 0
 125 10 l 1
 75 10 l 1
EndSplineSet
Layer: 2
Layer: 3
Substitution2: "'salt' Stylistic Alternatives lookup 0-1" r.alt
EndChar

StartChar: p
Encoding: 112 112 63
Width: 480
VWidth: 0
Flags: W
HStem: -6 56<179.908 320.059> 427 36<185.955 314.016>
VStem: 75 50<-190 71.0654 109.365 367.635 385.935 457> 375 50<111.776 365.385>
LayerCount: 4
Back
Fore
SplineSet
142.8828125 48.15234375 m 0
 125 71.0654296875 l 1
 125 -190 l 1
 75 -190 l 1
 75 457 l 1
 125 457 l 1
 125 385.934570312 l 1
 142.8828125 408.84765625 l 0
 172.487304688 446.77734375 214.44914363 463 258.461538462 463 c 0
 327.873046875 463 425 420.174804688 425 263 c 0
 425 194 l 0
 425 36.8251953125 327.873046875 -6 258.461538462 -6 c 0
 214.457406851 -6 172.477539062 10.2353515625 142.8828125 48.15234375 c 0
250 427 m 0
 193.759765625 427 125 391.331054688 125 273 c 2
 125 204 l 0
 125 85.6689453125 193.759765625 50 250 50 c 0
 306.240234375 50 375 85.6689453125 375 204 c 0
 375 273 l 0
 375 391.331054688 306.240234375 427 250 427 c 0
EndSplineSet
Layer: 2
Layer: 3
Substitution2: "'salt' Stylistic Alternatives lookup 0-1" p.alt
EndChar

StartChar: q
Encoding: 113 113 64
Width: 480
VWidth: 0
Flags: W
HStem: -6 56<159.941 300.091> 427 36<165.984 294.046>
VStem: 55 50<111.776 365.385> 355 50<-190 71.0654 109.365 367.635 385.935 457>
LayerCount: 4
Back
Fore
SplineSet
355 71.0654296875 m 1
 337.1171875 48.15234375 l 2
 307.512695312 10.22265625 265.55085637 -6 221.538461538 -6 c 0
 152.126953125 -6 55 36.8251953125 55 194 c 0
 55 263 l 0
 55 420.174804688 152.126953125 463 221.538461538 463 c 0
 265.542593149 463 307.522460938 446.764648438 337.1171875 408.84765625 c 0
 355 385.934570312 l 1
 355 457 l 1
 405 457 l 1
 405 -190 l 1
 355 -190 l 1
 355 71.0654296875 l 1
355 204 m 0
 355 273 l 2
 355 391.331054688 286.240234375 427 230 427 c 0
 173.759765625 427 105 391.331054688 105 273 c 0
 105 204 l 0
 105 85.6689453125 173.759765625 50 230 50 c 0
 286.240234375 50 355 85.6689453125 355 204 c 0
EndSplineSet
Layer: 2
Layer: 3
Substitution2: "'salt' Stylistic Alternatives lookup 0-1" q.alt
EndChar

StartChar: t
Encoding: 116 116 65
Width: 350
VWidth: 0
Flags: W
HStem: 20 46<192.558 305> 435 42<45 125 175 285>
VStem: 125 50<83.2672 435 477 581>
AnchorPoint: "Apos" 306 667 basechar 0
AnchorPoint: "Top" 15 0 basechar 0
AnchorPoint: "Center" 15 0 basechar 0
AnchorPoint: "Bottom" 234 0 basechar 0
LayerCount: 4
Back
Fore
SplineSet
45 435 m 1
 45 477 l 1
 125 477 l 1
 125 581 l 1
 175 581 l 1
 175 477 l 1
 285 477 l 1
 285 435 l 1
 175 435 l 1
 175 140 l 0
 175 90.763671875 203.979492188 66 235 66 c 0
 305 66 l 1
 305 20 l 1
 235 20 l 0
 180.826171875 20 125 56.626953125 125 140 c 0
 125 435 l 1
 45 435 l 1
EndSplineSet
Layer: 2
Layer: 3
Substitution2: "'salt' Stylistic Alternatives lookup 0-1" t.alt
EndChar

StartChar: u
Encoding: 117 117 66
Width: 470
VWidth: 0
Flags: W
HStem: 4 46<168.035 301.965>
VStem: 65 50<109.493 467> 355 50<109.493 467>
AnchorPoint: "Center" 0 0 basechar 0
AnchorPoint: "Bottom" 255 0 basechar 0
AnchorPoint: "Top" 255 476 basechar 0
LayerCount: 4
Back
Fore
SplineSet
235 50 m 0
 288.553710938 50 355 85.9560546875 355 204 c 2
 355 467 l 1
 405 467 l 1
 405 204 l 0
 405 48.6220703125 314.884765625 4 235 4 c 0
 155.114257812 4 65 48.623046875 65 204 c 0
 65 467 l 1
 115 467 l 1
 115 204 l 0
 115 85.9560546875 181.446289062 50 235 50 c 0
EndSplineSet
Layer: 2
Layer: 3
EndChar

StartChar: backslash
Encoding: 92 92 67
Width: 302
VWidth: 0
Flags: W
VStem: 10 276.162
LayerCount: 4
Back
Fore
SplineSet
10 797 m 1
 51.3408203125 797 l 1
 286.162109375 -130 l 1
 244.822265625 -130 l 1
 10 797 l 1
EndSplineSet
Layer: 2
Layer: 3
EndChar

StartChar: k
Encoding: 107 107 68
Width: 429
VWidth: 0
Flags: W
HStem: 647 20G<75 125>
VStem: 75 50<20 150.321 208.032 667>
AnchorPoint: "Top" 2 0 basechar 0
AnchorPoint: "Center" 2 0 basechar 0
AnchorPoint: "Bottom" 239 0 basechar 0
LayerCount: 4
Back
Fore
SplineSet
75 20 m 1
 75 667 l 1
 125 667 l 1
 125 208.032226562 l 1
 306.99609375 477 l 1
 363.685546875 477 l 1
 220.113030166 270.280273438 l 1
 379.79296875 20 l 1
 323.234375 20 l 1
 191.299804688 239.116210938 l 1
 125 150.321289062 l 1
 125 20 l 1
 75 20 l 1
EndSplineSet
Layer: 2
Layer: 3
Substitution2: "'salt' Stylistic Alternatives lookup 0-1" k.alt
EndChar

StartChar: x
Encoding: 120 120 69
Width: 414
VWidth: 0
Flags: W
VStem: 40 318.473
LayerCount: 4
Back
Fore
SplineSet
175.092811053 237.989257812 m 1
 40 467 l 1
 95.4033203125 467 l 1
 199.173292253 265.82421875 l 1
 305.017578125 467 l 1
 358.47265625 467 l 1
 223.379845197 237.989257812 l 1
 358.434570312 10 l 1
 303.0703125 10 l 1
 199.300142217 211.17578125 l 1
 93.4560546875 10 l 1
 40.0390625 10 l 1
 175.092811053 237.989257812 l 1
EndSplineSet
Layer: 2
Layer: 3
EndChar

StartChar: y
Encoding: 121 121 70
Width: 490
VWidth: 0
Flags: W
AnchorPoint: "Bottom" 5 0 basechar 0
AnchorPoint: "Center" 5 0 basechar 0
AnchorPoint: "Top" 265 476 basechar 0
LayerCount: 4
Back
Fore
SplineSet
35 477 m 1
 87.357421875 477 l 1
 240.166015625 50.0517578125 l 1
 392.974609375 477 l 1
 445.330078125 477 l 1
 198.174724414 -185 l 1
 149.847113903 -185 l 1
 215.555835785 -3.7294921875 l 1
 35 477 l 1
EndSplineSet
Layer: 2
Layer: 3
EndChar

StartChar: z
Encoding: 122 122 71
Width: 410
VWidth: 0
Flags: W
HStem: 10 46<112.601 355> 421 46<55 297.399>
VStem: 55 300<10 47.043 429.957 467>
AnchorPoint: "Center" 10 0 basechar 0
AnchorPoint: "Bottom" 217 0 basechar 0
AnchorPoint: "Top" 215 476 basechar 0
LayerCount: 4
Back
Fore
SplineSet
55 421 m 1
 55 467 l 1
 355 467 l 1
 355 429.95703125 l 1
 112.600585938 56 l 1
 355 56 l 1
 355 10 l 1
 55 10 l 1
 55 47.04296875 l 1
 297.399414062 421 l 1
 55 421 l 1
EndSplineSet
Layer: 2
Layer: 3
EndChar

StartChar: bracketleft
Encoding: 91 91 72
Width: 249
VWidth: 0
Flags: W
HStem: -190 37<125 219> 760 37<125 219>
VStem: 85 134<-190 -153 760 797> 85 40<-153 760>
LayerCount: 4
Back
Fore
SplineSet
85 -190 m 1xe0
 85 797 l 1
 219 797 l 1
 219 760 l 1xe0
 125 760 l 1
 125 -153 l 1xd0
 219 -153 l 1
 219 -190 l 1
 85 -190 l 1xe0
EndSplineSet
Layer: 2
Layer: 3
EndChar

StartChar: slash
Encoding: 47 47 73
Width: 302
VWidth: 0
Flags: W
VStem: 10 276.162
LayerCount: 4
Back
Fore
SplineSet
244.822265625 797 m 1
 286.162109375 797 l 1
 51.3408203125 -130 l 1
 10 -130 l 1
 244.822265625 797 l 1
EndSplineSet
Layer: 2
Layer: 3
EndChar

StartChar: copyright
Encoding: 169 169 74
Width: 600
VWidth: 0
Flags: W
HStem: 4 40<201.535 398.465> 134 41<243.927 363.191> 492 41<243.928 362.667> 623 40<201.537 398.463>
VStem: 65 44<131.39 536.074> 181 39.88<200.099 466.901> 491 44<131.39 536.074>
LayerCount: 4
Back
Fore
SplineSet
491 446 m 0
 491 569.654296875 404.062421875 623 300 623 c 0
 195.937578125 623 109 569.655273438 109 446 c 0
 109 222 l 0
 109 97.3896484375 195.909726562 44 300 44 c 0
 404.090273438 44 491 97.3896484375 491 222 c 0
 491 446 l 0
65 446 m 0
 65 604.44921875 166.006835938 663 300 663 c 0
 433.993164062 663 535 604.44921875 535 446 c 0
 535 222 l 0
 535 62.5185546875 433.970703125 4 300 4 c 0
 166.029296875 4 65 62.5185546875 65 222 c 0
 65 446 l 0
181 403 m 0
 181 499 236.421171875 533 299.08 533 c 0
 319.98484375 533 361.928398437 532.201171875 396.269375 489.774414062 c 1
 367.887734375 466.801757812 l 1
 345.936210937 492.720703125 316.373125 492 299.08 492 c 0
 259.899140625 492 220.88 470.849609375 220.88 403 c 0
 220.88 264 l 0
 220.88 196.161132812 259.895546875 175 299.08 175 c 0
 318.753984375 175 346.44921875 177.643554688 374.033945313 203.72265625 c 1
 400.259335937 180.51953125 l 1
 362.541132812 133.181640625 320.802421875 134 299.08 134 c 0
 236.421171875 134 181 168 181 264 c 0
 181 403 l 0
EndSplineSet
Layer: 2
Layer: 3
EndChar

StartChar: registered
Encoding: 168 174 75
Width: 600
VWidth: 0
Flags: W
HStem: 4 40<201.535 398.465> 287 38<240.2 313.274> 491 38<240.2 354.775> 623 40<201.537 398.463>
VStem: 65 44<131.39 536.074> 202.48 37.72<138 287 325 491> 379.12 33.12<353.995 464.032> 491 44<131.39 536.074>
LayerCount: 4
Back
Fore
SplineSet
308.28 491 m 0
 240.2 491 l 1
 240.2 325 l 1
 308.28 325 l 0
 342.175351562 325 379.12 351.486328125 379.12 410 c 0
 379.12 465.836914062 342.72609375 491 308.28 491 c 0
202.48 138 m 1
 202.48 529 l 1
 308.28 529 l 0
 363.8034375 529 412.24 492.407226562 412.24 410 c 0
 412.24 353.11328125 388.035195313 314.12890625 356.78125 298.037109375 c 0
 348.604570312 293.827148438 l 1
 413.607421875 138 l 1
 375.834414063 138 l 1
 313.274414062 287 l 1
 240.2 287 l 1
 240.2 138 l 1
 202.48 138 l 1
65 446 m 0
 65 604.44921875 166.006835938 663 300 663 c 0
 433.993164062 663 535 604.44921875 535 446 c 0
 535 222 l 0
 535 62.5185546875 433.970703125 4 300 4 c 0
 166.029296875 4 65 62.5185546875 65 222 c 0
 65 446 l 0
491 446 m 0
 491 569.654296875 404.062421875 623 300 623 c 0
 195.937578125 623 109 569.655273438 109 446 c 0
 109 222 l 0
 109 97.3896484375 195.909726562 44 300 44 c 0
 404.090273438 44 491 97.3896484375 491 222 c 0
 491 446 l 0
EndSplineSet
Layer: 2
Layer: 3
EndChar

StartChar: braceleft
Encoding: 123 123 76
Width: 304
VWidth: 0
Flags: W
HStem: -191 36<210.072 264> 296.015 31.0215<60 102.87> 761 36<210.074 264>
VStem: 140 42<-129.878 262.802 354.347 736.266>
LayerCount: 4
Back
SplineSet
284 -74 m 5
 270 -74 l 6
 220 -74 202 -44 202 20 c 6
 202 213 l 6
 202 322 123 368 64 368 c 6
 60 368 l 5
 60 318 l 5
 64 318 l 6
 109 318 140 287 140 223 c 6
 140 20 l 6
 140 -89 191 -130 270 -130 c 6
 284 -130 l 5
 284 -74 l 5
284 797 m 5
 270 797 l 6
 191 797 140 756 140 647 c 6
 140 453 l 6
 140 389 109 368 64 368 c 6
 60 368 l 5
 60 318 l 5
 64 318 l 6
 123 318 202 354 202 463 c 6
 202 647 l 6
 202 711 220 741 270 741 c 6
 284 741 l 5
 284 797 l 5
EndSplineSet
Fore
SplineSet
260 797 m 0
 264 797 l 1
 264 761 l 1
 260 761 l 0
 202.880859375 761 182 721.731445312 182 654.374023438 c 0
 182 434.969726562 l 0
 182 374.529296875 157.837890625 339.1875 127.453125 318.419921875 c 0
 115.5078125 310.254882812 l 1
 127.118164062 301.59765625 l 0
 157.551757812 278.905273438 182 239.198242188 182 178.65625 c 0
 182 -51 l 0
 182 -116.6875 202.732421875 -155 260 -155 c 0
 264 -155 l 1
 264 -191 l 1
 260 -191 l 0
 186.096679688 -191 140 -155.728515625 140 -51 c 0
 140 188.65234375 l 0
 140 255.52734375 107.616210938 293.024414062 60 296.014648438 c 1
 60 327.036132812 l 1
 107.305664062 329.174804688 140 357.252929688 140 424.208007812 c 0
 140 653.618164062 l 0
 140 760.880859375 186.1015625 797 260 797 c 0
EndSplineSet
Layer: 2
Layer: 3
EndChar

StartChar: bar
Encoding: 124 124 77
Width: 212
VWidth: 0
Flags: W
VStem: 85 42<-185 797>
LayerCount: 4
Back
Fore
SplineSet
85 797 m 1
 127 797 l 1
 127 -185 l 1
 85 -185 l 1
 85 797 l 1
EndSplineSet
Layer: 2
Layer: 3
EndChar

StartChar: parenright
Encoding: 41 41 78
Width: 285
Flags: W
HStem: -190.745 38.1152<30 86.3781> 758.623 38.1279<30 87.1932>
VStem: 163 42<-75.287 680.617>
LayerCount: 4
Back
Fore
SplineSet
205 13.12890625 m 0
 205 -122.493164062 117.180664062 -186.087890625 30 -190.745117188 c 1
 30 -152.629882812 l 1
 97.9775390625 -147.209960938 163 -90.4580078125 163 12.626953125 c 0
 163 592.350585938 l 0
 163 696.094726562 96.857421875 753.193359375 30 758.623046875 c 1
 30 796.750976562 l 1
 119.215820312 792.038085938 205 727.942382812 205 591.850585938 c 0
 205 13.12890625 l 0
EndSplineSet
Layer: 2
Layer: 3
EndChar

StartChar: braceright
Encoding: 125 125 79
Width: 304
VWidth: 0
Flags: W
HStem: -191 36<40 93.9259> 296.015 31.0215<201.662 244> 761 36<40 93.928>
VStem: 122 42<-129.879 262.478 354.049 736.263>
LayerCount: 4
Back
Fore
SplineSet
40 761 m 1
 40 797 l 1
 44 797 l 0
 117.903320312 797 164 760.876953125 164 653.618164062 c 0
 164 424.208007812 l 0
 164 356.55078125 197.892578125 329.120117188 244 327.036132812 c 1
 244 296.014648438 l 1
 195.286132812 292.955078125 164 254.772460938 164 188.65234375 c 0
 164 -51 l 0
 164 -155.732421875 117.8984375 -191 44 -191 c 0
 40 -191 l 1
 40 -155 l 1
 44 -155 l 0
 101.119140625 -155 122 -116.69921875 122 -51 c 0
 122 178.65625 l 0
 122 239.201171875 146.44921875 278.90625 176.881835938 301.59765625 c 0
 188.4921875 310.254882812 l 1
 176.546875 318.419921875 l 0
 146.161132812 339.188476562 122 374.53125 122 434.969726562 c 0
 122 654.374023438 l 0
 122 721.720703125 101.267578125 761 44 761 c 0
 40 761 l 1
EndSplineSet
Layer: 2
Layer: 3
EndChar

StartChar: parenleft
Encoding: 40 40 80
Width: 285
Flags: W
HStem: -190.749 38.1729<199.592 255> 758.673 38.0781<195.209 255>
VStem: 80 42<-74.1447 680.884>
LayerCount: 4
Back
Fore
SplineSet
255 -152.576171875 m 1
 255 -190.749023438 l 1
 166.671875 -186.096679688 80 -122.854492188 80 13.12890625 c 0
 80 591.850585938 l 0
 80 728.5546875 166.880859375 792.095703125 255 796.750976562 c 1
 255 758.672851562 l 1
 183.266601562 753.78125 122 696.514648438 122 592.349609375 c 0
 122 12.6259765625 l 0
 122 -91.423828125 193.220703125 -147.264648438 255 -152.576171875 c 1
EndSplineSet
Layer: 2
Layer: 3
EndChar

StartChar: hyphen
Encoding: 45 45 81
Width: 350
Flags: W
HStem: 238 46<80 270>
VStem: 80 190<238 284>
LayerCount: 4
Back
Fore
SplineSet
80 238 m 1
 80 284 l 1
 270 284 l 1
 270 238 l 1
 80 238 l 1
EndSplineSet
Layer: 2
Layer: 3
EndChar

StartChar: exclam
Encoding: 33 33 82
Width: 240
VWidth: 0
Flags: W
HStem: 4 82<83.0967 156.903>
VStem: 79 82<8.0967 81.9033> 92 54<253.101 657> 101.597 34.8066<190 360.105>
LayerCount: 4
Back
Fore
SplineSet
79 45 m 0xc0
 79 69.734375 95.265625 86 120 86 c 0
 144.734375 86 161 69.734375 161 45 c 0
 161 20.265625 144.734375 4 120 4 c 0
 95.265625 4 79 20.265625 79 45 c 0xc0
136.403320312 190 m 1x90
 101.596679688 190 l 1x90
 92 423.206054688 l 1
 92 657 l 1
 146 657 l 1
 146 423.206054688 l 1xa0
 136.403320312 190 l 1x90
EndSplineSet
Layer: 2
Layer: 3
EndChar

StartChar: equal
Encoding: 61 61 83
Width: 480
Flags: W
HStem: 166 36<80 400> 300 36<80 400>
VStem: 80 320<166 202 300 336>
LayerCount: 4
Back
Fore
SplineSet
80 300 m 1
 80 336 l 1
 400 336 l 1
 400 300 l 1
 80 300 l 1
80 166 m 1
 80 202 l 1
 400 202 l 1
 400 166 l 1
 80 166 l 1
EndSplineSet
Layer: 2
Layer: 3
EndChar

StartChar: plus
Encoding: 43 43 84
Width: 480
Flags: W
HStem: 233 36<80 224 256 400>
VStem: 224 32<81 233 269 421>
LayerCount: 4
Back
SplineSet
230 71 m 5
 290 71 l 5
 290 431 l 5
 230 431 l 5
 230 71 l 5
80 279 m 5
 80 223 l 5
 440 223 l 5
 440 279 l 5
 80 279 l 5
EndSplineSet
Fore
SplineSet
80 233 m 1
 80 269 l 1
 224 269 l 1
 224 421 l 1
 256 421 l 1
 256 269 l 1
 400 269 l 1
 400 233 l 1
 256 233 l 1
 256 81 l 1
 224 81 l 1
 224 233 l 1
 80 233 l 1
EndSplineSet
Layer: 2
Layer: 3
EndChar

StartChar: quotedblright
Encoding: 211 8221 85
Width: 342
Flags: W
HStem: 456 197
VStem: 50 82<575.308 648.884> 210 82<575.308 648.884>
LayerCount: 4
Back
Fore
SplineSet
210 612 m 0
 210 640.708007812 230.140625 653 251 653 c 0
 271.859375 653 292 640.708007812 292 612 c 0
 292 607.096679688 291.083984375 590.9296875 283.594726562 569.3984375 c 1
 241.0703125 456 l 1
 215.754882812 456 l 1
 243.912109375 570.5703125 l 1
 235.162109375 573.487304688 l 0
 221.05078125 578.190429688 210 590.038085938 210 612 c 0
50 612 m 0
 50 640.708007812 70.140625 653 91 653 c 0
 111.859375 653 132 640.708007812 132 612 c 0
 132 607.096679688 131.083984375 590.9296875 123.594726562 569.3984375 c 1
 81.0703125 456 l 1
 55.7548828125 456 l 1
 83.912109375 570.5703125 l 1
 75.162109375 573.487304688 l 0
 61.05078125 578.190429688 50 590.038085938 50 612 c 0
EndSplineSet
Layer: 2
Layer: 3
EndChar

StartChar: quoteright
Encoding: 213 8217 86
Width: 182
Flags: W
HStem: 456 197
VStem: 50 82<575.308 648.884>
LayerCount: 4
Back
Fore
SplineSet
50 612 m 0
 50 640.708007812 70.140625 653 91 653 c 0
 111.859375 653 132 640.708007812 132 612 c 0
 132 607.096679688 131.083984375 590.9296875 123.594726562 569.3984375 c 1
 81.0703125 456 l 1
 55.7548828125 456 l 1
 83.912109375 570.5703125 l 1
 75.162109375 573.487304688 l 0
 61.05078125 578.190429688 50 590.038085938 50 612 c 0
EndSplineSet
Layer: 2
Layer: 3
EndChar

StartChar: quoteleft
Encoding: 212 8216 87
Width: 182
Flags: W
HStem: 450 197
VStem: 50 82<454.116 527.791>
LayerCount: 4
Back
Fore
SplineSet
132 491 m 0
 132 462.291992188 111.859375 450 91 450 c 0
 70.140625 450 50 462.291992188 50 491 c 0
 50 494.87890625 50.9453125 512.08984375 58.373046875 532.514648438 c 0
 100.950195312 647 l 1
 126.245117188 647 l 1
 98.087890625 532.4296875 l 1
 106.837890625 529.512695312 l 0
 120.94921875 524.809570312 132 512.961914062 132 491 c 0
EndSplineSet
Layer: 2
Layer: 3
EndChar

StartChar: quotedblleft
Encoding: 210 8220 88
Width: 342
Flags: W
HStem: 450 197
VStem: 50 82<454.116 527.791> 210 82<454.116 527.791>
LayerCount: 4
Back
Fore
SplineSet
132 491 m 0
 132 462.291992188 111.859375 450 91 450 c 0
 70.140625 450 50 462.291992188 50 491 c 0
 50 494.87890625 50.9453125 512.08984375 58.373046875 532.514648438 c 0
 100.950195312 647 l 1
 126.245117188 647 l 1
 98.087890625 532.4296875 l 1
 106.837890625 529.512695312 l 0
 120.94921875 524.809570312 132 512.961914062 132 491 c 0
292 491 m 0
 292 462.291992188 271.859375 450 251 450 c 0
 230.140625 450 210 462.291992188 210 491 c 0
 210 494.87890625 210.9453125 512.08984375 218.373046875 532.514648438 c 0
 260.950195312 647 l 1
 286.245117188 647 l 1
 258.087890625 532.4296875 l 1
 266.837890625 529.512695312 l 0
 280.94921875 524.809570312 292 512.961914062 292 491 c 0
EndSplineSet
Layer: 2
Layer: 3
EndChar

StartChar: divide
Encoding: 214 247 89
Width: 480
Flags: W
HStem: 68 71<214.056 267.544> 233 36<80 400> 358 71<214.056 267.544>
VStem: 212 57.6<68.8336 138.172 358.828 428.166>
LayerCount: 4
Back
Fore
SplineSet
80 233 m 1
 80 269 l 1
 400 269 l 1
 400 233 l 1
 80 233 l 1
212 394 m 0
 212 414.560546875 223.3390625 429 240.8 429 c 0
 258.26171875 429 269.6 414.559570312 269.6 394 c 0
 269.6 372.274414062 258.1796875 358 240.8 358 c 0
 223.41953125 358 212 372.275390625 212 394 c 0
212 103 m 0
 212 124.725585938 223.4203125 139 240.8 139 c 0
 258.18046875 139 269.6 124.724609375 269.6 103 c 0
 269.6 82.439453125 258.2609375 68 240.8 68 c 0
 223.33828125 68 212 82.4404296875 212 103 c 0
EndSplineSet
Layer: 2
Layer: 3
EndChar

StartChar: quotedbl
Encoding: 34 34 90
Width: 292
Flags: W
HStem: 456 191<55.4316 96.9453 195.432 236.945>
VStem: 55.4316 41.5137<456 647> 195.432 41.5137<456 647>
LayerCount: 4
Back
Fore
SplineSet
195.431640625 456 m 1
 190 647 l 1
 241.471679688 647 l 1
 236.9453125 456 l 1
 195.431640625 456 l 1
55.431640625 456 m 1
 50 647 l 1
 101.471679688 647 l 1
 96.9453125 456 l 1
 55.431640625 456 l 1
EndSplineSet
Layer: 2
Layer: 3
EndChar

StartChar: exclamdown
Encoding: 193 161 91
Width: 240
VWidth: 0
Flags: W
HStem: 396 82<83.0967 156.903>
VStem: 79 82<400.097 473.903> 92 54<-185 218.899> 101.597 34.8066<111.895 282>
LayerCount: 4
Back
Fore
SplineSet
79 437 m 0xc0
 79 461.734375 95.265625 478 120 478 c 0
 144.734375 478 161 461.734375 161 437 c 0
 161 412.265625 144.734375 396 120 396 c 0
 95.265625 396 79 412.265625 79 437 c 0xc0
92 48.7939453125 m 1xa0
 101.596679688 282 l 1
 136.403320312 282 l 1x90
 146 48.7939453125 l 1
 146 -185 l 1
 92 -185 l 1
 92 48.7939453125 l 1xa0
EndSplineSet
Layer: 2
Layer: 3
EndChar

StartChar: questiondown
Encoding: 192 191 92
Width: 338
VWidth: 0
Flags: W
HStem: -191 50<160.111 297.291> 396 82<193.635 253.184>
VStem: 55 54<-89.8534 54.7116> 190.33 66.1595<397.948 476.052> 207.265 33.8945<182.079 282>
LayerCount: 4
Back
Fore
SplineSet
208.543053937 282 m 1xe8
 239.942195214 282 l 1
 240.489795103 267.75390625 241.159521586 248.477539062 241.159521586 235 c 0
 241.159521586 172.599609375 219.902403007 131.140625 171.567382812 92.3955078125 c 0
 135.944335938 69.345703125 109 37.7734375 109 -18 c 0
 109 -96.263671875 169.779296875 -141 226.636699775 -141 c 0
 267.016601562 -141 307.723632812 -118.8515625 336.309570312 -88.544921875 c 1
 378.532226562 -120.576171875 l 1
 338.408203125 -164.905273438 277.493164062 -191 226.636699775 -191 c 0
 142.272460938 -191 55 -126.58203125 55 -18 c 0
 55 50.599609375 85.8232421875 97.103515625 134.314453125 127.529296875 c 0
 184.044459178 160.090820312 205.532436416 189.7265625 207.265058224 245.565429688 c 0
 208.543053937 282 l 1xe8
256.489166832 437 m 0xf0
 256.489166832 412.265625 243.365679413 396 223.409406039 396 c 0
 203.453132664 396 190.329645246 412.265625 190.329645246 437 c 0
 190.329645246 461.734375 203.453132664 478 223.409406039 478 c 0
 243.365679413 478 256.489166832 461.734375 256.489166832 437 c 0xf0
EndSplineSet
Layer: 2
Layer: 3
EndChar

StartChar: endash
Encoding: 208 8211 93
Width: 410
Flags: W
HStem: 238 46<80 330>
VStem: 80 250<238 284>
LayerCount: 4
Back
Fore
SplineSet
80 238 m 1
 80 284 l 1
 330 284 l 1
 330 238 l 1
 80 238 l 1
EndSplineSet
Layer: 2
Layer: 3
EndChar

StartChar: emdash
Encoding: 209 8212 94
Width: 500
Flags: W
HStem: 238 46<80 420>
LayerCount: 4
Back
Fore
SplineSet
80 238 m 1
 80 284 l 1
 420 284 l 1
 420 238 l 1
 80 238 l 1
EndSplineSet
Layer: 2
Layer: 3
EndChar

StartChar: quotesingle
Encoding: 39 39 95
Width: 152
Flags: W
HStem: 456 191<55.4316 96.9453>
VStem: 55.4316 41.5137<456 647>
LayerCount: 4
Back
Fore
SplineSet
55.431640625 456 m 1
 50 647 l 1
 101.471679688 647 l 1
 96.9453125 456 l 1
 55.431640625 456 l 1
EndSplineSet
Layer: 2
Layer: 3
EndChar

StartChar: asterisk
Encoding: 42 42 96
Width: 332
VWidth: 0
Flags: W
HStem: 433.163 213.837
VStem: 147.694 31.3291<551.65 647>
LayerCount: 4
Back
Fore
SplineSet
150.842773438 551.489257812 m 1
 147.694335938 647 l 1
 179.0234375 647 l 1
 175.880859375 551.650390625 l 1
 266.983398438 584.112304688 l 1
 276.684570312 553.794921875 l 1
 184.360351562 527.56640625 l 1
 243.168945312 451.956054688 l 1
 217.708007812 433.163085938 l 1
 163.359375 511.55078125 l 1
 108.985351562 433.127929688 l 1
 84.4482421875 451.08203125 l 1
 142.025390625 527.502929688 l 1
 50 554.692382812 l 1
 59.7021484375 585.01171875 l 1
 150.842773438 551.489257812 l 1
EndSplineSet
Layer: 2
Layer: 3
EndChar

StartChar: dollar
Encoding: 36 36 97
Width: 449
VWidth: 0
Flags: W
HStem: 592.928 48.2891<233.119 250 284 338.809>
VStem: 52 50<426.009 535.649> 210 34<-41 24.624 79.0693 115.702> 250 34<277.884 314.874 369.301 587.919 641.447 708> 341 49<125.479 293.421>
LayerCount: 4
Back
SplineSet
210 708 m 5
 264 708 l 5
 264 -18 l 4
 264 -41 l 5
 210 -41 l 5
 210 708 l 5
237 644 m 4
 273 644 358 640 418 561 c 5
 365 522 l 5
 323 577 269 578 237 578 c 4
 172 578 122 541 122 476 c 4
 122 420 177 387 243 374 c 4
 354 354 430 295 430 199 c 4
 430 107 352 23 237 23 c 4
 201 23 112 27 50 110 c 5
 102 149 l 5
 147 90 205 89 237 89 c 4
 315 89 361 140 361 199 c 4
 361 255 299 297 231 310 c 4
 125 330 52 380 52 476 c 4
 52 580 142 644 237 644 c 4
EndSplineSet
Fore
SplineSet
250 641.447265625 m 1
 250 708 l 1
 284 708 l 1
 284 641.216796875 l 1
 294 641.216796875 l 0
 320.256201675 641.216796875 354.001822245 623.758789062 393.69921875 569.185546875 c 1
 358.52438386 541.278320312 l 1
 338.909975032 581.358398438 316.73501933 592.927734375 294 592.927734375 c 0
 284 592.927734375 l 1
 284 362.919921875 l 1
 291.643554688 361.016601562 l 0
 353.632832635 336.901367188 410 281.39453125 390 195.309570312 c 0
 390 113.44140625 330.767235825 37.4599609375 252.80859375 25.7099609375 c 0
 244 24.6240234375 l 1
 244 -41 l 1
 210 -41 l 1
 210 24.8720703125 l 1
 200.92578125 25.7392578125 l 0
 160.698242188 29.583984375 103.174804688 43.3076171875 56.03125 102.083007812 c 1
 90.3642578125 129.59765625 l 1
 125.88671875 86.7529296875 167.504882812 76.1298828125 199.06640625 73.08984375 c 0
 210 72.037109375 l 1
 250 321.548828125 l 1
 238.877840909 323.451171875 l 0
 109.319335938 346.592773438 52 394.821289062 52 480.936523438 c 0
 52 571.220703125 120.868164062 629.455078125 237.34375 640.276367188 c 0
 250 641.447265625 l 1
250 587.918945312 m 1
 232.926136364 585.84765625 l 2
 153.519886364 576.213867188 102 538.380859375 102 477 c 0
 102 424.547851562 155.899147727 390.002929688 231.021306818 373.475585938 c 0
 250 369.30078125 l 1
 250 587.918945312 l 1
244 79.0693359375 m 1
 255.747070312 81.1533203125 l 2
 310.11100596 92.923828125 341 142.104492188 341 199 c 0
 361 252.721679688 332.638873228 291.961914062 297.162109375 310.487304688 c 0
 284 314.874023438 l 1
 244 79.0693359375 l 1
EndSplineSet
Layer: 2
Layer: 3
EndChar

StartChar: percent
Encoding: 37 37 98
Width: 672
VWidth: 0
Flags: W
HStem: 4 40<457.255 547.222> 247 40<457.198 547.227> 380 40<124.773 214.845> 623 40<124.778 214.85>
VStem: 60 42<440.637 602.384> 236.386 39.4699<440.616 602.363> 396.416 39.3582<64.6374 226.384> 570 42<64.6159 226.363>
LayerCount: 4
Back
Fore
SplineSet
236.385542169 545 m 0
 236.385542169 597.259765625 202.805675828 623 171 623 c 0
 137.755859375 623 102 597.315429688 102 545 c 0
 102 498 l 0
 102 445.740234375 137.732421875 420 171 420 c 0
 202.783650226 420 236.385542169 445.684570312 236.385542169 498 c 0
 236.385542169 545 l 0
60 543 m 0
 60 626.34375 115.765625 663 171 663 c 0
 223.451007154 663 275.855421687 626.337890625 275.855421687 543 c 0
 275.855421687 500 l 0
 275.855421687 416.65625 223.449171687 380 171 380 c 0
 115.763671875 380 60 416.662109375 60 500 c 0
 60 543 l 0
142.760742188 0 m 1
 473.172698607 647 l 1
 523.239257812 647 l 1
 194.034179688 -0 l 1
 142.760742188 0 l 1
570 169 m 0
 570 221.259765625 534.267578125 247 501 247 c 0
 469.216349774 247 435.773990547 221.315429688 435.773990547 169 c 0
 435.773990547 122 l 0
 435.773990547 69.740234375 469.258848716 44 501 44 c 0
 534.244140625 44 570 69.6845703125 570 122 c 0
 570 169 l 0
396.415783929 167 m 0
 396.144578313 250.34375 448.550828313 287 501 287 c 0
 556.236328125 287 612 250.337890625 612 167 c 0
 612 124 l 0
 612 40.65625 556.234375 4 501 4 c 0
 448.671929629 4 396.415783929 40.662109375 396.415783929 124 c 0
 396.415783929 167 l 0
EndSplineSet
Layer: 2
Layer: 3
EndChar

StartChar: numbersign
Encoding: 35 35 99
Width: 570
VWidth: 0
Flags: W
HStem: 0 21G<98.3242 145.602 292.324 339.886> 190 47<184.094 332.324> 200 37<55 138.324 383.705 480> 430 37<90 181.084 226.435 380.295 431.676 515>
LayerCount: 4
Back
SplineSet
55 247 m 5
 520 247 l 5
 520 190 l 5
 55 190 l 5
 55 247 l 5
90 477 m 5
 555 477 l 5
 555 420 l 5
 90 420 l 5
 90 477 l 5
450 667 m 5
 514 667 l 5
 374 0 l 5
 310 0 l 5
 450 667 l 5
236 667 m 5
 300 667 l 5
 160 0 l 5
 96 0 l 5
 236 667 l 5
EndSplineSet
Fore
SplineSet
187.985534219 467 m 1xb0
 223.2917584 657 l 1
 261.741581203 657 l 1
 226.435357023 467 l 1
 388.114257812 467 l 1
 428.114257812 657 l 1
 471.67578125 657 l 1
 431.67578125 467 l 1
 515 467 l 1
 515 430 l 1
 423.8671875 430 l 1
 383.705078125 237 l 1
 480 237 l 1
 480 200 l 1
 375.885742188 200 l 1xb0
 335.885742188 -0 l 1
 292.32421875 0 l 1
 332.32421875 190 l 1
 177.191966368 190 l 1xd0
 141.885742188 0 l 1
 98.32421875 0 l 1
 138.32421875 198.370117188 l 1
 55 198.370117188 l 1
 55 237 l 1
 145.634442602 237 l 1
 181.08375353 430 l 1
 90 430 l 1
 90 467 l 1
 187.985534219 467 l 1xb0
340.1328125 237 m 1
 380.294921875 430 l 1
 219.543057986 430 l 1
 184.093747057 237 l 1xd0
 340.1328125 237 l 1
EndSplineSet
Layer: 2
Layer: 3
EndChar

StartChar: periodcentered
Encoding: 225 183 100
Width: 242
VWidth: 0
Flags: W
HStem: 219 82<84.0967 157.903>
VStem: 80 82<223.097 296.903>
AnchorPoint: "Center" 17 250 mark 0
LayerCount: 4
Back
Fore
SplineSet
80 260 m 0
 80 284.734375 96.265625 301 121 301 c 0
 145.734375 301 162 284.734375 162 260 c 0
 162 235.265625 145.734375 219 121 219 c 0
 96.265625 219 80 235.265625 80 260 c 0
EndSplineSet
Layer: 2
Layer: 3
EndChar

StartChar: bullet
Encoding: 165 8226 101
Width: 305
VWidth: 0
Flags: W
HStem: 177 146<98.9158 206.166>
VStem: 80 145<195.916 304.088>
LayerCount: 4
Back
Fore
SplineSet
80 250 m 0
 80 293.75 109.26171875 323 153 323 c 0
 195.658203125 323 225 293.796875 225 250 c 0
 225 206.194335938 195.649414062 177 153 177 c 0
 109.25 177 80 206.26171875 80 250 c 0
EndSplineSet
Layer: 2
Layer: 3
EndChar

StartChar: oe
Encoding: 207 339 102
Width: 710
VWidth: 0
Flags: W
HStem: 4 44<160.569 271.38 420.314 571.607> 228 42<366 584> 429 44<160.574 271.388 416.318 535.93>
VStem: 60 48<109.74 366.881> 322 44<109.94 228 270 367.946> 584 46<270 375.565>
LayerCount: 4
Back
SplineSet
515 -6 m 4xf9
 428 -6 350 61 350 204 c 6
 350 272 l 6xf5
 350 416 428 483 515 483 c 4
 605 483 690 418 690 268 c 6
 690 218 l 5
 380 218 l 5
 380 282 l 5xf3
 622 282 l 5
 622 375 574 419 515 419 c 4
 461 419 408 373 408 273 c 6
 408 204 l 6
 408 106 460 59 515 59 c 4
 559 59 592 71 635 102 c 5
 670 50 l 5
 614 11 575 -6 515 -6 c 4xf9
235 483 m 4
 321 483 398 417 398 273 c 6
 398 204 l 6xf3
 398 61 322 -6 235 -6 c 4
 148 -6 60 61 60 204 c 6
 60 272 l 6
 60 416 148 483 235 483 c 4
235 417 m 4
 183 417 130 371 130 273 c 6
 130 204 l 6
 130 106 183 60 235 60 c 4
 287 60 340 106 340 204 c 6
 340 272 l 6xf9
 340 371 287 417 235 417 c 4
EndSplineSet
Fore
SplineSet
322 272 m 0
 322 374.669921875 269.253813244 429 215.952380952 429 c 0
 162.68452381 429 108 374.719726562 108 273 c 0
 108 204 l 0
 108 102.280273438 162.680989583 48 215.952380952 48 c 0
 269.220238095 48 322 102.280273438 322 204 c 0
 322 272 l 0
366 280 m 0
 366 270 l 1
 584 270 l 1
 584 280 l 0
 584 376.706054688 535.423745984 431 475.934579439 431 c 0
 422.924001533 431 366 378.217773438 366 280 c 0
650 228 m 1
 366 228 l 1
 366 204 l 0
 366 102.334960938 423.147460938 47 485 47 c 0
 528.383789062 47 563.440429688 61.119140625 602.412109375 87.9365234375 c 1
 626.173828125 52.6337890625 l 1
 574.556640625 17.751953125 539.999023438 4 485 4 c 0
 431.532226562 4 381.3046875 30.806640625 352.973632812 88.4130859375 c 0
 343.84765625 106.969726562 l 1
 334.96875 88.2939453125 l 0
 308.782366071 30.7294921875 264.299711682 4 215.952380952 4 c 0
 142.414853051 4 60 65.7294921875 60 204 c 0
 60 272 l 0
 60 411.30859375 142.437825521 473 215.952380952 473 c 0
 264.299711682 473 308.783249628 446.26953125 334.96875 388.706054688 c 0
 343.84765625 370.030273438 l 1
 352.973632812 388.586914062 l 0
 381.305664062 446.1953125 427.463794173 473 475.934579439 473 c 0
 552.303665304 473 630 413.5546875 630 268 c 0
 650 228 l 1
EndSplineSet
Layer: 2
Layer: 3
EndChar

StartChar: perthousand
Encoding: 228 8240 103
Width: 982
VWidth: 0
Flags: W
HStem: 4 40<465.832 555.336 766.03 857.222> 247 40<465.662 555.206 766.018 857.227> 380 40<124.773 215.993> 623 40<124.778 215.998>
VStem: 60 42<440.637 602.384> 238.131 40.6916<440.616 602.363> 403.122 40.6623<64.6374 226.384> 577.389 40.6623<64.6159 223.718> 703.249 40.6623<64.6374 226.384> 880 42<64.6159 226.363>
LayerCount: 4
Back
Fore
SplineSet
238.130841121 545 m 0
 238.130841121 597.259765625 203.511578806 623 171 623 c 0
 137.755859375 623 102 597.315429688 102 545 c 0
 102 498 l 0
 102 445.740234375 137.732421875 420 171 420 c 0
 203.488871447 420 238.130841121 445.684570312 238.130841121 498 c 0
 238.130841121 545 l 0
60 543 m 0
 60 626.34375 115.765625 663 171 663 c 0
 224.795944071 663 278.822429907 626.337890625 278.822429907 543 c 0
 278.822429907 500 l 0
 278.822429907 416.65625 224.794051791 380 171 380 c 0
 115.763671875 380 60 416.662109375 60 500 c 0
 60 543 l 0
880 169 m 0
 880 221.259765625 844.267578125 247 811 247 c 0
 778.511128553 247 743.91093203 221.315429688 743.91093203 169 c 0
 743.91093203 122 l 0
 743.91093203 69.740234375 778.505316747 44 811 44 c 0
 844.244140625 44 880 69.6845703125 880 122 c 0
 880 169 l 0
703.248584452 167 m 0
 703.177570093 250.34375 757.205948209 287 811 287 c 0
 866.236328125 287 922 250.337890625 922 167 c 0
 922 124 l 0
 922 40.65625 866.234375 4 811 4 c 0
 757.236246548 4 703.248584452 40.662109375 703.248584452 124 c 0
 703.248584452 167 l 0
577.388937184 169 m 0
 577.388937184 221.259765625 542.608152015 247 510.37694704 247 c 0
 478.168449426 247 443.784080854 221.315429688 443.784080854 169 c 0
 443.784080854 122 l 0
 443.784080854 69.740234375 478.378465571 44 510.586509019 44 c 0
 542.771861425 44 577.388937184 69.6845703125 577.388937184 122 c 0
 577.388937184 169 l 0
403.121733275 167 m 0
 402.834890966 250.34375 456.863269081 287 510.37694704 287 c 0
 563.89251728 287 617.919003115 250.337890625 618.051284763 167 c 0
 618.051284763 124 l 0
 618.051284763 40.65625 564.061731746 4 510.586509019 4 c 0
 457.109395371 4 403.121733275 40.662109375 403.121733275 124 c 0
 403.121733275 167 l 0
142.760742188 0 m 1
 482.247258932 647 l 1
 531.923393083 647 l 1
 194.034179688 -0 l 1
 142.760742188 0 l 1
EndSplineSet
Layer: 2
Layer: 3
EndChar

StartChar: ampersand
Encoding: 38 38 104
Width: 562
Flags: W
HStem: -6 56<170.481 315.508 441.488 507> 320 46<173.264 370.586 415 507> 617 46<173.671 316.825>
VStem: 60 50<113.49 257.838> 69 50<421.067 560.034> 370.586 44.4141<126.587 320 366 461>
LayerCount: 4
Back
Fore
SplineSet
368.682858102 123.885742188 m 0xf4
 370.585903084 126.586914062 l 1
 370.585903084 320 l 1
 239.273127753 320 l 0
 164.080078125 320 110 254.077148438 110 186 c 0
 110 116.985351562 164.956054688 50 239.273127753 50 c 0
 266.963011082 50 320.090648231 54.92578125 368.682858102 123.885742188 c 0xf4
119 490 m 0xec
 119 426.791992188 170.174804688 366 239.273127753 366 c 2
 370.585903084 366 l 1
 370.585903084 461 l 1
 415 461 l 1
 415 366 l 1
 507 366 l 1
 507 320 l 1
 415 320 l 1
 415 132.12890625 l 0
 415 64.568359375 471.022460938 51.61328125 507 51.61328125 c 1
 507 0 l 1
 471.829101562 0 421.452148438 1.291015625 391.533203125 51.625 c 0
 384.320420051 64.1943359375 l 1
 376.205095333 52.6494140625 l 0
 340.976945381 2.6728515625 275.104160931 -6 239.273127753 -6 c 0
 131.723632812 -6 60 82.4150390625 60 180.943359375 c 0xf4
 60 247.45703125 94.55859375 308.690429688 140.751953125 334.3359375 c 0
 156.3203125 342.979492188 l 1
 141.086914062 352.233398438 l 0
 100.545898438 376.254882812 69 430.172851562 69 490 c 0
 69 580.893554688 137.724609375 663 239.273127753 663 c 0
 277.029468956 663 335.973994184 662.240234375 394.790039062 585.766601562 c 1
 359.352861715 556.83203125 l 1
 314.891782248 614.1484375 264.630734616 617 239.273127753 617 c 0
 170.930664062 617 119 554.056640625 119 490 c 0xec
EndSplineSet
Layer: 2
Layer: 3
EndChar

StartChar: plusminus
Encoding: 177 177 105
Width: 480
Flags: W
HStem: 105 36<80 400> 303 36<80 224 256 400>
VStem: 224 32<211 303 339 431>
LayerCount: 4
Back
Fore
SplineSet
224 339 m 1
 224 431 l 1
 256 431 l 1
 256 339 l 1
 400 339 l 1
 400 303 l 1
 256 303 l 1
 256 211 l 1
 224 211 l 1
 224 303 l 1
 80 303 l 1
 80 339 l 1
 224 339 l 1
80 105 m 1
 80 141 l 1
 400 141 l 1
 400 105 l 1
 80 105 l 1
EndSplineSet
Layer: 2
Layer: 3
EndChar

StartChar: less
Encoding: 60 60 106
Width: 480
Flags: W
VStem: 80 320
LayerCount: 4
Back
Fore
SplineSet
80 277.663085938 m 1
 400 438.21875 l 1
 400 394.497070312 l 1
 97.39453125 251 l 1
 400 98.3662109375 l 1
 400 54.73828125 l 1
 80 224.336914062 l 1
 80 277.663085938 l 1
EndSplineSet
Layer: 2
Layer: 3
EndChar

StartChar: greater
Encoding: 62 62 107
Width: 480
Flags: W
VStem: 80 320
LayerCount: 4
Back
Fore
SplineSet
80 438.21875 m 1
 400 277.663085938 l 1
 400 224.336914062 l 1
 80 54.73828125 l 1
 80 98.3662109375 l 1
 382.60546875 251 l 1
 80 394.497070312 l 1
 80 438.21875 l 1
EndSplineSet
Layer: 2
Layer: 3
EndChar

StartChar: quotedblbase
Encoding: 227 8222 108
Width: 342
Flags: W
HStem: -119 217
VStem: 50 82<21.2321 93.884> 55.7295 25.3613<-119 -97.195> 210 82<21.2321 93.884> 215.729 25.3613<-119 -97.195>
LayerCount: 4
Back
Fore
SplineSet
210 57 m 0x90
 210 85.7080078125 230.140625 98 251 98 c 0
 271.859375 98 292 85.7080078125 292 57 c 0x90
 292 52.068359375 291.048828125 34.830078125 283.598632812 13.412109375 c 1
 241.090820312 -119 l 1
 215.729492188 -119 l 1x88
 243.895507812 16.576171875 l 1
 235.162109375 19.4873046875 l 0
 220.760742188 24.287109375 210 35.1962890625 210 57 c 0x90
50 57 m 0xc0
 50 85.7080078125 70.140625 98 91 98 c 0
 111.859375 98 132 85.7080078125 132 57 c 0xc0
 132 52.068359375 131.048828125 34.830078125 123.598632812 13.412109375 c 1
 81.0908203125 -119 l 1
 55.7294921875 -119 l 1xa0
 83.8955078125 16.576171875 l 1
 75.162109375 19.4873046875 l 0
 60.7607421875 24.287109375 50 35.1962890625 50 57 c 0xc0
EndSplineSet
Layer: 2
Layer: 3
EndChar

StartChar: quotesinglbase
Encoding: 226 8218 109
Width: 182
Flags: W
HStem: -121 217
VStem: 50 82<18.338 91.884> 55.7549 25.2949<-121 -98.8867>
LayerCount: 4
Back
Fore
SplineSet
50 55 m 0xc0
 50 83.7080078125 70.140625 96 91 96 c 0
 111.859375 96 132 83.7080078125 132 55 c 0xc0
 132 50.126953125 131.120117188 35.03515625 123.58984375 13.3857421875 c 1
 81.0498046875 -121 l 1
 55.7548828125 -121 l 1xa0
 83.912109375 13.5703125 l 1
 75.162109375 16.4873046875 l 0
 61.05078125 21.1904296875 50 33.0380859375 50 55 c 0xc0
EndSplineSet
Layer: 2
Layer: 3
EndChar

StartChar: ellipsis
Encoding: 201 8230 110
Width: 502
VWidth: 0
Flags: W
HStem: 14 82<54.0967 127.903 218.152 283.848 374.097 447.903>
VStem: 50 82<18.0967 91.9033> 214.505 72.989<16.928 93.072> 370 82<18.0967 91.9033>
CounterMasks: 1 70
LayerCount: 4
Back
Fore
SplineSet
50 55 m 0
 50 79.734375 66.265625 96 91 96 c 0
 115.734375 96 132 79.734375 132 55 c 0
 132 30.265625 115.734375 14 91 14 c 0
 66.265625 14 50 30.265625 50 55 c 0
370 55 m 0
 370 79.734375 386.265625 96 411 96 c 0
 435.734375 96 452 79.734375 452 55 c 0
 452 30.265625 435.734375 14 411 14 c 0
 386.265625 14 370 30.265625 370 55 c 0
214.505494505 55 m 0
 214.505494505 79.734375 228.983688187 96 251 96 c 0
 273.016311813 96 287.494505495 79.734375 287.494505495 55 c 0
 287.494505495 30.265625 273.016311813 14 251 14 c 0
 228.983688187 14 214.505494505 30.265625 214.505494505 55 c 0
EndSplineSet
Layer: 2
Layer: 3
EndChar

StartChar: grave
Encoding: 96 96 111
Width: 232
Flags: W
HStem: 546 101
VStem: 50 114.66
AnchorPoint: "Top" 156 477 mark 0
LayerCount: 4
Back
Fore
SplineSet
121.78515625 546 m 1
 50 647 l 1
 102.057617188 647 l 1
 164.66015625 546 l 1
 121.78515625 546 l 1
EndSplineSet
Layer: 2
Layer: 3
EndChar

StartChar: ae
Encoding: 190 230 112
Width: 713
VWidth: 0
Flags: W
HStem: 4 43<136.987 266.524 430.315 577.466> 230 40<371 589> 245 37<152.707 327> 431 42<122.685 278.115 424.741 535.568>
VStem: 55 46<82.0834 203.385> 327 44<113.432 230 275.344 370.939> 589 46<270 370.914>
LayerCount: 4
Back
SplineSet
327 287 m 5
 327 376 284 421 228 421 c 4
 179 421 145 408 109 386 c 5
 74 438 l 5
 116 464 165 483 228 483 c 4
 323 483 383 416 383 280 c 5
 383 204 l 5
 383 56 293 -6 202 -6 c 4
 117 -6 55 60 55 143 c 4
 55 243 128 292 251 292 c 4
 273 292 301 291 327 287 c 5
121 143 m 4
 121 99 152 57 210 57 c 4
 270 57 327 108 327 204 c 6
 327 231 l 5
 301 234 280 235 259 235 c 4
 199 235 121 220 121 143 c 4
510 -6 m 4
 413 -6 335 61 335 204 c 6
 335 279 l 6
 335 423 413 483 500 483 c 4
 587 483 675 418 675 268 c 6
 675 220 l 5
 391 220 l 5
 391 204 l 6
 391 106 445 57 510 57 c 4
 546 57 583 72 614 98 c 5
 654 47 l 5
 609 13 565 -6 510 -6 c 4
391 280 m 5
 609 280 l 5
 609 369 554 421 500 421 c 4
 448 421 391 374 391 280 c 5
EndSplineSet
Fore
SplineSet
371 280 m 0xde
 371 270 l 1
 589 270 l 1
 589 280 l 0
 589 372.979492188 536.20047305 431 480.917431193 431 c 0
 427.80657791 431 371 378.217773438 371 280 c 0xde
249 245 m 0xbe
 189.552734375 245 101 229.92578125 101 143 c 0
 101 94.189453125 136.231445312 47 200 47 c 0
 266.413085938 47 327 103.850585938 327 204 c 0
 327 239.912109375 l 1
 318.146484375 240.934570312 l 0
 291.791992188 243.974609375 270.3203125 245 249 245 c 0xbe
78.1806640625 434.840820312 m 1
 117.174804688 457.409179688 161.452148438 473 218 473 c 0
 275.704101562 473 317.52734375 448.348632812 341.9296875 395.7890625 c 0
 350.515625 377.296875 l 1
 359.881835938 395.40625 l 0
 388.056640625 449.875976562 431.911473265 473 480.917431193 473 c 0
 554.728381236 473 635 413.423828125 635 268 c 0
 655 230 l 1
 371 230 l 1xde
 371 204 l 0
 371 101.935546875 428.826171875 47 500 47 c 0
 535.7734375 47 572.140625 61.13671875 602.3515625 83.8984375 c 1
 629.766601562 48.9443359375 l 1
 588.776367188 19.6455078125 549.251953125 4 500 4 c 0
 438.192382812 4 385.262695312 32.0068359375 357.028320312 91.2998046875 c 0
 348.356445312 109.51171875 l 1
 339.112304688 91.5830078125 l 0
 308.002929688 31.25 250.895507812 4 192 4 c 0
 112.639648438 4 55 65.18359375 55 143 c 0
 55 235.787109375 120.424804688 282 241 282 c 0
 262.692382812 282 290.279296875 280.993164062 315.479492188 277.116210938 c 0
 327 275.34375 l 1
 327 287 l 0
 327 379.163085938 280.95703125 431 218 431 c 0
 170.755859375 431 135.633789062 418.744140625 102.017578125 399.424804688 c 1
 78.1806640625 434.840820312 l 1
EndSplineSet
Layer: 2
Layer: 3
EndChar

StartChar: asciicircum
Encoding: 94 94 113
Width: 378
Flags: W
HStem: 546 101
VStem: 50 246.871
LayerCount: 4
Back
Fore
SplineSet
256.348632812 546 m 1
 173.435546875 622.615234375 l 1
 90.5224609375 546 l 1
 50 546 l 1
 159.346679688 647 l 1
 187.5234375 647 l 1
 296.87109375 546 l 1
 256.348632812 546 l 1
EndSplineSet
Layer: 2
Layer: 3
EndChar

StartChar: sterling
Encoding: 163 163 114
Width: 481
VWidth: 0
Flags: W
HStem: 0 51.7119<60 122 176 412> 302 41<62 122 176 342> 613 50<224.398 338.621>
VStem: 122 54<51.7119 302 343 553.068>
LayerCount: 4
Back
Fore
SplineSet
122 343 m 1
 122 447 l 2
 122 606.259765625 206.790001831 663 279.908377617 663 c 0
 300.35546875 663 353.24609375 663.850585938 416.909179688 585.755859375 c 1
 375.755859375 553.98828125 l 1
 329.077148438 611.762695312 297.916992188 613 279.908377617 613 c 0
 228.425642667 613 176 566.704101562 176 447 c 0
 176 343 l 1
 342 343 l 1
 342 302 l 1
 176 302 l 1
 176 51.7119140625 l 1
 412 51.7119140625 l 1
 412 0 l 1
 60 0 l 1
 60 51.7119140625 l 1
 122 51.7119140625 l 1
 122 302 l 1
 62 302 l 1
 62 343 l 1
 122 343 l 1
EndSplineSet
Layer: 2
Layer: 3
EndChar

StartChar: section
Encoding: 164 167 115
Width: 469
VWidth: 0
Flags: W
HStem: 4 45<124.594 318.655> 618 45<144.634 332.759>
VStem: 65 50<296.37 414.755 492.963 589.667> 350.694 50.3061<78.9978 178.567 253.935 373.785>
LayerCount: 4
Back
SplineSet
231 673 m 4
 307 673 364 643 389 626 c 5
 351 571 l 5
 316 597 269 608 231 608 c 4
 176 608 138 583 138 541 c 4
 138 502 160 485 237 471 c 4
 320 455 404 421 404 328 c 4
 404 241 342 202 290 202 c 4
 205 202 183 256 162 272 c 5
 197 258 l 5
 226 235 243 237 290 237 c 4
 318 237 334 276 334 318 c 4
 334 369 301 392 225 406 c 4
 142 421 68 450 68 541 c 4
 68 632 158 673 231 673 c 4
181 465 m 4
 257 465 313 430 338 413 c 5
 351 373 l 5
 316 399 219 430 181 430 c 4
 156 430 138 395 138 353 c 4
 138 304 160 287 237 273 c 4
 320 257 404 223 404 130 c 4
 404 43 332 -6 230 -6 c 4
 145 -6 86 31 65 47 c 5
 107 100 l 5
 136 77 183 59 230 59 c 4
 308 59 334 88 334 130 c 4
 334 171 301 194 225 208 c 4
 142 223 68 252 68 343 c 4
 68 434 138 465 181 465 c 4
EndSplineSet
Fore
SplineSet
65 541 m 0
 65 623.672851562 148.212173151 663 226.163265306 663 c 0
 298.777423469 663 355.6484375 639.17578125 381.899414062 623.182617188 c 1
 355.467773438 584.927734375 l 1
 315.216557717 608.603515625 266.840840242 618 226.163265306 618 c 0
 163.068199936 618 115 590.94921875 115 541 c 0
 115 494.833984375 145.975805166 475.15625 230.746851084 461.170898438 c 1
 322.107541454 445.189453125 401 412.807617188 401 328 c 0
 401 281.749023438 383.485351562 252.046875 358.860351562 232.893554688 c 0
 347.967833227 224.85546875 l 1
 359 217 l 0
 384.721679688 197.708984375 401 169.96484375 401 130 c 0
 401 50.359375 334.400031888 4 225.06122449 4 c 0
 144.748923788 4 90.740234375 32.49609375 66.3505859375 49.0087890625 c 1
 95.826171875 86.2041015625 l 1
 128.15625 64.0087890625 175.01953125 49 225.06122449 49 c 0
 313.924027423 49 350.693877551 81.3603515625 350.693877551 130 c 0
 350.693877551 178.909179688 305.472536671 203.805664062 221.510801977 217.840820312 c 0
 130.846679688 232.828125 65 259.88671875 65 343 c 0
 65 390.895507812 85.2119140625 419.522460938 108.692382812 435.778320312 c 0
 120.303710938 443.81640625 l 1
 108.865234375 452.099609375 l 0
 82.05859375 471.510742188 65 498.114257812 65 541 c 0
146.390146684 433.4296875 m 1
 141.521364796 429.328125 l 2
 124.108398438 413.461914062 115 384.665039062 115 353 c 0
 115 297.809570312 145.240752551 277.27734375 230.768375319 263.166992188 c 0
 260.012276786 258.252929688 288.924705038 251.397460938 314.142498406 240.909179688 c 0
 321.965481505 237.65625 l 1
 327.340082908 243.752929688 l 0
 342.95053412 261.459960938 350.693877551 289.469726562 350.693877551 318 c 0
 350.693877551 375.983398438 306.104272959 401.700195312 221.522640306 415.838867188 c 0
 197.59630102 419.786132812 173.873365753 424.702148438 152.661232462 431.438476562 c 0
 146.390146684 433.4296875 l 1
EndSplineSet
Layer: 2
Layer: 3
EndChar

StartChar: at
Encoding: 64 64 116
Width: 824
VWidth: 0
Flags: W
HStem: -190 48<205.307 622.458> -6 55<318.086 456.441> 243 41<332.777 513> 428 44<207.953 471.258> 608 46<333.612 535.593>
VStem: 75 54<-64.9652 347.806> 240.16 45.1598<81.9503 203.356> 513 48<0 69.1104 108.084 237.912 277.344 385.261> 701 48<-62.7824 437.099>
LayerCount: 4
Back
Fore
SplineSet
333.612334802 608 m 1
 333.612334802 654 l 1
 396.704845815 654 l 0
 614.831631161 654 749 561.626953125 749 296 c 0
 749 28 l 0
 749 -131.911132812 649.336914062 -190 526 -190 c 0
 293.786982249 -190 l 0
 176.58203125 -190 75 -130.903320312 75 31.34375 c 0
 75 250.65625 l 0
 75 412.805664062 178.504882812 472 297.286343612 472 c 0
 406.264317181 472 l 0
 493.566376136 472 563.995594714 421.799804688 563.995594714 286.060546875 c 0
 561 0 l 1
 513 0 l 1
 513 69.1103515625 l 1
 496.837780834 50.748046875 l 0
 467.760303023 17.8408203125 434.891948271 -6 378.461538462 -6 c 0
 300.953448595 -6 240.159763314 50.966796875 240.159763314 137.854492188 c 0
 240.885462555 240.426757812 315.007773782 284 433.030837004 284 c 0
 453.765741155 284 483.090166403 282.979492188 507.097135703 279.116210938 c 0
 518.110132159 277.34375 l 1
 518.110132159 289 l 0
 518.110132159 384.0234375 471.873657764 428 406.264317181 428 c 0
 297.286343612 428 l 0
 207.443182991 428 129 376.900390625 129 250.892578125 c 0
 129 31.0361328125 l 0
 129 -95.044921875 205.612801636 -142 293.786982249 -142 c 0
 526 -142 l 0
 619.495117188 -142 701 -96.1787109375 701 28 c 0
 701 296 l 0
 701 524.193359375 586.816031973 608 396.704845815 608 c 0
 333.612334802 608 l 1
440.678414097 243 m 0
 383.295446724 243 285.319526627 235.841796875 285.319526627 143 c 0
 285.319526627 87.8408203125 325.601498937 49 385.98816568 49 c 0
 448.87298909 49 513 96.3759765625 513 194 c 0
 513 237.912109375 l 1
 509.646639248 238.934570312 l 0
 484.367252031 241.985351562 461.056705156 243 440.678414097 243 c 0
EndSplineSet
Layer: 2
SplineSet
303 140 m 0
 303 85.5322265625 347.157226562 50 403 50 c 0
 467.693359375 50 533 100.08984375 533 204 c 0
 533 233.629882812 l 1
 528.383789062 233.985351562 l 0
 502.275390625 235.993164062 478.158203125 237 457 237 c 0
 355.65625 237 303 210.15234375 303 140 c 0
533 289 m 2
 533 383.185546875 487.48046875 423 411 423 c 0
 307 423 l 0
 215.0078125 423 139 374.8984375 139 254 c 0
 139 38 l 0
 139 -86.5986328125 213.140625 -132 305 -132 c 0
 551 -132 l 0
 642.747070312 -132 721 -86.7587890625 721 38 c 0
 721 306 l 0
 721 535.270507812 607.936523438 618 411 618 c 0
 340 618 l 1
 340 674 l 1
 411 674 l 0
 641.08984375 674 779 578.009765625 779 306 c 0
 779 38 l 0
 779 -128.609375 676.168945312 -190 551 -190 c 0
 305 -190 l 0
 179.791015625 -190 75 -128.55078125 75 38 c 0
 75 254 l 0
 75 416.849609375 181.751953125 477 307 477 c 0
 421 477 l 0
 514.622070312 477 591 424.45703125 591 289 c 0
 591 0 l 1
 533 0 l 1
 533 71.435546875 l 1
 523.956054688 59 l 0
 493.00390625 15.048828125 445.701171875 -6 393 -6 c 0
 307.483398438 -6 243 54.8154296875 243 146 c 0
 243 232.189453125 317.1484375 288.831054688 454.567382812 288.831054688 c 0
 477.196289062 288.831054688 501.49609375 287.274414062 527.379882812 284.0390625 c 0
 533 283.3359375 l 1
 533 289 l 2
EndSplineSet
Layer: 3
EndChar

StartChar: infinity
Encoding: 176 8734 117
Width: 710
VWidth: 0
Flags: W
HStem: 96 38<168.755 269.898 449.014 548.095> 376 38<168.755 269.899 449.015 548.095>
VStem: 80 40<185.721 324.279> 590 40<178.906 331.094>
LayerCount: 4
Back
SplineSet
234 364 m 4
 184 364 142 315 142 255 c 4
 142 195 184 146 234 146 c 4
 284 146 314 195 344 255 c 5
 314 315 284 364 234 364 c 4
234 424 m 4
 303 424 339 378 376 312 c 5
 415 378 457 424 526 424 c 4
 614 424 670 349 670 255 c 4
 670 161 614 86 526 86 c 4
 457 86 415 132 376 198 c 5
 339 132 303 86 234 86 c 4
 146 86 80 161 80 255 c 4
 80 349 146 424 234 424 c 4
526 364 m 4
 476 364 440 315 406 255 c 5
 440 195 476 146 526 146 c 4
 576 146 608 195 608 255 c 4
 608 315 576 364 526 364 c 4
EndSplineSet
Fore
SplineSet
336.234278601 259.471679688 m 0
 307.921862426 318.635742188 275.62690283 376 220.480686695 376 c 0
 165.911149578 376 120 319.239257812 120 255 c 0
 120 190.760742188 165.911149578 134 220.480686695 134 c 0
 275.62596818 134 307.922797076 191.366210938 336.234278601 250.528320312 c 0
 338.374626978 255 l 1
 336.234278601 259.471679688 l 0
80 255 m 0
 80 344.431640625 142.291610783 414 220.480686695 414 c 0
 281.035722069 414 312.701662252 372.96875 348.037972774 307.110351562 c 0
 356.167558007 291.95703125 l 1
 364.626140021 306.913085938 l 0
 401.657905546 372.392578125 439.130825845 414 499.948497854 414 c 0
 577.55528685 414 630 345.342773438 630 255 c 0
 630 164.657226562 577.55528685 96 499.948497854 96 c 0
 439.130825845 96 401.657905546 137.607421875 364.626140021 203.086914062 c 0
 356.167558007 218.04296875 l 1
 348.037972774 202.889648438 l 0
 312.701662252 137.032226562 281.035722069 96 220.480686695 96 c 0
 142.291610783 96 80 165.568359375 80 255 c 0
590 255 m 0
 590 317.760742188 555.460162118 376 499.948497854 376 c 0
 445.188292147 376 407.141496781 319.456054688 374.857752984 259.9296875 c 0
 372.183719488 255 l 1
 374.857752984 250.0703125 l 0
 407.141496781 190.543945312 445.187357497 134 499.948497854 134 c 0
 555.459227468 134 590 192.240234375 590 255 c 0
EndSplineSet
Layer: 2
Layer: 3
EndChar

StartChar: lessequal
Encoding: 178 8804 118
Width: 480
Flags: W
HStem: 105 36<80 400>
VStem: 80 320<297.601 333.601>
LayerCount: 4
Back
Fore
SplineSet
80 105 m 1
 80 141 l 1
 400 141 l 1
 400 105 l 1
 80 105 l 1
400 407.717773438 m 1
 96.5302734375 323 l 1
 400 238.282226562 l 1
 400 203.15625 l 1
 80 297.600585938 l 1
 80 348.399414062 l 1
 400 442.84375 l 1
 400 407.717773438 l 1
EndSplineSet
Layer: 2
Layer: 3
EndChar

StartChar: greaterequal
Encoding: 179 8805 119
Width: 480
Flags: W
HStem: 105 36<80 400>
VStem: 80 320<141 177>
LayerCount: 4
Back
Fore
SplineSet
80 141 m 1
 400 141 l 1
 400 105 l 1
 80 105 l 1
 80 141 l 1
80 238.282226562 m 1
 383.469726562 323 l 1
 80 407.717773438 l 1
 80 442.84375 l 1
 400 348.399414062 l 1
 400 297.600585938 l 1
 80 203.15625 l 1
 80 238.282226562 l 1
EndSplineSet
Layer: 2
Layer: 3
EndChar

StartChar: notequal
Encoding: 173 8800 120
Width: 480
Flags: W
HStem: 166 32<80 173.791 226.555 400> 304 32<80 253.445 306.209 400>
VStem: 80 320<166 198 304 336>
LayerCount: 4
Back
Fore
SplineSet
270.65703125 336 m 1
 334.321289062 434 l 1
 372.208984375 434 l 1
 306.208984375 336 l 1
 400 336 l 1
 400 304 l 1
 284.682617188 304 l 1
 226.55546875 198 l 1
 400 198 l 1
 400 166 l 1
 209.34296875 166 l 1
 145.678710938 68 l 1
 107.791015625 68 l 1
 173.791015625 166 l 1
 80 166 l 1
 80 198 l 1
 195.317382812 198 l 1
 253.44453125 304 l 1
 80 304 l 1
 80 336 l 1
 270.65703125 336 l 1
EndSplineSet
Layer: 2
Layer: 3
EndChar

StartChar: florin
Encoding: 196 402 121
Width: 350
VWidth: 0
Flags: W
HStem: -185 42<35 126.829> 432.523 42.4111<85 145 195 285> 615 42<212.558 305>
VStem: 145 50<-126.775 432.523 474.935 598.903>
LayerCount: 4
Back
Fore
SplineSet
195 432.5234375 m 1
 195 -64 l 2
 195 -148.435546875 139.133789062 -185 85 -185 c 0
 35 -185 l 1
 35 -143 l 1
 85 -143 l 0
 116.544921875 -143 145 -116.65234375 145 -64 c 0
 145 432.5234375 l 1
 85 432.5234375 l 1
 85 474.934570312 l 1
 145 474.934570312 l 1
 145 537 l 0
 145 620.377929688 200.827148438 657 255 657 c 0
 305 657 l 1
 305 615 l 1
 255 615 l 0
 223.524414062 615 195 588.755859375 195 537 c 0
 195 474.934570312 l 1
 285 474.934570312 l 1
 285 432.5234375 l 1
 195 432.5234375 l 1
EndSplineSet
Layer: 2
Layer: 3
EndChar

StartChar: fraction
Encoding: 218 8260 122
Width: 384
VWidth: 0
Flags: W
HStem: 0 21G<0 51.4488>
LayerCount: 4
Back
Fore
SplineSet
0 0 m 1
 329.205078125 647 l 1
 370.478515625 647 l 1
 41.2724609375 0 l 1
 0 0 l 1
EndSplineSet
Layer: 2
Layer: 3
EndChar

StartChar: mu
Encoding: 181 181 123
Width: 520
VWidth: 0
Flags: W
HStem: -6 46<180.661 310.752 431.731 475>
VStem: 75 50<-185 75.6016 100.197 457> 365 50<100.197 457>
LayerCount: 4
Back
SplineSet
145 204 m 5
 145 106 203 60 265 60 c 4
 327 60 385 106 385 204 c 6
 385 477 l 5
 455 477 l 29
 435 204 l 21
 435 60 361 -6 265 -6 c 4
 178 -6 105 61 105 204 c 5
 145 204 l 5
145 477 m 5
 145 -185 l 5
 75 -185 l 5
 75 477 l 5
 145 477 l 5
395 124 m 5
 396 124 l 5
 455 477 l 5
 455 124 l 6
 455 79 480 60 505 60 c 6
 515 60 l 5
 515 -6 l 5
 505 -6 l 6
 446 -6 395 35 395 124 c 5
EndSplineSet
Fore
SplineSet
75 -185 m 1
 75 457 l 1
 125 457 l 1
 125 194 l 0
 125 91.4267578125 183.727376302 40 245.833333333 40 c 0
 307.939290365 40 365 91.4267578125 365 194 c 0
 365 457 l 1
 415 457 l 1
 415 114 l 0
 415 64.763671875 443.979492188 40 475 40 c 1
 475 -6 l 1
 433.791992188 -6 398.083007812 15.29296875 382.467773438 61.21875 c 0
 375.5234375 81.642578125 l 1
 364.47273763 63.14453125 l 0
 338.778320312 16.427734375 296.409342448 -6 245.833333333 -6 c 0
 205.442708333 -6 169.013264974 12.466796875 143.0703125 50.9052734375 c 0
 125 75.6015625 l 1
 125 -185 l 1
 75 -185 l 1
EndSplineSet
Layer: 2
Layer: 3
EndChar

StartChar: oslash
Encoding: 191 248 124
Width: 465
VWidth: 0
Flags: W
HStem: -5.07129 49.0713<164.137 294.538> 433 49.0713<161.295 293.108>
VStem: 52 45<118.492 361.583> 357.234 44.7656<114.966 364.6>
AnchorPoint: "Bottom" 7 0 basechar 0
AnchorPoint: "Center" 7 0 basechar 0
AnchorPoint: "Top" 252 546 basechar 0
LayerCount: 4
Back
SplineSet
387 507 m 5
 455 507 l 5
 118 -30 l 5
 50 -30 l 5
 387 507 l 5
252 483 m 4
 348 483 447 417 447 273 c 6
 447 204 l 6
 447 61 349 -6 252 -6 c 4
 155 -6 57 61 57 204 c 6
 57 272 l 6
 57 416 155 483 252 483 c 4
252 421 m 4
 189 421 124 374 124 274 c 6
 124 204 l 6
 124 103 189 56 252 56 c 4
 315 56 380 103 380 203 c 6
 380 273 l 6
 380 374 315 421 252 421 c 4
EndSplineSet
Fore
SplineSet
297.445739746 408.575195312 m 0
 278.219604492 421.088867188 252.994979858 433 228.171875 433 c 0
 165.09185791 433 97 379.180664062 97 274 c 0
 97 204 l 0
 97 167.842773438 108.58984375 135.369140625 121.220703125 112.211914062 c 0
 128.987487793 97.1982421875 l 1
 305.498641968 403.333984375 l 1
 297.445739746 408.575195312 l 0
326.161605835 446.040039062 m 1
 359.60748291 507 l 1
 399.830078125 507 l 1
 349.478561401 422.959960938 l 1
 353.935791016 417.127929688 l 0
 383.038085938 381.404296875 402 337.452148438 402 274.334960938 c 0
 402 202.665039062 l 0
 402 59.966796875 313.14642334 -5.0712890625 228.171875 -5.0712890625 c 0
 198.028182983 -5.0712890625 167.308319092 6.6318359375 138.847229004 25.671875 c 0
 131.060806274 30.880859375 l 1
 95.42578125 -30 l 1
 55.169921875 -30 l 1
 106.471679688 54.134765625 l 1
 101.486328125 59.9814453125 l 0
 71.9482421875 94.6201171875 52 139.6484375 52 202.665039062 c 0
 52 273.295898438 l 0
 52 417.0703125 143.218933105 482.071289062 228.171875 482.071289062 c 0
 258.482116699 482.071289062 289.101150513 471.346679688 318.34727478 451.375976562 c 0
 326.161605835 446.040039062 l 1
151.822799683 73.7939453125 m 1
 159.71005249 68.4970703125 l 2
 179.969696045 54.892578125 204.375976562 44 228.171875 44 c 0
 291.25189209 44 357.234375 97.8193359375 357.234375 203 c 0
 357.234375 273 l 0
 357.234375 309.168945312 346.505874634 340.635742188 335.979934692 363.471679688 c 0
 328.645446777 379.384765625 l 1
 151.822799683 73.7939453125 l 1
EndSplineSet
Layer: 2
Layer: 3
EndChar

StartChar: integral
Encoding: 186 8747 125
Width: 330
VWidth: 0
Flags: W
HStem: -185 37<35 122.961> 600 37<207.064 295>
VStem: 145 40<-127.309 579.632>
LayerCount: 4
Back
Fore
SplineSet
185 517 m 0
 185 -64 l 2
 185 -149.50390625 138.349609375 -185 85 -185 c 0
 35 -185 l 1
 35 -148 l 1
 85 -148 l 0
 117.64453125 -148 145 -115.903320312 145 -64 c 0
 145 517 l 0
 145 601.448242188 191.61328125 637 245 637 c 0
 295 637 l 1
 295 600 l 1
 245 600 l 0
 212.415039062 600 185 568.002929688 185 517 c 0
EndSplineSet
Layer: 2
Layer: 3
EndChar

StartChar: trademark
Encoding: 170 8482 126
Width: 628
VWidth: 0
Flags: W
HStem: 622 25<60 149 176 259.097>
VStem: 149 27<334 622> 314.931 24.1944<334 605.121> 542 26<334 606.36>
LayerCount: 4
Back
Fore
SplineSet
60 622 m 1
 60 647 l 1
 259.097222222 647 l 1
 259.097222222 622 l 1
 176 622 l 1
 176 334 l 1
 149 334 l 1
 149 622 l 1
 60 622 l 1
314.930555556 334 m 1
 314.930555556 647 l 1
 339.009589301 647 l 1
 436.791531033 441.087890625 l 1
 542.095703125 647 l 1
 568 647 l 1
 568 334 l 1
 542 334 l 1
 542 606.360351562 l 1
 446.901326497 416 l 1
 427.679538303 416 l 1
 339.125 605.12109375 l 1
 339.125 334 l 1
 314.930555556 334 l 1
EndSplineSet
Layer: 2
Layer: 3
EndChar

StartChar: guillemotright
Encoding: 200 187 128
Width: 505
Flags: W
LayerCount: 4
Back
Fore
SplineSet
278.918890466 427 m 1
 413.37109375 269.252929688 l 1
 413.37109375 230.747070312 l 1
 278.918890466 63 l 1
 241.179409434 63 l 1
 380.497070312 250 l 1
 241.179409434 427 l 1
 278.918890466 427 l 1
125.823242188 427 m 1
 252.191684316 269.252929688 l 1
 252.191684316 230.747070312 l 1
 125.823242188 63 l 1
 80 63 l 1
 225.117026899 250 l 1
 80 427 l 1
 125.823242188 427 l 1
EndSplineSet
Layer: 2
Layer: 3
EndChar

StartChar: guillemotleft
Encoding: 199 171 129
Width: 505
Flags: W
LayerCount: 4
Back
Fore
SplineSet
214.452203284 427 m 1
 252.191684316 427 l 1
 112.874023438 250 l 1
 252.191684316 63 l 1
 214.452203284 63 l 1
 80 230.747070312 l 1
 80 269.252929688 l 1
 214.452203284 427 l 1
367.547851562 427 m 1
 413.37109375 427 l 1
 268.254066851 250 l 1
 413.37109375 63 l 1
 367.547851562 63 l 1
 241.179409434 230.747070312 l 1
 241.179409434 269.252929688 l 1
 367.547851562 427 l 1
EndSplineSet
Layer: 2
Layer: 3
EndChar

StartChar: underscore
Encoding: 95 95 130
Width: 400
VWidth: 0
Flags: W
HStem: -46 46<35 365>
VStem: 35 330<-46 0>
LayerCount: 4
Back
Fore
SplineSet
35 -46 m 1
 35 0 l 1
 365 0 l 1
 365 -46 l 1
 35 -46 l 1
EndSplineSet
Layer: 2
Layer: 3
EndChar

StartChar: dieresis
Encoding: 172 168 131
Width: 354
VWidth: 0
Flags: W
HStem: 550 74<52.5767 121.423 232.577 301.423>
VStem: 50 74<552.577 621.423> 230 74<552.577 621.423>
AnchorPoint: "Top" 187 477 mark 0
LayerCount: 4
Back
Fore
SplineSet
230 587 m 0
 230 609.788085938 244.211914062 624 267 624 c 0
 289.788085938 624 304 609.788085938 304 587 c 0
 304 564.211914062 289.788085938 550 267 550 c 0
 244.211914062 550 230 564.211914062 230 587 c 0
50 587 m 0
 50 609.788085938 64.2119140625 624 87 624 c 0
 109.788085938 624 124 609.788085938 124 587 c 0
 124 564.211914062 109.788085938 550 87 550 c 0
 64.2119140625 550 50 564.211914062 50 587 c 0
EndSplineSet
Layer: 2
Layer: 3
EndChar

StartChar: circumflex
Encoding: 246 710 143
Width: 378
Flags: W
HStem: 546 101
VStem: 50 246.871
AnchorPoint: "Top" 199 477 mark 0
LayerCount: 4
Back
Fore
SplineSet
246.313476562 546 m 1
 173.435546875 612.541015625 l 1
 100.556640625 546 l 1
 50 546 l 1
 159.346679688 647 l 1
 187.5234375 647 l 1
 296.87109375 546 l 1
 246.313476562 546 l 1
EndSplineSet
Layer: 2
Layer: 3
EndChar

StartChar: degree
Encoding: 161 176 151
Width: 304
VWidth: 0
Flags: W
HStem: 449 34<105.524 198.68> 619 34<105.525 198.682>
VStem: 50 34<504.886 597.116> 220 34<504.318 597.68>
LayerCount: 4
Back
Fore
SplineSet
50 551 m 0
 50 612.805664062 90.1943359375 653 152 653 c 0
 213.805664062 653 254 612.805664062 254 551 c 0
 254 489.194335938 213.805664062 449 152 449 c 0
 90.1943359375 449 50 489.194335938 50 551 c 0
220 551 m 0
 220 591.157226562 192.166992188 619 152 619 c 0
 112.876953125 619 84 591.319335938 84 551 c 0
 84 510.686523438 112.87109375 483 152 483 c 0
 192.157226562 483 220 510.833007812 220 551 c 0
EndSplineSet
Layer: 2
Layer: 3
EndChar

StartChar: dotlessi
Encoding: 245 305 156
Width: 194
VWidth: 0
Flags: W
VStem: 72 50<10 467>
AnchorPoint: "Bottom" 107 0 basechar 0
AnchorPoint: "Top" 107 477 basechar 0
LayerCount: 4
Back
Fore
SplineSet
72 10 m 1
 72 467 l 1
 122 467 l 1
 122 10 l 1
 72 10 l 1
EndSplineSet
Layer: 2
Layer: 3
EndChar

StartChar: acute
Encoding: 171 180 169
Width: 316
Flags: W
HStem: 456 191
VStem: 50 195.807
LayerCount: 4
Back
Fore
SplineSet
50 456 m 1
 189.403320312 647 l 1
 245.806640625 647 l 1
 96.4462890625 456 l 1
 50 456 l 1
EndSplineSet
Layer: 2
Layer: 3
EndChar

StartChar: asciitilde
Encoding: 126 126 180
Width: 480
VWidth: 0
Flags: W
HStem: 204 45<258.591 365.283> 269 46<105.122 220.312>
LayerCount: 4
Back
SplineSet
64.5 209 m 5
 23.5 261 l 5
 115.5 335 206.5 325 279.5 280 c 4
 346.5 238 385.5 237 455.5 293 c 5
 496.5 241 l 5
 405.5 169 325.5 169 240.5 222 c 4
 184.5 257 131.5 263 64.5 209 c 5
EndSplineSet
Fore
SplineSet
165.002929688 269 m 0
 140.200195312 269 114.239257812 257.194335938 88.814453125 234.502929688 c 1
 66 269.395507812 l 1
 103.708984375 302.962890625 135.751953125 315 167.002929688 315 c 0
 198.139853717 315 222.9527773 303.061523438 245.254767259 282.10546875 c 1
 267.360781911 261.768554688 285.771845458 249 311.002929688 249 c 0
 334.994140625 249 358.41796875 262.590820312 385.254882812 287.399414062 c 1
 408.071289062 252.50390625 l 1
 371.326171875 218.493164062 337.84375 204 307.002929688 204 c 0
 279.672930585 204 254.532564927 216.78125 228.694853801 239.95703125 c 1
 209.592160731 257.610351562 189.431201004 269 165.002929688 269 c 0
EndSplineSet
Layer: 2
SplineSet
90.5263671875 230.58984375 m 1
 83.54296875 237.747070312 l 1
 87.1220703125 241.239257812 l 0
 154.06640625 308.140625 216.134765625 299.915039062 269.879882812 257.953125 c 0
 330.17578125 213.166015625 375.693359375 212.32421875 439.696289062 273.08203125 c 0
 443.278320312 276.571289062 l 1
 450.255859375 269.408203125 l 1
 446.673828125 265.918945312 l 0
 379.9296875 202.479492188 327.29296875 202.791992188 263.818359375 250 c 0
 213.131835938 289.622070312 157.705078125 297.717773438 94.10546875 234.081054688 c 0
 90.5263671875 230.58984375 l 1
EndSplineSet
Layer: 3
EndChar

StartChar: tilde
Encoding: 247 732 183
Width: 372
Flags: W
HStem: 550 30<204.896 274.381> 609 30<97.0954 166.084>
VStem: 50 30.0752<556 592.431> 291.059 30.1035<596.725 632>
AnchorPoint: "Top" 196 477 mark 0
LayerCount: 4
Back
SplineSet
74.55859375 556.018554688 m 21
 74.55859375 636.01953125 159.37109375 657.696289062 196 604 c 4
 232.62890625 550.303710938 317.44140625 571.98046875 317.44140625 651.981445312 c 1028
EndSplineSet
Fore
SplineSet
172.977539062 585.430664062 m 1
 163.500976562 600.830078125 148.000976562 609 132.578125 609 c 0
 101.716796875 609 83.177734375 585.25390625 80.0751953125 556 c 1
 50 556 l 1
 54.0732421875 602.865234375 84.634765625 639 130.578125 639 c 0
 155.24609375 639 181.278320312 626.575195312 198.35546875 602.307617188 c 0
 209.220703125 586.61328125 224.836914062 580 240.578125 580 c 0
 265.779296875 580 287.416015625 599.57421875 291.05859375 632 c 1
 321.162109375 632 l 1
 316.301757812 578.754882812 277.55078125 550 238.578125 550 c 0
 213.59765625 550 189.881835938 560.518554688 172.977539062 585.430664062 c 1
EndSplineSet
Layer: 2
Layer: 3
EndChar

StartChar: guilsinglleft
Encoding: 220 8249 188
Width: 359
Flags: W
VStem: 80 187.371
LayerCount: 4
Back
Fore
SplineSet
217.547851562 427 m 1
 267.37109375 427 l 1
 116.874023438 250 l 1
 267.37109375 63 l 1
 217.547851562 63 l 1
 80 230.747070312 l 1
 80 269.252929688 l 1
 217.547851562 427 l 1
EndSplineSet
Layer: 2
Layer: 3
EndChar

StartChar: guilsinglright
Encoding: 221 8250 189
Width: 359
Flags: W
VStem: 80 187.371
LayerCount: 4
Back
Fore
SplineSet
129.823242188 427 m 1
 267.37109375 269.252929688 l 1
 267.37109375 230.747070312 l 1
 129.823242188 63 l 1
 80 63 l 1
 230.497070312 250 l 1
 80 427 l 1
 129.823242188 427 l 1
EndSplineSet
Layer: 2
Layer: 3
EndChar

StartChar: cedilla
Encoding: 252 184 190
Width: 322
Flags: W
HStem: -191 35<61.4355 220.067> -50 50<154.782 176.399>
VStem: 229.68 38<-145.418 -74.4868>
AnchorPoint: "Bottom" 190 0 mark 0
LayerCount: 4
Back
SplineSet
167 0 m 5xd0
 221 0 l 5
 181 -79 l 5xd0
 127 -79 l 5xb0
 167 0 l 5xd0
77 -140 m 5
 98 -147 118 -151 157 -151 c 4
 202 -151 234 -144 234 -116 c 4
 234 -86 201 -79 167 -79 c 5xd0
 167 -45 l 5xb0
 244 -45 292 -62 292 -116 c 4
 292 -179 244 -206 157 -206 c 4
 105 -206 77 -201 50 -191 c 5
 77 -140 l 5
EndSplineSet
Fore
SplineSet
154.782226562 0 m 1
 186.303710938 0 l 1
 167.96875 -55.7041015625 l 1
 182.8359375 -56.9638671875 l 0
 241.525390625 -61.9384765625 267.6796875 -76.1513671875 267.6796875 -114 c 0
 267.6796875 -168.688476562 228.862304688 -191 142.6796875 -191 c 0
 98.33984375 -191 72.5361328125 -187.243164062 50 -180.323242188 c 1
 67.6181640625 -147.045898438 l 1
 88.6650390625 -153.198242188 107.904296875 -156 142.6796875 -156 c 0
 184.455078125 -156 229.6796875 -153.685546875 229.6796875 -114 c 0
 229.6796875 -54.2099609375 184.251953125 -50 152.6796875 -50 c 0
 129.067382812 -50 l 1
 154.782226562 0 l 1
EndSplineSet
Layer: 2
Layer: 3
EndChar

StartChar: OE
Encoding: 206 338 193
Width: 803
VWidth: 0
Flags: W
HStem: -6 60<189.752 373.111 494 738> 318 50<494 697> 613 60<189.754 373.102 492 737>
VStem: 65 54<125.089 542.393> 440 54<51.623 77.9727 117.753 318 368 549.583 589.027 615.27>
LayerCount: 4
Back
SplineSet
460 667 m 5xf8
 777 667 l 5
 777 597 l 5
 532 597 l 5
 532 378 l 5
 737 378 l 5
 737 308 l 5
 534 308 l 5
 532 70 l 5
 778 70 l 5
 777 0 l 5
 460 0 l 5
 460 667 l 5xf8
300 603 m 4
 210 603 139 563 139 446 c 6
 139 222 l 6
 139 104 210 64 300 64 c 4
 390 64 461 104 461 222 c 6
 461 446 l 6xf4
 461 563 390 603 300 603 c 4
300 673 m 4
 427 673 505 611 505 446 c 6
 505 222 l 6
 505 56 427 -6 300 -6 c 4
 173 -6 65 56 65 222 c 6
 65 446 l 6
 65 611 173 673 300 673 c 4
EndSplineSet
Fore
SplineSet
440 469 m 0
 440 575.483398438 361.493708625 613 280.591900312 613 c 0
 192.924771223 613 119 569.03125 119 446 c 0
 119 222 l 0
 119 98.015625 192.892721111 54 280.591900312 54 c 0
 361.534000195 54 440 91.5419921875 440 199 c 0
 440 469 l 0
440 589.02734375 m 1
 440 667 l 1
 737 667 l 1
 737 615.26953125 l 1
 492 615.26953125 l 1
 492 368 l 1
 697 368 l 1
 697 318 l 1
 494 318 l 1
 494 51.623046875 l 1
 738 51.623046875 l 1
 738 0 l 1
 440 0 l 1
 440 77.97265625 l 1
 423.284493039 54.8701171875 l 0
 392.8378024 12.9169921875 344.680219894 -6 280.591900312 -6 c 0
 164.86352463 -6 65 53.953125 65 218.553710938 c 0
 65 449.477539062 l 0
 65 613.022460938 164.844294563 673 280.591900312 673 c 0
 344.679304176 673 392.8378024 654.08203125 423.284493039 612.129882812 c 0
 440 589.02734375 l 1
EndSplineSet
Layer: 2
Layer: 3
EndChar

StartChar: breve
Encoding: 249 728 194
Width: 358
VWidth: 0
Flags: W
HStem: 546 32<118.456 240.281>
VStem: 50 31.1035<614.164 653> 277.117 30.1162<614.942 653>
AnchorPoint: "Top" 189 477 mark 0
LayerCount: 4
Back
Fore
SplineSet
178.6171875 546 m 0
 108.815429688 546 55.171875 588.796875 50 653 c 1
 81.103515625 653 l 1
 86.2470703125 605.28515625 124.193359375 578 178.6171875 578 c 0
 233.6875 578 271.948242188 606.369140625 277.1171875 653 c 1
 307.233398438 653 l 1
 301.9765625 587.743164062 247.813476562 546 178.6171875 546 c 0
EndSplineSet
Layer: 2
Layer: 3
EndChar

StartChar: macron
Encoding: 248 175 195
Width: 350
Flags: W
HStem: 556 36<50 300>
VStem: 50 250<556 592>
AnchorPoint: "Top" 186 477 mark 0
LayerCount: 4
Back
Fore
SplineSet
50 556 m 1
 50 592 l 1
 300 592 l 1
 300 556 l 1
 50 556 l 1
EndSplineSet
Layer: 2
Layer: 3
EndChar

StartChar: dotaccent
Encoding: 250 729 196
Width: 174
VWidth: 0
Flags: W
HStem: 550 74<52.7115 121.423>
VStem: 50 74<552.933 621.068>
AnchorPoint: "Top" 97.5 477 mark 0
LayerCount: 4
Back
Fore
SplineSet
50 587 m 0
 50 609.596679688 65.1708984375 624 87 624 c 0
 109.788085938 624 124 609.788085938 124 587 c 0
 124 564.211914062 109.788085938 550 87 550 c 0
 65.1708984375 550 50 564.404296875 50 587 c 0
EndSplineSet
Layer: 2
Layer: 3
EndChar

StartChar: ring
Encoding: 251 730 197
Width: 260
VWidth: 0
Flags: W
HStem: 519 21<98.0643 162.265> 673 20<102.512 157.755>
VStem: 53 23<560.443 645.039> 185 22<562.259 643.39>
AnchorPoint: "Top" 140 477 mark 0
LayerCount: 4
Back
Fore
SplineSet
53 596 m 0
 53 656.05859375 84.0703125 693 130 693 c 0
 176.911132812 693 207 656.194335938 207 596 c 0
 207 549.198242188 176.801757812 519 130 519 c 0
 84.1748046875 519 53 549.333984375 53 596 c 0
185 596 m 0
 185 638.916015625 162.7734375 673 130 673 c 0
 97.0205078125 673 76 638.498046875 76 596 c 0
 76 564.336914062 97.3095703125 540 130 540 c 0
 162.48046875 540 185 564.025390625 185 596 c 0
EndSplineSet
Layer: 2
Layer: 3
EndChar

StartChar: caron
Encoding: 255 711 198
Width: 378
Flags: W
HStem: 546 101
VStem: 50 246.871
AnchorPoint: "Top" 199 477 mark 0
LayerCount: 4
Back
Fore
SplineSet
246.313476562 546 m 1
 173.435546875 612.541015625 l 1
 100.556640625 546 l 1
 50 546 l 1
 159.346679688 647 l 1
 187.5234375 647 l 1
 296.87109375 546 l 1
 246.313476562 546 l 1
EndSplineSet
Layer: 2
Layer: 3
EndChar

StartChar: hungarumlaut
Encoding: 253 733 199
Width: 383
Flags: W
HStem: 546 101
VStem: 50 265.66
AnchorPoint: "Top" 161 477 mark 0
LayerCount: 4
Back
Fore
SplineSet
263.603515625 647 m 1
 315.66015625 647 l 1
 243.875 546 l 1
 201 546 l 1
 263.603515625 647 l 1
112.603515625 647 m 1
 164.66015625 647 l 1
 92.875 546 l 1
 50 546 l 1
 112.603515625 647 l 1
EndSplineSet
Layer: 2
Layer: 3
EndChar

StartChar: Ldot
Encoding: 309 319 253
Width: 480
VWidth: 0
Flags: W
HStem: 0 51.5459<139 425> 293 82<220.301 286.172> 647 20G<85 139>
VStem: 85 54<51.5459 667> 216.645 73.1828<295.928 372.072>
LayerCount: 4
Back
Fore
SplineSet
85 0 m 1
 85 667 l 1
 139 667 l 1
 139 51.5458984375 l 1
 425 51.5458984375 l 1
 425 0 l 1
 85 0 l 1
216.64516129 334 m 0
 216.64516129 358.734375 231.161794355 375 253.23655914 375 c 0
 275.311323925 375 289.827956989 358.734375 289.827956989 334 c 0
 289.827956989 309.265625 275.311323925 293 253.23655914 293 c 0
 231.161794355 293 216.64516129 309.265625 216.64516129 334 c 0
EndSplineSet
Layer: 2
Layer: 3
EndChar

StartChar: ldot
Encoding: 310 320 254
Width: 344
VWidth: 0
Flags: W
HStem: 293 82<216.097 289.903> 647 20G<75 125>
VStem: 75 50<20 667> 212 82<297.097 370.903>
LayerCount: 4
Back
Fore
SplineSet
75 20 m 1
 75 667 l 1
 125 667 l 1
 125 20 l 1
 75 20 l 1
212 334 m 0
 212 358.734375 228.265625 375 253 375 c 0
 277.734375 375 294 358.734375 294 334 c 0
 294 309.265625 277.734375 293 253 293 c 0
 228.265625 293 212 309.265625 212 334 c 0
EndSplineSet
Layer: 2
Layer: 3
EndChar

StartChar: cent
Encoding: 162 162 354
Width: 400
VWidth: 0
Flags: W
HStem: -5.63379 45.7051<230 309.345> 415.907 46.8789<230 312.912>
VStem: 50 48<106.36 365.895> 200 30<-86 -6.17188 50.2275 415.907 463.172 543>
LayerCount: 4
Back
SplineSet
220 563 m 5
 270 563 l 5
 270 -86 l 5
 220 -86 l 5
 220 563 l 5
245 483 m 4
 321 483 368 458 393 437 c 4
 355 383 l 5
 334 400 309 417 245 417 c 4
 173 417 118 371 118 273 c 6
 118 204 l 6
 118 107 170 60 245 60 c 4
 308 60 333 76 359 99 c 5
 400 47 l 5
 368 17 320 -6 245 -6 c 4
 148 -6 50 60 50 204 c 6
 50 272 l 6
 50 416 148 483 245 483 c 4
EndSplineSet
Fore
SplineSet
200 463.171875 m 1
 200 543 l 1
 230 543 l 1
 230 462.786132812 l 1
 239.182617188 462.033203125 l 0
 292.135742188 457.693359375 328.293945312 440.68359375 349.416015625 425.072265625 c 1
 322.8984375 387.389648438 l 1
 304.4140625 400.979492188 281.58984375 411.420898438 240.866210938 414.962890625 c 0
 230 415.907226562 l 1
 230 40.0712890625 l 1
 240.885742188 41.0390625 l 0
 282.456054688 44.734375 307.764648438 58.0439453125 327.65234375 74.55859375 c 1
 356.384765625 38.1171875 l 1
 330.330078125 15.708984375 293.524414062 -1.46875 239.345703125 -5.021484375 c 0
 230 -5.6337890625 l 1
 230 -86 l 1
 200 -86 l 1
 200 -6.171875 l 1
 192.957835478 -5.0771484375 l 0
 125.782494638 5.3681640625 50 66.9814453125 50 194 c 0
 50 262 l 0
 50 389.0625 125.840590533 451.641601562 192.957835478 462.077148438 c 0
 200 463.171875 l 1
200 426.837890625 m 1
 190.617513021 424.859375 l 2
 139.085669424 413.995117188 98 362.76171875 98 273 c 0
 98 204 l 0
 98 114.412109375 137.437787224 62.984375 190.659907322 52.1318359375 c 0
 200 50.2275390625 l 1
 200 426.837890625 l 1
EndSplineSet
Layer: 2
Layer: 3
EndChar

StartChar: yen
Encoding: 180 165 355
Width: 511
VWidth: 0
Flags: W
HStem: 0 21G<211.73 266.31> 253 36<88.7305 224.5 273.056 408.73> 378 36<78.7305 162.698 334.804 418.73>
VStem: 211.73 54<0 138.694> 224.5 48.5565<114.306 253>
LayerCount: 4
Back
Fore
SplineSet
162.697581241 414 m 1xe8
 40 657 l 1
 96.5146484375 657 l 1
 248.700545662 328.58203125 l 1
 403.893554688 657 l 1
 458.400390625 657 l 1
 334.803615638 414 l 1
 418.73046875 414 l 1
 418.73046875 378 l 1
 312.494127031 378 l 1
 271.899568707 289 l 1
 408.73046875 289 l 1
 408.73046875 253 l 1
 273.05605129 253 l 1xe8
 265.73046875 0 l 1
 211.73046875 0 l 1xf0
 224.499588959 253 l 1
 88.73046875 253 l 1
 88.73046875 289 l 1
 225.655193423 289 l 1
 185.061513218 378 l 1
 78.73046875 378 l 1
 78.73046875 414 l 1
 162.697581241 414 l 1xe8
EndSplineSet
Layer: 2
Layer: 3
EndChar

StartChar: brokenbar
Encoding: 416 166 356
Width: 212
VWidth: 0
Flags: W
HStem: 0 21G<85 127>
VStem: 85 42<0 244 414 657>
LayerCount: 4
Back
Fore
SplineSet
85 0 m 1
 85 244 l 1
 127 244 l 1
 127 0 l 1
 85 0 l 1
85 414 m 1
 85 657 l 1
 127 657 l 1
 127 414 l 1
 85 414 l 1
EndSplineSet
Layer: 2
Layer: 3
EndChar

StartChar: onequarter
Encoding: 417 188 357
Width: 784
VWidth: 0
Flags: W
HStem: 0 21G<203.274 254.835 650.514 685.514> 106 35<530.036 650.514 685.514 719.514>
VStem: 184.514 38<275 614.366> 650.514 35<0 106 141 239>
LayerCount: 4
Back
Fore
SplineSet
491.354658601 131.879882812 m 1
 601.432631427 392 l 1
 636.777309384 392 l 1
 530.035935212 141 l 1
 650.513671875 141 l 1
 650.513671875 239 l 1
 685.513671875 239 l 1
 685.513671875 141 l 1
 719.513671875 141 l 1
 719.513671875 106 l 1
 685.513671875 106 l 1
 685.513671875 0 l 1
 650.513671875 0 l 1
 650.513671875 106 l 1
 491.354658601 106 l 1
 491.354658601 131.879882812 l 1
123 624.5625 m 1
 187.874023438 657 l 1
 222.513671875 657 l 1
 222.513671875 275 l 1
 184.513671875 275 l 1
 184.513671875 614.366210938 l 1
 139.870117188 591.47265625 l 1
 123 624.5625 l 1
203.274414062 0 m 1
 538.021434919 647 l 1
 577.357001308 647 l 1
 244.546875 -0 l 1
 203.274414062 0 l 1
EndSplineSet
Layer: 2
Layer: 3
EndChar

StartChar: onehalf
Encoding: 418 189 358
Width: 784
VWidth: 0
Flags: W
HStem: 0 36.9326<549.955 720.514> 360 36<553.69 651.987>
VStem: 184.514 38<275 614.366> 674.514 38<235.712 338.934>
LayerCount: 4
Back
Fore
SplineSet
533.868164062 324.776367188 m 1
 504.77734375 346.755859375 l 1
 542.6875 390.643554688 587.416992188 396 607.513671875 396 c 0
 671.73828125 396 712.513671875 345.6953125 712.513671875 289.305664062 c 0
 712.513671875 270.89453125 708.616210938 244.033203125 675.646484375 201.255859375 c 0
 549.955078125 36.9326171875 l 1
 720.513671875 36.9326171875 l 1
 720.513671875 0 l 1
 496.513671875 0 l 1
 496.513671875 27.28515625 l 1
 648.418945312 225.12890625 l 1
 668.302734375 252.0390625 674.513671875 271.962890625 674.513671875 290.057617188 c 0
 674.513671875 326.858398438 648.44921875 360 607.513671875 360 c 0
 587.888671875 360 559.295898438 353.646484375 533.868164062 324.776367188 c 1
123 624.5625 m 1
 187.874023438 657 l 1
 222.513671875 657 l 1
 222.513671875 275 l 1
 184.513671875 275 l 1
 184.513671875 614.366210938 l 1
 139.870117188 591.47265625 l 1
 123 624.5625 l 1
203.274414062 0 m 1
 532.479492188 647 l 1
 573.752929688 647 l 1
 244.546875 -0 l 1
 203.274414062 0 l 1
EndSplineSet
Layer: 2
Layer: 3
EndChar

StartChar: threequarters
Encoding: 419 190 359
Width: 784
VWidth: 0
Flags: W
HStem: 0 21G<202.55 254.111 649.789 684.789> 106 35<529.312 649.789 684.789 718.789> 271 36<108.601 212.147> 453 36<126.789 210.286> 624 36<109.966 209.667>
VStem: 236.789 36.5461<331.43 428.21 516.459 595.486> 649.789 35<0 106 141 239>
LayerCount: 4
Back
Fore
SplineSet
90.14453125 588.776367188 m 1
 61.0537109375 610.755859375 l 1
 98.9638671875 654.643554688 143.693359375 660 163.7890625 660 c 0
 228.096679688 660 268.569912086 610.842773438 268.569912086 556 c 0
 268.569912086 524.349609375 252.693846979 494.856445312 234.497070312 479.772460938 c 0
 224.6484375 471.799804688 l 1
 234.692382812 464.07421875 l 0
 257.507483322 446.004882812 273.335151466 414.854492188 273.335151466 380 c 0
 273.335151466 322.080078125 232.100585938 271 163.7890625 271 c 0
 142.317382812 271 96.953125 276.377929688 57 322.383789062 c 1
 86.177734375 345.078125 l 1
 114.78125 312.05078125 144.22265625 307 163.7890625 307 c 0
 208.541015625 307 236.7890625 341.100585938 236.7890625 380 c 0
 236.7890625 410.900390625 214.646484375 453 163.7890625 453 c 0
 126.7890625 453 l 1
 126.7890625 489 l 1
 163.7890625 489 l 0
 203.298828125 489 231.7890625 519.651367188 231.7890625 556 c 0
 231.7890625 590.993164062 204.708007812 624 163.7890625 624 c 0
 144.165039062 624 115.572265625 617.646484375 90.14453125 588.776367188 c 1
490.630067202 131.879882812 m 1
 600.708027595 392 l 1
 636.053632271 392 l 1
 529.312270155 141 l 1
 649.7890625 141 l 1
 649.7890625 239 l 1
 684.7890625 239 l 1
 684.7890625 141 l 1
 718.7890625 141 l 1
 718.7890625 106 l 1
 684.7890625 106 l 1
 684.7890625 0 l 1
 649.7890625 0 l 1
 649.7890625 106 l 1
 490.630067202 106 l 1
 490.630067202 131.879882812 l 1
202.549804688 0 m 1
 537.29776896 647 l 1
 576.632400195 647 l 1
 243.823242188 -0 l 1
 202.549804688 0 l 1
EndSplineSet
Layer: 2
Layer: 3
EndChar

StartChar: Eth
Encoding: 420 208 360
Width: 581
VWidth: 0
Flags: W
HStem: 0 60<177 391.6> 323 40<55 127 177 300.384> 607 60<177 391.587>
VStem: 127 50<60 323 363 607> 462 54<131.194 536.281>
LayerCount: 4
Back
SplineSet
55 373 m 5
 328 373 l 5
 328 313 l 5
 55 313 l 5
 55 373 l 5
201 597 m 5
 201 70 l 5
 321 70 l 22
 411 70 482 110 482 228 c 6
 482 440 l 6
 482 557 411 597 321 597 c 14
 201 597 l 5
127 667 m 5
 321 667 l 6
 448 667 556 605 556 440 c 6
 556 228 l 6
 556 62 448 0 321 0 c 14
 127 0 l 5
 127 667 l 5
EndSplineSet
Fore
SplineSet
127 363 m 1
 127 667 l 1
 303.170818505 667 l 0
 417.825452486 667 516 606.96484375 516 443.291992188 c 0
 516 224.739257812 l 0
 516 59.994140625 417.802776079 0 303.170818505 0 c 0
 127 0 l 1
 127 323 l 1
 55 323 l 1
 55 363 l 1
 127 363 l 1
300.384341637 323 m 1
 177 323 l 1
 177 60 l 1
 303.170818505 60 l 0
 390.039597698 60 462 104.013671875 462 228 c 0
 462 440 l 0
 462 563.03125 390.008757785 607 303.170818505 607 c 0
 177 607 l 1
 177 363 l 1
 300.384341637 363 l 1
 300.384341637 323 l 1
EndSplineSet
Layer: 2
Layer: 3
EndChar

StartChar: multiply
Encoding: 421 215 361
Width: 500
Flags: W
HStem: 112.233 278.533
VStem: 107 277.716
LayerCount: 4
Back
Fore
SplineSet
129.766601562 112.233398438 m 1
 107 135 l 1
 222 250 l 1
 106 366 l 1
 130.766601562 390.766601562 l 1
 246.858398438 271.672851562 l 1
 361.94921875 389.766601562 l 1
 384.715820312 367 l 1
 269.715820312 252 l 1
 385.715820312 136 l 1
 360.948242188 111.233398438 l 1
 244.857421875 230.327148438 l 1
 129.766601562 112.233398438 l 1
EndSplineSet
Layer: 2
Layer: 3
EndChar

StartChar: Thorn
Encoding: 422 222 362
Width: 502
VWidth: 0
Flags: W
HStem: 0 21G<85 138> 132.987 55.0127<138 334.461> 479 55.0127<138 334.891> 647 20G<85 138>
VStem: 85 53<0 132.987 188 479 534.013 667> 394 53<248.492 418.869>
LayerCount: 4
Back
Fore
SplineSet
85 0 m 1
 85 667 l 1
 138 667 l 1
 138 534.012695312 l 1
 263.698564593 534.012695312 l 0
 358.568359375 534.012695312 447 471.33984375 447 334.015625 c 0
 447 195.665039062 357.553710938 132.987304688 263.698564593 132.987304688 c 0
 138 132.987304688 l 1
 138 0 l 1
 85 0 l 1
263.698564593 479 m 0
 138 479 l 1
 138 188 l 1
 263.698564593 188 l 0
 330.904296875 188 394 236.723632812 394 334 c 0
 394 430.264648438 331.8828125 479 263.698564593 479 c 0
EndSplineSet
Layer: 2
Layer: 3
EndChar

StartChar: germandbls
Encoding: 167 223 363
Width: 490
VWidth: 0
Flags: W
HStem: 10 46<241.77 340.506> 321 44<203.102 326.317> 621 46<182.797 323.982>
VStem: 75 50<20 555.529> 178.288 47.1826<73.5894 120> 376 50<96.4737 280.752 417.571 569.658>
LayerCount: 4
Back
SplineSet
389 344 m 5xfc
 449 323 485 258 485 189 c 4
 485 88 439 0 320 0 c 4
 261 0 198 41 198 130 c 5
 268 130 l 5
 268 85 295 69 320 69 c 4
 394 69 412 125 412 189 c 4xfa
 412 252 364 309 280 309 c 6
 208 309 l 5
 208 377 l 5
 280 377 l 6
 359 377 393 429 393 488 c 4
 393 546 348 598 280 598 c 4
 199 598 148 555 148 452 c 6
 148 0 l 5
 75 0 l 5
 75 452 l 6
 75 603 162 667 280 667 c 4
 393 667 466 583 466 488 c 4
 466 425 433 371 389 344 c 5xfc
EndSplineSet
Fore
SplineSet
338.864357462 342.743164062 m 1
 357.108836894 335.373046875 l 2
 410.5546875 316.06640625 445 255.28125 425 189 c 0
 425 90.7978515625 381.940429688 10 284.166666667 10 c 0
 237.354492188 10 183.0078125 44.505859375 178.288085938 120 c 1
 225.470703125 120 l 1
 230.002929688 75.677734375 260.196831597 56 284.166666667 56 c 0
 354.926622179 56 375 123.721679688 375 189 c 0
 395 257.670898438 341.877750319 321 260.040816327 321 c 0
 203.102040816 321 l 1
 203.102040816 365 l 1
 260.040816327 365 l 0
 337.92446588 365 376 429.3671875 376 498 c 0
 376 561.37109375 327.721978635 621 260.040816327 621 c 0
 180.967952806 621 125 569.592773438 125 462 c 0
 125 20 l 1
 75 20 l 1
 75 462 l 0
 75 607.771484375 155.845583546 667 260.040816327 667 c 0
 358.777861926 667 426 587.6953125 426 498 c 0
 426 434.916992188 394.704101562 381.034179688 355.339365434 354.411132812 c 0
 338.864357462 342.743164062 l 1
EndSplineSet
Layer: 2
Layer: 3
EndChar

StartChar: eth
Encoding: 423 240 364
Width: 473
VWidth: 0
Flags: W
HStem: 14 36<171.456 289.675> 377 56<163.713 295.149> 653.89 20G<226.648 258.564>
VStem: 55 50<115.555 312.349> 355 48<115.5 313.692>
LayerCount: 4
Back
SplineSet
224 537 m 5xe0
 395 657 l 5
 426 613 l 5
 255 493 l 5
 224 537 l 5xe0
240 433 m 4
 336 433 415 357 415 213 c 13xe8
 443 204 l 6xf0
 443 61 347 -6 250 -6 c 4
 153 -6 55 61 55 204 c 6
 55 222 l 6
 55 366 143 433 240 433 c 4
250 367 m 4
 188 367 125 321 125 223 c 6
 125 204 l 6
 125 106 188 60 250 60 c 4
 312 60 375 106 375 204 c 6xf0
 375 212 l 6
 375 311 312 367 250 367 c 4
229 643 m 5
 269 677 l 5
 427 549 443 414 443 204 c 5xf0
 375 270 l 5xe8
 375 415 362 530 229 643 c 5
EndSplineSet
Fore
SplineSet
330.796992187 576.43359375 m 0
 393.815429688 479.234375 403 367.880859375 403 214 c 0
 403 76.490234375 315.51546875 14 230.8 14 c 0
 145.99828125 14 55 76.6162109375 55 214 c 0
 55 232 l 0
 55 371.067382812 137.260078125 433 221.6 433 c 0
 266.750976562 433 307.0378125 412.509765625 335.68 371 c 0
 355.452148438 342.397460938 l 1
 352.195976562 377.978515625 l 0
 346.596015625 439.862304688 333.424921875 498.501953125 303.114335937 554.09765625 c 0
 298.029179688 563.426757812 l 1
 237.611054688 516.951171875 l 1
 219.688125 544.6015625 l 1
 280.201484375 591.150390625 l 1
 273.689609375 599.4765625 l 0
 259.816835938 617.216796875 243.659335938 635.78125 225.660039063 652.9765625 c 1
 248.295273437 673.889648438 l 1
 268.833554687 654.876953125 286.586679688 637.021484375 302.178164063 618.291015625 c 0
 307.624492187 611.747070312 l 1
 362.567382812 653.090820312 l 1
 382.028320312 625.46875 l 1
 325.762148438 584.6015625 l 1
 330.796992187 576.43359375 l 0
355 222 m 0
 355 326.020507812 292.826328125 377 230.8 377 c 0
 168.805117188 377 105 326.072265625 105 223 c 0
 105 204 l 0
 105 100.927734375 168.805117188 50 230.8 50 c 0
 292.794882812 50 355 100.927734375 355 204 c 0
 355 222 l 0
EndSplineSet
Layer: 2
Layer: 3
EndChar

StartChar: thorn
Encoding: 424 254 365
Width: 478
VWidth: 0
Flags: W
HStem: -1.69727 51.6973<183.078 311.546> 427 51.5771<185.274 311.541> 647 20G<75 123>
VStem: 75 48<-185 86.1162 116.142 360.552 389.739 667> 373 50<116.374 360.061>
LayerCount: 4
Back
Fore
SplineSet
141.086914062 415.208007812 m 0
 171.056640625 457.40625 213.343322754 478.577148438 256.59375 478.577148438 c 0
 339.673828125 478.577148438 423 415.155273438 423 272.745117188 c 0
 423 203.110351562 l 0
 423 61.7607421875 339.696289062 -1.697265625 256.59375 -1.697265625 c 0
 213.223022461 -1.697265625 170.991210938 18.541015625 141.086914062 60.6484375 c 0
 123 86.1162109375 l 1
 123 -185 l 1
 75 -185 l 1
 75 667 l 1
 123 667 l 1
 123 389.739257812 l 1
 141.086914062 415.208007812 l 0
373 273 m 0
 373 376.072265625 305.385742188 427 248.15625 427 c 0
 190.580078125 427 123 376.020507812 123 272 c 0
 123 204 l 0
 123 100.927734375 190.614257812 50 248.15625 50 c 0
 305.385742188 50 373 100.927734375 373 204 c 0
 373 273 l 0
EndSplineSet
Layer: 2
Layer: 3
EndChar

StartChar: uni01A9
Encoding: 429 425 370
Width: 460
VWidth: 0
Flags: W
HStem: 0 51.5459<128.139 400> 615.454 51.5459<127.49 399>
LayerCount: 4
Back
Fore
SplineSet
260 355.943359375 m 1
 260 330.462890625 l 1
 128.138671875 51.5458984375 l 1
 400 51.5458984375 l 1
 400 0 l 1
 60 0 l 1
 60 28.2255859375 l 1
 222.96468099 342.412109375 l 1
 60 638.9140625 l 1
 60 667 l 1
 399 667 l 1
 399 615.454101562 l 1
 127.490234375 615.454101562 l 1
 260 355.943359375 l 1
EndSplineSet
Layer: 2
Layer: 3
EndChar

StartChar: Dcroat
Encoding: 430 272 371
Width: 581
VWidth: 0
Flags: W
HStem: 0 60<177 391.152> 323 40<55 127 177 308> 607 60<177 391.163>
VStem: 127 50<60 323 363 607> 462 54<131.194 536.281>
LayerCount: 4
Back
Fore
SplineSet
127 363 m 1
 127 667 l 1
 311 667 l 0
 414.440429688 667 516 606.96484375 516 443.291992188 c 0
 516 224.739257812 l 0
 516 59.994140625 414.416015625 0 311 0 c 0
 127 0 l 1
 127 323 l 1
 55 323 l 1
 55 363 l 1
 127 363 l 1
308 323 m 1
 177 323 l 1
 177 60 l 1
 311 60 l 0
 386.711030506 60 462 104.013671875 462 228 c 0
 462 440 l 0
 462 563.03125 386.684151786 607 311 607 c 0
 177 607 l 1
 177 363 l 1
 308 363 l 1
 308 323 l 1
EndSplineSet
Layer: 2
Layer: 3
EndChar

StartChar: dcroat
Encoding: 431 273 372
Width: 515
VWidth: 0
Flags: W
HStem: 14 36<171.317 290.388> 427 56<163.713 296.9> 552 41<217 355 403 465> 647 20G<355 403>
VStem: 55 50<115.272 362.349> 355 48<20 99.752 113.022 363.692 396.248 552 593 667>
LayerCount: 4
Back
SplineSet
225 593 m 5xf8
 505 593 l 5
 505 532 l 5
 225 532 l 5
 225 593 l 5xf8
240 483 m 4
 336 483 415 417 415 273 c 6
 415 204 l 6xfa
 415 61 337 -6 240 -6 c 4
 143 -6 55 61 55 204 c 6
 55 272 l 6
 55 416 143 483 240 483 c 4
250 417 m 4
 188 417 125 371 125 273 c 6
 125 204 l 6
 125 106 188 60 250 60 c 4
 312 60 375 106 375 204 c 6
 375 272 l 6xfc
 375 371 312 417 250 417 c 4
375 667 m 5
 443 667 l 5
 443 0 l 5xfc
 375 0 l 5xfa
 375 667 l 5
EndSplineSet
Fore
SplineSet
355 593 m 1
 355 667 l 1
 403 667 l 1
 403 593 l 1
 465 593 l 1
 465 552 l 1
 403 552 l 1
 403 20 l 1
 355 20 l 1
 355 99.751953125 l 1
 338.360039062 74.8818359375 l 0
 310.8471875 33.763671875 268.891054688 14 221.6 14 c 0
 137.238515625 14 55 75.9677734375 55 214 c 0
 55 282 l 0
 55 421.067382812 137.260078125 483 221.6 483 c 0
 268.758984375 483 310.787890625 462.326171875 338.360039062 421.118164062 c 0
 355 396.248046875 l 1
 355 552 l 1
 217 552 l 1
 217 593 l 1
 355 593 l 1
355 272 m 0
 355 376.020507812 292.826328125 427 230.8 427 c 0
 168.805117188 427 105 376.072265625 105 273 c 0
 105 204 l 0
 105 100.927734375 168.805117188 50 230.8 50 c 0
 292.794882812 50 355 100.927734375 355 204 c 0
 355 272 l 0
EndSplineSet
Layer: 2
Layer: 3
EndChar

StartChar: Hbar
Encoding: 433 294 374
Width: 670
VWidth: 0
Flags: W
HStem: 0 21G<134 185 483 534> 320 46<185 483> 527.827 42.2676<75 134 185 483 534 595> 647 20G<134 185 483 534>
VStem: 134 51<0 320 366 522 573 667> 483 51<0 320 366 522 573 667>
LayerCount: 4
Back
Fore
SplineSet
134 570.094726562 m 1
 134 667 l 1
 185 667 l 1
 185 573 l 1
 483 573 l 1
 483 667 l 1
 534 667 l 1
 534 570.094726562 l 1
 595 570.094726562 l 1
 595 527.827148438 l 1
 534 527.827148438 l 1
 534 0 l 1
 483 0 l 1
 483 320 l 1
 185 320 l 1
 185 0 l 1
 134 0 l 1
 134 527.827148438 l 1
 75 527.827148438 l 1
 75 570.094726562 l 1
 134 570.094726562 l 1
483 522 m 1
 185 522 l 1
 185 366 l 1
 483 366 l 1
 483 522 l 1
EndSplineSet
Layer: 2
Layer: 3
EndChar

StartChar: hbar
Encoding: 434 295 375
Width: 544
VWidth: 0
Flags: W
HStem: 437 46<245.236 373.742> 552 41<65 139 188.588 310.567> 647 20G<139 188.588>
VStem: 139 49.5876<20 373.978 396.248 552 593 667> 429 50<20 373.172>
LayerCount: 4
Back
Fore
SplineSet
204.809912613 421.118164062 m 0
 231.689976643 462.326171875 272.663921553 483 318.639175258 483 c 0
 404.2578125 483 479 422.666992188 479 283 c 0
 479 20 l 1
 429 20 l 1
 429 282 l 0
 429 384.998046875 372.16015625 437 309.670103093 437 c 0
 249.231344636 437 188.587628866 386.072265625 188.587628866 283 c 0
 188.587628866 20 l 1
 139 20 l 1
 139 552 l 1
 65 552 l 1
 65 593 l 1
 139 593 l 1
 139 667 l 1
 188.587628866 667 l 1
 188.587628866 593 l 1
 310.567010309 593 l 1
 310.567010309 552 l 1
 188.587628866 552 l 1
 188.587628866 396.248046875 l 1
 204.809912613 421.118164062 l 0
EndSplineSet
Layer: 2
Layer: 3
EndChar

StartChar: IJ
Encoding: 437 306 378
Width: 612
VWidth: 0
Flags: W
HStem: 0 21G<85 139> 14 50<295.889 428.637> 647 20G<85 139 483 537>
VStem: 85 54<0 667> 483 54<122.202 667>
LayerCount: 4
Back
Fore
SplineSet
483 210 m 0x78
 483 667 l 1
 537 667 l 1
 537 210 l 0
 537 74.4794921875 447.994205014 14 368.648351648 14 c 0
 343.43734976 14 274.603386848 14.302734375 210.939538977 96.2685546875 c 1
 249.852914663 128.053710938 l 1
 300.613624657 63.6904296875 347.561813187 64 368.648351648 64 c 0
 423.299107143 64 483 112.216796875 483 210 c 0x78
85 667 m 1
 139 667 l 1
 139 0 l 1
 85 0 l 1xb8
 85 667 l 1
EndSplineSet
Layer: 2
Layer: 3
EndChar

StartChar: ij
Encoding: 438 307 379
Width: 362
VWidth: 0
Flags: W
HStem: -190 42<152 214.442> 560 74<71.7115 140.423 221.712 290.423>
VStem: 69 74<562.933 631.068> 82 50<10 467> 219 74<562.933 631.068> 232 50<-132.161 457>
LayerCount: 4
Back
Fore
SplineSet
69 597 m 0xe0
 69 619.596679688 84.1708984375 634 106 634 c 0
 128.788085938 634 143 619.788085938 143 597 c 0
 143 574.211914062 128.788085938 560 106 560 c 0
 84.1708984375 560 69 574.404296875 69 597 c 0xe0
82 10 m 1xd0
 82 467 l 1
 132 467 l 1
 132 10 l 1
 82 10 l 1xd0
219 597 m 0xc8
 219 619.596679688 234.170898438 634 256 634 c 0
 278.788085938 634 293 619.788085938 293 597 c 0
 293 574.211914062 278.788085938 560 256 560 c 0
 234.170898438 560 219 574.404296875 219 597 c 0xc8
282 457 m 1xc4
 282 -70 l 2
 282 -153.377929688 226.172851562 -190 172 -190 c 0
 152 -190 l 1
 152 -148 l 1
 172 -148 l 0
 203.30859375 -148 232 -122.806640625 232 -70 c 0
 232 457 l 1
 282 457 l 1xc4
EndSplineSet
Layer: 2
Layer: 3
EndChar

StartChar: Lslash
Encoding: 439 321 380
Width: 555
VWidth: 0
Flags: W
HStem: 0 51.5459<210 500> 647 20G<160 210>
VStem: 160 50<51.5459 284.782 350.379 667>
LayerCount: 4
Back
SplineSet
45 273 m 5
 365 433 l 5
 365 372 l 5
 45 212 l 5
 45 273 l 5
160 667 m 1
 234 667 l 1
 234 70 l 1
 540 70 l 1
 540 0 l 1
 160 0 l 1
 160 667 l 1
EndSplineSet
Fore
SplineSet
160 323.495117188 m 1
 160 667 l 1
 210 667 l 1
 210 350.37890625 l 1
 331.626506024 419.450195312 l 1
 331.626506024 379.540039062 l 1
 210 309.438476562 l 1
 210 51.5458984375 l 1
 500 51.5458984375 l 1
 500 0 l 1
 160 0 l 1
 160 284.782226562 l 1
 45 224.989257812 l 1
 45 264.733398438 l 1
 160 323.495117188 l 1
EndSplineSet
Layer: 2
Layer: 3
EndChar

StartChar: lslash
Encoding: 440 322 381
Width: 390
VWidth: 0
Flags: W
HStem: 647 20G<165 215>
VStem: 165 50<20 298.301 361.708 667>
LayerCount: 4
Back
Fore
SplineSet
165 336.865234375 m 1
 165 667 l 1
 215 667 l 1
 215 361.708007812 l 1
 345 427.708007812 l 1
 345 389.137695312 l 1
 215 323.137695312 l 1
 215 20 l 1
 165 20 l 1
 165 298.30078125 l 1
 45 237.30078125 l 1
 45 275.865234375 l 1
 165 336.865234375 l 1
EndSplineSet
Layer: 2
Layer: 3
EndChar

StartChar: napostrophe
Encoding: 441 329 382
Width: 562
VWidth: 0
Flags: W
HStem: 427 46<261.335 391.26> 653 20G<80.5703 101.43>
VStem: 50 82<595.308 668.884> 157 46.7401<10 363.978 386.248 467> 447 50<10 362.981>
LayerCount: 4
Back
Fore
SplineSet
50 632 m 0
 50 660.708007812 70.140625 673 91 673 c 0
 111.859375 673 132 660.708007812 132 632 c 0
 132 627.096679688 131.083984375 610.9296875 123.594726562 589.3984375 c 1
 81.0703125 476 l 1
 55.7548828125 476 l 1
 83.912109375 590.5703125 l 1
 75.162109375 593.487304688 l 0
 61.05078125 598.190429688 50 610.038085938 50 632 c 0
220.233441458 411.118164062 m 0
 247.562663477 452.326171875 289.221270994 473 335.964757709 473 c 0
 412.336914062 473 497 412.213867188 497 273 c 0
 497 10 l 1
 447 10 l 1
 447 272 l 0
 447 374.998046875 390.16015625 427 326.845814978 427 c 0
 265.397142587 427 203.740088106 376.072265625 203.740088106 273 c 0
 203.740088106 10 l 1
 157 10 l 1
 157 467 l 1
 203.740088106 467 l 1
 203.740088106 386.248046875 l 1
 220.233441458 411.118164062 l 0
EndSplineSet
Layer: 2
Layer: 3
EndChar

StartChar: Eng
Encoding: 442 330 383
Width: 566
VWidth: 0
Flags: W
HStem: -190 42<354.051 411.946> 0 21G<85 136.699> 647 20G<85 143.08 429 481>
VStem: 85 51.6991<0 547.208> 429 52<-132.131 8.6875 119.763 667>
LayerCount: 4
Back
Fore
SplineSet
85 0 m 1
 85 667 l 1
 132.234375 667 l 1
 429 119.762695312 l 1
 429 667 l 1
 481 667 l 1
 481 -70 l 0
 481 -153.309570312 425.528853706 -190 372.788289844 -190 c 0
 354.051053125 -190 l 1
 354.051053125 -148 l 1
 372.788289844 -148 l 0
 402.120116465 -148 429 -122.806640625 429 -70 c 0
 429 8.6875 l 1
 136.699107187 547.208007812 l 1
 136.699107187 0 l 1
 85 0 l 1
EndSplineSet
Layer: 2
Layer: 3
EndChar

StartChar: eng
Encoding: 443 331 384
Width: 480
VWidth: 0
Flags: W
HStem: -190 42<286.667 347.442> 0 21G<75 125> 417 46<184.87 310.851>
VStem: 75 50<0 350.858 376.248 457> 365 50<-132.161 356.306>
LayerCount: 4
Back
Fore
SplineSet
143.086914062 401.118164062 m 0
 173.056640625 442.326171875 214.783528646 463 257.5 463 c 0
 340.2578125 463 415 402.666992188 415 263 c 0
 415 -70 l 0
 415 -153.377929688 359.172851562 -190 305 -190 c 0
 286.666666667 -190 l 1
 286.666666667 -148 l 1
 305 -148 l 0
 336.30859375 -148 365 -122.806640625 365 -70 c 0
 365 262 l 0
 365 364.998046875 308.16015625 417 249.166666667 417 c 0
 192.614257812 417 125 366.072265625 125 263 c 0
 125 0 l 1
 75 0 l 1
 75 457 l 1
 125 457 l 1
 125 376.248046875 l 1
 143.086914062 401.118164062 l 0
EndSplineSet
Layer: 2
Layer: 3
EndChar

StartChar: Tbar
Encoding: 444 358 385
Width: 520
VWidth: 0
Flags: W
HStem: 0 21G<223 277> 302 41<118 223 284.158 398> 615.407 51.5928<55 235.842 284.158 465>
VStem: 223 54<0 302> 235.842 48.3158<343 615.407>
LayerCount: 4
Back
Fore
SplineSet
55 615.407226562 m 1xe8
 55 667 l 1
 465 667 l 1
 465 615.407226562 l 1
 284.157894737 615.407226562 l 1
 284.157894737 343 l 1xe8
 398 343 l 1
 398 302 l 1
 277 302 l 1
 277 0 l 1
 223 0 l 1
 223 302 l 1xf0
 118 302 l 1
 118 343 l 1
 235.842105263 343 l 1
 235.842105263 615.407226562 l 1
 55 615.407226562 l 1xe8
EndSplineSet
Layer: 2
Layer: 3
EndChar

StartChar: tbar
Encoding: 445 359 386
Width: 390
VWidth: 0
Flags: W
HStem: 10 46<227.63 322> 272 36<45 164 210 345> 429.624 43.6602<102 164 210 302>
VStem: 164 46<73.1782 272 308 429.624 473.284 571>
LayerCount: 4
Back
Fore
SplineSet
210 571 m 1
 210 473.284179688 l 1
 302 473.284179688 l 1
 302 429.624023438 l 1
 210 429.624023438 l 1
 210 308 l 1
 345 308 l 1
 345 272 l 1
 210 272 l 1
 210 130 l 0
 210 80.296875 241.325195312 56 272 56 c 0
 322 56 l 1
 322 10 l 1
 272 10 l 0
 217.979492188 10 164 46.419921875 164 130 c 0
 164 272 l 1
 45 272 l 1
 45 308 l 1
 164 308 l 1
 164 429.624023438 l 1
 102 429.624023438 l 1
 102 473.284179688 l 1
 164 473.284179688 l 1
 164 571 l 1
 210 571 l 1
EndSplineSet
Layer: 2
Layer: 3
EndChar

StartChar: ogonek
Encoding: 254 731 389
Width: 266
Flags: W
HStem: -191 35<93.8091 170.738> -20 20G<70.0669 119.924>
VStem: 50 30<-139.973 -39.3591>
AnchorPoint: "Bottom" 121 0 mark 0
LayerCount: 4
Back
SplineSet
158.744140625 47.4931640625 m 21
 122.120117188 0.6240234375 l 6
 70.3525390625 -65.6259765625 54.71484375 -125.296875 106.909179688 -163.149414062 c 4
 155.293945312 -198.23828125 197.479492188 -146.774414062 215.905273438 -120.046875 c 1037
EndSplineSet
Fore
SplineSet
81.44140625 0 m 1
 119.923828125 0 l 1
 88.6845703125 -40.4677734375 80 -69.4853515625 80 -99 c 0
 80 -128.508789062 97.814453125 -156 130 -156 c 0
 157.432617188 -156 174.342773438 -136.893554688 187.479492188 -118.802734375 c 1
 212.599609375 -135.958007812 l 1
 198.419921875 -159.228515625 174.989257812 -191 130 -191 c 0
 75.9267578125 -191 50 -148.534179688 50 -102 c 0
 50 -73.3359375 58.6923828125 -32.4384765625 81.44140625 0 c 1
EndSplineSet
Layer: 2
Layer: 3
EndChar

StartChar: Euro
Encoding: 448 8364 390
Width: 561
VWidth: 0
Flags: W
HStem: 4 50<242.137 412.14> 253 36<72.8574 120.81 174.81 360.911> 378 36<72.8574 120.81 174.81 398.763> 613 50<242.139 409.811>
VStem: 120.81 54<125.752 253 289 378 414 541.684>
LayerCount: 4
Back
Fore
SplineSet
120.809570312 446 m 0
 120.809570312 604.9453125 218.839262357 663 321.815394312 663 c 0
 356.265507147 663 431.603515625 662.586914062 495.671875 585.71875 c 1
 454.482421875 553.923828125 l 1
 405.05859375 612.809570312 351.716364325 613 321.815394312 613 c 0
 245.423037957 613 174.809570312 568.774414062 174.809570312 446 c 0
 174.809570312 414 l 1
 411.620117188 414 l 1
 398.762695312 378 l 1
 174.809570312 378 l 1
 174.809570312 289 l 1
 372.613266971 289 l 1
 360.910645949 253 l 1
 174.809570312 253 l 1
 174.809570312 222 l 0
 174.809570312 98.2724609375 245.392817 54 321.815394312 54 c 0
 352.993644168 54 409.23046875 55.4560546875 461.489257812 118.071289062 c 1
 502.677734375 86.2763671875 l 1
 433.60546875 3.0234375 357.832552633 4 321.815394312 4 c 0
 218.859705946 4 120.809570312 62.0234375 120.809570312 222 c 0
 120.809570312 253 l 1
 60 253 l 1
 72.857421875 289 l 1
 120.809570312 289 l 1
 120.809570312 378 l 1
 60 378 l 1
 72.857421875 414 l 1
 120.809570312 414 l 1
 120.809570312 446 l 0
EndSplineSet
Layer: 2
Layer: 3
EndChar

StartChar: uni01C4
Encoding: 451 452 393
Width: 962
VWidth: 0
Flags: W
HStem: 0 60<139 360.633> 0 51.5459<569.756 902> 607 60<139 360.619> 615.454 51.5459<522.131 831.49>
VStem: 85 54<60 607> 433.583 51.9737<134.294 533.25>
LayerCount: 4
Back
Fore
SplineSet
365.147083504 858 m 1x0c
 445.133208255 775.947265625 l 1
 525.119333006 858 l 1
 565.305548634 858 l 1
 458.470651823 747 l 1
 431.795764687 747 l 1
 324.960867876 858 l 1
 365.147083504 858 l 1x0c
522.131332083 615.454101562 m 1x5c
 522.131332083 667 l 1
 892 667 l 1
 892 628.580078125 l 1
 569.756062749 51.5458984375 l 1
 902 51.5458984375 l 1
 902 0 l 1
 512.506566604 0 l 1
 512.506566604 38.427734375 l 1
 831.490234375 615.454101562 l 1
 522.131332083 615.454101562 l 1x5c
269 607 m 0xac
 139 607 l 1
 139 60 l 1
 269 60 l 0
 359.015995104 60 433.583489681 104.013671875 433.583489681 228 c 0
 433.583489681 440 l 0
 433.583489681 563.03125 358.984037875 607 269 607 c 0xac
85 0 m 1x4c
 85 667 l 1x5c
 269 667 l 0
 387.80851863 667 485.557223265 606.96484375 485.557223265 443.291992188 c 0
 485.557223265 235.047851562 l 0
 485.557223265 69.890625 387.159974862 0 269 0 c 0xac
 85 0 l 1x4c
EndSplineSet
Layer: 2
Layer: 3
EndChar

StartChar: uni01C5
Encoding: 452 453 394
Width: 898
VWidth: 0
Flags: W
HStem: 0 60<139 358.287> 0 47.0068<605.151 843> 419.993 47.0068<549.691 785.399> 607 40<139 354.958>
VStem: 85 54<60 607> 431.264 51.9926<135.874 533.25>
LayerCount: 4
Back
Fore
SplineSet
362.802738005 858 m 1x3c
 442.817843866 775.947265625 l 1
 522.832949727 858 l 1
 563.033725895 858 l 1
 456.160119947 747 l 1
 429.475567786 747 l 1
 322.601961838 858 l 1
 362.802738005 858 l 1x3c
843 429.146484375 m 1
 605.150750029 47.0068359375 l 1
 843 47.0068359375 l 1
 843 0 l 1
 549.691449814 0 l 1x7c
 549.691449814 37.853515625 l 1
 785.399414062 419.993164062 l 1
 549.691449814 419.993164062 l 1
 549.691449814 467 l 1
 843 467 l 1
 843 429.146484375 l 1
266.620817844 607 m 0
 139 607 l 1
 139 60 l 1
 266.620817844 60 l 0xbc
 356.669428148 60 431.26394052 104.013671875 431.26394052 228 c 0
 431.26394052 440 l 0
 431.26394052 563.03125 356.63745934 607 266.620817844 607 c 0
85 0 m 1x7c
 85 647 l 1
 266.620817844 647 l 0
 385.472383974 647 483.256505576 588.764648438 483.256505576 430 c 0
 483.256505576 228 l 0
 483.256505576 67.794921875 384.823605222 0 266.620817844 0 c 0xbc
 85 0 l 1x7c
EndSplineSet
Layer: 2
Layer: 3
EndChar

StartChar: uni01C6
Encoding: 453 454 395
Width: 825
VWidth: 0
Flags: W
HStem: 14 36<174.929 299.527 532.546 770> 421 46<477.273 712.399> 427 56<166.958 306.319> 647 20G<366.919 412.98>
VStem: 55 50<116.142 360.858> 366.919 46.0606<20 99.752 116.142 360.552 396.248 667>
LayerCount: 4
Back
Fore
SplineSet
366.919191919 396.248046875 m 1xbc
 366.919191919 667 l 1
 412.97979798 667 l 1
 412.97979798 20 l 1
 366.919191919 20 l 1
 366.919191919 99.751953125 l 1
 349.563062263 74.8818359375 l 0
 320.866082702 33.763671875 277.104196259 14 227.777777778 14 c 0
 138.302734375 14 55 75.9677734375 55 214 c 0
 55 282 l 0
 55 421.067382812 138.326171875 483 227.777777778 483 c 0
 276.966441761 483 320.804233744 462.326171875 349.563062263 421.118164062 c 0
 366.919191919 396.248046875 l 1xbc
366.919191919 272 m 0
 366.919191919 376.020507812 302.069622001 427 237.373737374 427 c 0
 172.614257812 427 105 376.072265625 105 273 c 0
 105 204 l 0
 105 100.927734375 172.614257812 50 237.373737374 50 c 0
 302.036823311 50 366.919191919 100.927734375 366.919191919 204 c 0
 366.919191919 272 l 0
770 429.95703125 m 1
 532.546016809 56 l 1
 770 56 l 1
 770 10 l 1
 477.272727273 10 l 1
 477.272727273 47.04296875 l 1
 712.399414062 421 l 1
 477.272727273 421 l 1
 477.272727273 467 l 1
 770 467 l 1xdc
 770 429.95703125 l 1
361.061345881 858 m 1
 440.808080808 775.947265625 l 1
 520.554815735 858 l 1
 560.620758365 858 l 1
 454.10560685 747 l 1
 427.510554766 747 l 1
 320.995403251 858 l 1
 361.061345881 858 l 1
EndSplineSet
Layer: 2
Layer: 3
EndChar

StartChar: uni01C7
Encoding: 454 455 396
Width: 906
VWidth: 0
Flags: W
HStem: 0 51.5459<139 435.699> 14 50<585.029 721.115> 647 20G<85 139 777 831>
VStem: 85 54<51.5459 667> 777 54<123.719 667>
LayerCount: 4
Back
Fore
SplineSet
777 210 m 0x78
 777 667 l 1
 831 667 l 1
 831 210 l 0
 831 74.4794921875 741.084851111 14 659.67781155 14 c 0
 633.81189744 14 563.189818223 14.302734375 497.872159361 96.2685546875 c 1
 537.796397108 128.053710938 l 1
 589.875730196 63.6904296875 638.04350304 64 659.67781155 64 c 0
 715.748242781 64 777 112.216796875 777 210 c 0x78
85 0 m 1xb8
 85 667 l 1
 139 667 l 1
 139 51.5458984375 l 1
 435.699088146 51.5458984375 l 1
 435.699088146 0 l 1
 85 0 l 1xb8
EndSplineSet
Layer: 2
Layer: 3
EndChar

StartChar: uni01C8
Encoding: 455 456 397
Width: 625
VWidth: 0
Flags: W
HStem: -190 42<417.594 478.442> 0 50<139 425.876> 550 74<484.712 553.423>
VStem: 85 54<50 647> 482 74<552.933 621.068> 496 50<-132.161 457>
LayerCount: 4
Back
Fore
SplineSet
482 587 m 0xf8
 482 609.596679688 497.170898438 624 519 624 c 0
 541.788085938 624 556 609.788085938 556 587 c 0
 556 564.211914062 541.788085938 550 519 550 c 0
 497.170898438 550 482 564.404296875 482 587 c 0xf8
546 457 m 1xf4
 546 -70 l 2
 546 -153.377929688 490.172851562 -190 436 -190 c 0
 417.593625498 -190 l 1
 417.593625498 -148 l 1
 436 -148 l 0
 467.30859375 -148 496 -122.806640625 496 -70 c 0
 496 457 l 1
 546 457 l 1xf4
85 0 m 1
 85 647 l 1
 139 647 l 1
 139 50 l 1
 425.876494024 50 l 1
 425.876494024 0 l 1
 85 0 l 1
EndSplineSet
Layer: 2
Layer: 3
EndChar

StartChar: uni01C9
Encoding: 456 457 398
Width: 345
VWidth: 0
Flags: W
HStem: -190 42<135 197.442> 560 74<204.712 273.423> 647 20G<75 125>
VStem: 75 50<20 667> 202 74<562.933 631.068> 215 50<-132.161 457>
LayerCount: 4
Back
Fore
SplineSet
202 597 m 0xf8
 202 619.596679688 217.170898438 634 239 634 c 0
 261.788085938 634 276 619.788085938 276 597 c 0
 276 574.211914062 261.788085938 560 239 560 c 0
 217.170898438 560 202 574.404296875 202 597 c 0xf8
265 457 m 1xf4
 265 -70 l 2
 265 -153.377929688 209.172851562 -190 155 -190 c 0
 135 -190 l 1
 135 -148 l 1
 155 -148 l 0
 186.30859375 -148 215 -122.806640625 215 -70 c 0
 215 457 l 1
 265 457 l 1xf4
75 20 m 1
 75 667 l 1
 125 667 l 1
 125 20 l 1
 75 20 l 1
EndSplineSet
Layer: 2
Layer: 3
EndChar

StartChar: uni01CA
Encoding: 457 458 399
Width: 967
VWidth: 0
Flags: W
HStem: 0 21G<85 137 422.909 481> 14 50<640.011 780.231> 647 20G<85 143.091 429 481 818 872.875>
VStem: 85 52<0 547.237> 429.301 51.6991<119.763 667> 818 54<507.05 667> 838 54<126.891 369.95>
LayerCount: 4
Back
Fore
SplineSet
838 210 m 0x7a
 818 667 l 1
 872 667 l 1x7c
 892 210 l 0
 892 74.4794921875 800.958984375 14 717 14 c 0
 690.323242188 14 617.487304688 14.302734375 550.122070312 96.2685546875 c 1
 591.297851562 128.053710938 l 1
 645.009765625 63.6904296875 694.6875 64 717 64 c 0
 774.828125 64 838 112.216796875 838 210 c 0x7a
85 0 m 1xb8
 85 667 l 1
 132.234375 667 l 1
 429.300892813 119.762695312 l 1
 429 667 l 1
 481 667 l 1
 481 0 l 1
 433.765625 0 l 1
 136.699107187 547.237304688 l 1
 137 0 l 1
 85 0 l 1xb8
EndSplineSet
Layer: 2
Layer: 3
EndChar

StartChar: uni01CB
Encoding: 458 459 400
Width: 702
VWidth: 0
Flags: W
HStem: -190 42<492 554.442> 0 21G<85 137 422.92 481> 550 74<561.712 630.423>
VStem: 85 52<0 547.237> 429.301 51.6991<99.7627 647> 559 74<552.933 621.068> 572 50<-132.161 457>
LayerCount: 4
Back
Fore
SplineSet
559 587 m 0xfc
 559 609.596679688 574.170898438 624 596 624 c 0
 618.788085938 624 633 609.788085938 633 587 c 0
 633 564.211914062 618.788085938 550 596 550 c 0
 574.170898438 550 559 564.404296875 559 587 c 0xfc
622 457 m 1xfa
 622 -70 l 2
 622 -153.377929688 566.172851562 -190 512 -190 c 0
 492 -190 l 1
 492 -148 l 1
 512 -148 l 0
 543.30859375 -148 572 -122.806640625 572 -70 c 0
 572 457 l 1
 622 457 l 1xfa
85 0 m 1
 85 647 l 1
 132.234375 647 l 1
 429.300892813 99.7626953125 l 1
 429.300892813 647 l 1
 481 647 l 1
 481 0 l 1
 433.765625 0 l 1
 137 547.237304688 l 1
 137 0 l 1
 85 0 l 1
EndSplineSet
Layer: 2
Layer: 3
EndChar

StartChar: uni01CC
Encoding: 459 460 401
Width: 637
VWidth: 0
Flags: W
HStem: -190 42<427.612 488.5> 427 46<187.103 318.205> 560 74<496.712 565.423>
VStem: 75 50<10 360.858 386.248 467> 371.081 46.337<10 367.861> 494 74<562.933 631.068> 506 50<-132.161 457>
LayerCount: 4
Back
Fore
SplineSet
143.086914062 411.118164062 m 0xf8
 173.056640625 452.326171875 217.001023065 473 264.505494505 473 c 0
 348.151013049 473 417.417582418 412.666992188 417.417582418 273 c 0
 417.417582418 10 l 1
 371.080586081 10 l 1
 371.080586081 272 l 0
 371.080586081 374.998046875 318.404833448 427 255.238095238 427 c 0
 192.614257812 427 125 376.072265625 125 273 c 0
 125 10 l 1
 75 10 l 1
 75 467 l 1
 125 467 l 1
 125 386.248046875 l 1
 143.086914062 411.118164062 l 0xf8
556 457 m 1xfa
 556 -70 l 2
 556 -153.377929688 500.172851562 -190 446.146520147 -190 c 0
 427.611721612 -190 l 1
 427.611721612 -148 l 1
 446.146520147 -148 l 0
 477.30859375 -148 506 -122.806640625 506 -70 c 0
 506 457 l 1
 556 457 l 1xfa
494 597 m 0xfc
 494 619.596679688 509.170898438 634 531 634 c 0
 553.788085938 634 568 619.788085938 568 597 c 0
 568 574.211914062 553.788085938 560 531 560 c 0
 509.170898438 560 494 574.404296875 494 597 c 0xfc
EndSplineSet
Layer: 2
Layer: 3
EndChar

StartChar: uni01F1
Encoding: 460 497 402
Width: 962
VWidth: 0
Flags: W
HStem: 0 60<139 360.633> 0 51.5459<569.756 902> 607 60<139 360.619> 615.454 51.5459<522.131 831.49>
VStem: 85 54<60 607> 433.583 51.9737<134.294 533.25>
LayerCount: 4
Back
Fore
SplineSet
522.131332083 615.454101562 m 1x5c
 522.131332083 667 l 1
 892 667 l 1
 892 628.580078125 l 1
 569.756062749 51.5458984375 l 1
 902 51.5458984375 l 1
 902 0 l 1
 512.506566604 0 l 1
 512.506566604 38.427734375 l 1
 831.490234375 615.454101562 l 1
 522.131332083 615.454101562 l 1x5c
269 607 m 0xac
 139 607 l 1
 139 60 l 1
 269 60 l 0
 359.015995104 60 433.583489681 104.013671875 433.583489681 228 c 0
 433.583489681 440 l 0
 433.583489681 563.03125 358.984037875 607 269 607 c 0xac
85 0 m 1x4c
 85 667 l 1x5c
 269 667 l 0
 387.80851863 667 485.557223265 606.96484375 485.557223265 443.291992188 c 0
 485.557223265 235.047851562 l 0
 485.557223265 69.890625 387.159974862 0 269 0 c 0xac
 85 0 l 1x4c
EndSplineSet
Layer: 2
Layer: 3
EndChar

StartChar: uni01F2
Encoding: 461 498 403
Width: 898
VWidth: 0
Flags: W
HStem: 0 60<139 358.287> 0 47.0068<605.151 843> 419.993 47.0068<549.691 785.399> 607 40<139 354.958>
VStem: 85 54<60 607> 431.264 51.9926<135.874 533.25>
LayerCount: 4
Back
Fore
SplineSet
843 429.146484375 m 1x7c
 605.150750029 47.0068359375 l 1
 843 47.0068359375 l 1
 843 0 l 1
 549.691449814 0 l 1
 549.691449814 37.853515625 l 1
 785.399414062 419.993164062 l 1
 549.691449814 419.993164062 l 1
 549.691449814 467 l 1
 843 467 l 1
 843 429.146484375 l 1x7c
266.620817844 607 m 0
 139 607 l 1
 139 60 l 1
 266.620817844 60 l 0xbc
 356.669428148 60 431.26394052 104.013671875 431.26394052 228 c 0
 431.26394052 440 l 0
 431.26394052 563.03125 356.63745934 607 266.620817844 607 c 0
85 0 m 1x7c
 85 647 l 1
 266.620817844 647 l 0
 385.472383974 647 483.256505576 588.764648438 483.256505576 430 c 0
 483.256505576 228 l 0
 483.256505576 67.794921875 384.823605222 0 266.620817844 0 c 0xbc
 85 0 l 1x7c
EndSplineSet
Layer: 2
Layer: 3
EndChar

StartChar: uni01F3
Encoding: 462 499 404
Width: 825
VWidth: 0
Flags: W
HStem: 14 36<174.929 299.527 532.546 770> 421 46<477.273 712.399> 427 56<166.958 306.319> 647 20G<366.919 412.98>
VStem: 55 50<116.142 360.858> 366.919 46.0606<20 99.752 116.142 360.552 396.248 667>
LayerCount: 4
Back
Fore
SplineSet
366.919191919 396.248046875 m 1xbc
 366.919191919 667 l 1
 412.97979798 667 l 1
 412.97979798 20 l 1
 366.919191919 20 l 1
 366.919191919 99.751953125 l 1
 349.563062263 74.8818359375 l 0
 320.866082702 33.763671875 277.104196259 14 227.777777778 14 c 0
 138.302734375 14 55 75.9677734375 55 214 c 0
 55 282 l 0
 55 421.067382812 138.326171875 483 227.777777778 483 c 0
 276.966441761 483 320.804233744 462.326171875 349.563062263 421.118164062 c 0
 366.919191919 396.248046875 l 1xbc
366.919191919 272 m 0
 366.919191919 376.020507812 302.069622001 427 237.373737374 427 c 0
 172.614257812 427 105 376.072265625 105 273 c 0
 105 204 l 0
 105 100.927734375 172.614257812 50 237.373737374 50 c 0
 302.036823311 50 366.919191919 100.927734375 366.919191919 204 c 0
 366.919191919 272 l 0
770 429.95703125 m 1
 532.546016809 56 l 1
 770 56 l 1
 770 10 l 1
 477.272727273 10 l 1
 477.272727273 47.04296875 l 1
 712.399414062 421 l 1
 477.272727273 421 l 1
 477.272727273 467 l 1
 770 467 l 1xdc
 770 429.95703125 l 1
EndSplineSet
Layer: 2
Layer: 3
EndChar

StartChar: uni018F
Encoding: 465 399 407
Width: 546
VWidth: 0
Flags: W
HStem: 4 50<192.593 353.407> 277 50<122 424> 613 50<187.776 353.406>
VStem: 68 54<125.752 277> 424 54<125.752 277 327 541.683>
LayerCount: 4
Back
Fore
SplineSet
103.137695312 585.71875 m 1
 168.16015625 663.731445312 239.354749178 663 273 663 c 0
 376.138671875 663 478 604.944335938 478 446 c 0
 478 222 l 0
 478 62.0224609375 376.115234375 4 273 4 c 0
 169.884765625 4 68 62.0234375 68 222 c 0
 68 327 l 1
 424 327 l 1
 424 446 l 0
 424 568.774414062 348.096731086 613 273 613 c 0
 243.389802632 613 192.201942845 611.552734375 144.327148438 553.923828125 c 1
 103.137695312 585.71875 l 1
424 222 m 0
 424 277 l 1
 122 277 l 1
 122 222 l 0
 122 98.2724609375 197.873560855 54 273 54 c 0
 348.126439145 54 424 98.2724609375 424 222 c 0
EndSplineSet
Layer: 2
Layer: 3
EndChar

StartChar: uni0259
Encoding: 466 601 408
Width: 466
VWidth: 0
Flags: W
HStem: 4 44<167.013 299.744> 205 44<106 360> 428 45<135.698 296.506>
VStem: 58 48<112.871 205> 360 48<110.558 205 249 361.248>
LayerCount: 4
Back
Fore
SplineSet
83.2958984375 428.01953125 m 1
 125.834960938 457.4609375 173.94140625 473 224.538461538 473 c 0
 315.544921875 473 408 410.174804688 408 273 c 0
 408 205 l 0
 408 66.5810546875 315.15234375 4 233 4 c 0
 150.844726562 4 58 64.4609375 58 209 c 0
 58 249 l 1
 360 249 l 1
 360 273 l 0
 360 376.3359375 292.822265625 428 224.538461538 428 c 0
 187.003605769 428 143.802734375 415.1328125 111.69921875 391.99609375 c 1
 83.2958984375 428.01953125 l 1
360 195 m 0
 360 205 l 1
 106 205 l 1
 106 195 l 0
 106 100.51953125 173.834960938 48 233 48 c 0
 289.768554688 48 360 95.3125 360 195 c 0
EndSplineSet
Layer: 2
Layer: 3
EndChar

StartChar: uni030F
Encoding: 469 783 411
Width: 383
Flags: W
HStem: 546 101
VStem: 50 265.66
AnchorPoint: "Top" 242 477 mark 0
LayerCount: 4
Back
Fore
SplineSet
121.78515625 546 m 1
 50 647 l 1
 102.057617188 647 l 1
 164.66015625 546 l 1
 121.78515625 546 l 1
272.78515625 546 m 1
 201 647 l 1
 253.057617188 647 l 1
 315.66015625 546 l 1
 272.78515625 546 l 1
EndSplineSet
Layer: 2
Layer: 3
EndChar

StartChar: uni03BC
Encoding: 470 956 412
Width: 520
VWidth: 0
Flags: W
HStem: -6 46<182.87 311.515 431.731 475>
VStem: 75 50<-185 75.6016 103.243 457> 365 50<100.197 457>
LayerCount: 4
Back
Fore
SplineSet
143.0703125 50.9052734375 m 0
 125 75.6015625 l 1
 125 -185 l 1
 75 -185 l 1
 75 457 l 1
 125 457 l 1
 125 194 l 0
 125 91.4267578125 187.248046875 40 248.333333333 40 c 0
 308.557291667 40 365 91.4267578125 365 194 c 0
 365 457 l 1
 415 457 l 1
 415 114 l 0
 415 64.763671875 443.979492188 40 475 40 c 1
 475 -6 l 1
 433.791992188 -6 398.083007812 15.29296875 382.467773438 61.21875 c 0
 375.5234375 81.642578125 l 1
 364.424804688 63.14453125 l 0
 338.461805556 16.427734375 297.376736111 -6 248.333333333 -6 c 0
 209.166666667 -6 171.196289062 12.466796875 143.0703125 50.9052734375 c 0
EndSplineSet
Layer: 2
Layer: 3
EndChar

StartChar: alpha
Encoding: 471 945 413
Width: 509
VWidth: 0
Flags: W
HStem: 4 46<163.708 297.045 425.825 464> 427 46<163.713 296.9>
VStem: 55 50<114.518 362.075> 355 48<113.022 363.692 386.248 467>
LayerCount: 4
Back
SplineSet
385 130 m 6xf2
 443 130 l 6xf8
 443 85 469 66 494 66 c 6
 504 66 l 5
 504 0 l 5
 494 0 l 6
 435 0 385 41 385 130 c 6xf2
240 483 m 4
 336 483 415 417 415 273 c 6xf4
 425 204 l 6xf2
 425 61 337 -6 240 -6 c 4
 143 -6 55 61 55 204 c 6
 55 272 l 6
 55 416 143 483 240 483 c 4
250 417 m 4
 188 417 125 371 125 273 c 6
 125 204 l 6
 125 106 188 60 250 60 c 4
 312 60 375 106 375 204 c 6
 375 272 l 6xf8
 375 371 312 417 250 417 c 4
375 477 m 5
 443 477 l 5
 443 100 l 5
 375 100 l 5
 375 477 l 5
EndSplineSet
Fore
SplineSet
355 386.248046875 m 1
 355 467 l 1
 403 467 l 1
 403 130 l 0
 403 80.5283203125 433.154296875 56 464 56 c 1
 464 10 l 1
 422.8359375 10 387.262695312 31.1494140625 372.557617188 78.9404296875 c 0
 366.12109375 99.861328125 l 1
 354.55796875 81.2998046875 l 0
 324.191679688 28.4892578125 275.083085937 4 221.6 4 c 0
 137.238515625 4 55 65.9677734375 55 204 c 0
 55 272 l 0
 55 411.067382812 137.260078125 473 221.6 473 c 0
 268.758984375 473 310.787890625 452.326171875 338.360039062 411.118164062 c 0
 355 386.248046875 l 1
355 272 m 0
 355 376.020507812 292.826328125 427 230.8 427 c 0
 168.805117188 427 105 376.072265625 105 273 c 0
 105 204 l 0
 105 100.927734375 168.805117188 50 230.8 50 c 0
 292.794882812 50 355 100.927734375 355 204 c 0
 355 272 l 0
EndSplineSet
Layer: 2
Layer: 3
EndChar

StartChar: beta
Encoding: 472 946 414
Width: 505
VWidth: 0
Flags: W
HStem: 5.58105 50.4189<125 356.068> 321 44<206.267 324.921> 621 46<187.001 322.855>
VStem: 75 50<-185 5.58105 56 552.849> 376 50<417.559 566.602> 395 50<98.2579 260.119>
LayerCount: 4
Back
Fore
SplineSet
335.830078125 347.095703125 m 1xf8
 355.696289062 339.932617188 l 2
 410.5546875 320.153320312 445 257.881835938 445 189.98046875 c 0xf4
 445 88.81640625 401.940429688 5.5810546875 294.666666667 5.5810546875 c 0
 125 5.5810546875 l 1
 125 -185 l 1
 75 -185 l 1
 75 457.072265625 l 0
 75 606.34765625 156.54296875 667 260 667 c 0
 357.513671875 667 426 587.6953125 426 498 c 0
 426 436.685546875 394.704101562 384.3125 353.76953125 358.436523438 c 0
 335.830078125 347.095703125 l 1xf8
125 456.517578125 m 0
 125 56 l 1
 294.666666667 56 l 0
 372.172851562 56 395 123.721679688 395 189 c 0xf4
 395 257.670898438 339.111328125 321 260 321 c 0
 206.266666667 321 l 1
 206.266666667 365 l 1
 260 365 l 0
 334.806640625 365 376 429.3671875 376 498 c 0xf8
 376 561.37109375 323.870963542 621 260 621 c 0
 183.8984375 621 125 567.819335938 125 456.517578125 c 0
EndSplineSet
Layer: 2
Layer: 3
EndChar

StartChar: gamma
Encoding: 473 947 415
Width: 536
VWidth: 0
Flags: W
HStem: 415 42<45 106.445>
VStem: 264.57 49.328<-185 -8.05371>
LayerCount: 4
Back
Fore
SplineSet
45 415 m 1
 45 457 l 1
 65 457 l 0
 106.5703125 457 146.384765625 436.11328125 164.693359375 390.340820312 c 0
 289.225535903 43.6943359375 l 1
 443.80859375 457 l 1
 496.166015625 457 l 1
 313.897581047 -8.0537109375 l 1
 313.897581047 -185 l 1
 264.569548062 -185 l 1
 264.569548062 -8.052734375 l 1
 118.255859375 376.786132812 l 0
 107.793945312 402.358398438 86.02734375 415 65 415 c 0
 45 415 l 1
EndSplineSet
Layer: 2
Layer: 3
EndChar

StartChar: delta
Encoding: 474 948 416
Width: 501
VWidth: 0
Flags: W
HStem: 167 350<87 375>
VStem: 87 288<167 517>
LayerCount: 4
Back
Fore
SplineSet
87 167 m 1
 87 517 l 1
 375 517 l 1
 375 167 l 1
 87 167 l 1
EndSplineSet
Layer: 2
Layer: 3
EndChar

StartChar: pi
Encoding: 185 960 417
Width: 500
VWidth: 0
Flags: W
HStem: 4 46<407.558 450> 421 46<50 110 160 340 390 440>
VStem: 110 50<10 421> 340 50<67.2672 421>
LayerCount: 4
Back
Fore
SplineSet
390 421 m 1
 390 124 l 2
 390 74.763671875 418.979492188 50 450 50 c 1
 450 4 l 1
 395.826171875 4 340 40.626953125 340 124 c 0
 340 421 l 1
 160 421 l 1
 160 10 l 1
 110 10 l 1
 110 421 l 1
 50 421 l 1
 50 467 l 1
 440 467 l 1
 440 421 l 1
 390 421 l 1
EndSplineSet
Layer: 2
Layer: 3
EndChar

StartChar: kgreenlandic
Encoding: 483 312 426
Width: 427
VWidth: 0
Flags: W
VStem: 75 48<10 140.321 198.032 467>
LayerCount: 4
Back
Fore
SplineSet
75 10 m 1
 75 467 l 1
 123 467 l 1
 123 198.032226562 l 1
 304.99609375 467 l 1
 361.685546875 467 l 1
 215.930989583 260.280273438 l 1
 377.79296875 10 l 1
 321.234375 10 l 1
 189.299804688 229.116210938 l 1
 123 140.321289062 l 1
 123 10 l 1
 75 10 l 1
EndSplineSet
Layer: 2
Layer: 3
EndChar

StartChar: uni0311
Encoding: 484 785 427
Width: 358
VWidth: 0
Flags: W
HStem: 621 32<118.428 240.251>
VStem: 50 31.1035<546 585.258> 277.117 30.1162<546 584.61>
AnchorPoint: "Top" 189 477 mark 0
LayerCount: 4
Back
Fore
SplineSet
81.103515625 546 m 1
 50 546 l 1
 55.2568359375 611.256835938 109.419921875 653 178.6171875 653 c 0
 248.418945312 653 302.061523438 610.203125 307.233398438 546 c 1
 277.1171875 546 l 1
 271.809570312 593.875976562 232.9609375 621 178.6171875 621 c 0
 123.47265625 621 86.11328125 592.471679688 81.103515625 546 c 1
EndSplineSet
Layer: 2
Layer: 3
EndChar

StartChar: gravecomb
Encoding: 485 768 428
Width: 237
Flags: W
HStem: 546 101
VStem: 50 119.66
AnchorPoint: "Top" 156 477 mark 0
LayerCount: 4
Back
Fore
SplineSet
121.78515625 546 m 1
 50 647 l 1
 107.057617188 647 l 1
 169.66015625 546 l 1
 121.78515625 546 l 1
EndSplineSet
Layer: 2
Layer: 3
EndChar

StartChar: acutecomb
Encoding: 486 769 429
Width: 237
Flags: W
HStem: 546 101
VStem: 50 119.66
AnchorPoint: "Top" 101 477 mark 0
LayerCount: 4
Back
Fore
SplineSet
112.603515625 647 m 1
 169.66015625 647 l 1
 97.875 546 l 1
 50 546 l 1
 112.603515625 647 l 1
EndSplineSet
Layer: 2
Layer: 3
EndChar

StartChar: uni0237
Encoding: 487 567 430
Width: 205
VWidth: 0
Flags: W
HStem: -190 42<0 62.4419>
VStem: 80 50<-132.161 457>
LayerCount: 4
Back
Fore
SplineSet
130 457 m 1
 130 -70 l 2
 130 -153.377929688 74.1728515625 -190 20 -190 c 0
 0 -190 l 1
 0 -148 l 1
 20 -148 l 0
 51.30859375 -148 80 -122.806640625 80 -70 c 0
 80 457 l 1
 130 457 l 1
EndSplineSet
Layer: 2
Layer: 3
EndChar

StartChar: dagger
Encoding: 160 8224 431
Width: 334
VWidth: 0
Flags: W
HStem: 427 40<55 142 192 279>
VStem: 142 50<-185 427 467 657>
LayerCount: 4
Back
Fore
SplineSet
142 467 m 1
 142 657 l 1
 192 657 l 1
 192 467 l 1
 279 467 l 1
 279 427 l 1
 192 427 l 1
 192 -185 l 1
 142 -185 l 1
 142 427 l 1
 55 427 l 1
 55 467 l 1
 142 467 l 1
EndSplineSet
Layer: 2
Layer: 3
EndChar

StartChar: daggerdbl
Encoding: 224 8225 432
Width: 334
VWidth: 0
Flags: W
HStem: 0 40.959<55 142 192 279> 427 40<55 142 192 279>
VStem: 142 50<-185 0 40.959 427 467 657>
LayerCount: 4
Back
Fore
SplineSet
142 467 m 1
 142 657 l 1
 192 657 l 1
 192 467 l 1
 279 467 l 1
 279 427 l 1
 192 427 l 1
 192 40.958984375 l 1
 279 40.958984375 l 1
 279 0 l 1
 192 0 l 1
 192 -185 l 1
 142 -185 l 1
 142 0 l 1
 55 0 l 1
 55 40.958984375 l 1
 142 40.958984375 l 1
 142 427 l 1
 55 427 l 1
 55 467 l 1
 142 467 l 1
EndSplineSet
Layer: 2
Layer: 3
EndChar

StartChar: uniFB01
Encoding: 222 64257 433
Width: 462
VWidth: 0
Flags: W
HStem: 436 41<45 105 155 331> 560 74<321.719 390.295> 625 42<171.662 249.375>
VStem: 105 50<20 436 477 611.778> 319 74<562.947 631.053> 331 50<20 436>
LayerCount: 4
Back
Fore
SplineSet
45 436 m 1xb4
 45 477 l 1
 105 477 l 1
 105 547 l 0
 105 630.377929688 160.827148438 667 207.1875 667 c 0
 249.375 667 l 1
 249.375 625 l 1
 207.1875 625 l 0
 180.629974365 625 155 598.755859375 155 547 c 0
 155 477 l 1
 381 477 l 1
 381 20 l 1
 331 20 l 1
 331 436 l 1
 155 436 l 1
 155 20 l 1
 105 20 l 1
 105 436 l 1
 45 436 l 1xb4
319 597 m 0xd8
 319 619.694335938 334.333007812 634 355 634 c 0
 377.987304688 634 393 619.500976562 393 597 c 0
 393 574.499023438 377.987304688 560 355 560 c 0
 334.333007812 560 319 574.306640625 319 597 c 0xd8
EndSplineSet
Layer: 2
Layer: 3
EndChar

StartChar: uniFB02
Encoding: 223 64258 434
Width: 456
VWidth: 0
Flags: W
HStem: 436 41<45 105 155 245.909> 625 42<173.041 331>
VStem: 105 50<20 436 477 609.161> 331 50<20 625>
LayerCount: 4
Back
SplineSet
45 477 m 1
 105 477 l 1
 105 527 l 2
 105 616 166 657 225 657 c 2
 285 657 l 1
 285 595 l 1
 225 595 l 2
 200 595 175 575 175 527 c 2
 175 477 l 1
 421 477 l 1
 421 0 l 1
 351 0 l 1
 351 416 l 1
 175 416 l 1
 175 0 l 1
 105 0 l 1
 105 416 l 1
 45 416 l 1
 45 477 l 1
EndSplineSet
Fore
SplineSet
45 436 m 1
 45 477 l 1
 105 477 l 1
 105 547 l 0
 105 630.377929688 160.827148438 667 210.454545455 667 c 0
 381 667 l 1
 381 20 l 1
 331 20 l 1
 331 625 l 1
 210.454545455 625 l 0
 182.555730646 625 155 598.755859375 155 547 c 0
 155 477 l 1
 245.909090909 477 l 1
 245.909090909 436 l 1
 155 436 l 1
 155 20 l 1
 105 20 l 1
 105 436 l 1
 45 436 l 1
EndSplineSet
Layer: 2
Layer: 3
EndChar

StartChar: paragraph
Encoding: 166 182 435
Width: 502
VWidth: 0
Flags: W
HStem: 0 21G<205 258 364 417> 598 49<258 364>
VStem: 55 203<354.757 552.463> 205 53<0 261.063> 364 53<0 598>
LayerCount: 4
Back
Fore
SplineSet
245 647 m 0xe8
 417 647 l 1
 417 0 l 1
 364 0 l 1
 364 598 l 1
 258 598 l 1
 258 0 l 1
 205 0 l 1
 205 261.063476562 l 1xd8
 197.119140625 262.772460938 l 0
 118.291015625 279.868164062 55 340.514648438 55 452 c 0
 55 586.243164062 143.456054688 647 245 647 c 0xe8
EndSplineSet
Layer: 2
Layer: 3
EndChar

StartChar: Omega
Encoding: 189 8486 436
Width: 560
VWidth: 0
Flags: W
HStem: 0 44<65 155.451 187.766 224.348 336.894 373.645 405.792 495> 603 50<189.767 371.159>
VStem: 65 54<150.276 531.612> 441 54<147.818 531.609>
LayerCount: 4
Back
SplineSet
350 64 m 5
 535 64 l 5
 535 0 l 5
 350 0 l 5
 350 64 l 5
65 64 m 5
 250 64 l 5
 250 0 l 5
 65 0 l 5
 65 64 l 5
250 19 m 5
 163 19 65 96 65 302 c 6
 65 446 l 6
 65 611 173 673 300 673 c 4
 427 673 535 611 535 446 c 6
 535 302 l 6
 535 96 437 19 350 19 c 5
 350 64 l 5
 400 64 461 144 461 302 c 6
 461 446 l 6
 461 563 390 603 300 603 c 4
 210 603 139 563 139 446 c 6
 139 302 l 6
 139 144 200 64 250 64 c 5
 250 19 l 5
EndSplineSet
Fore
SplineSet
224.347826087 44.86328125 m 1
 224.347826087 0 l 1
 65 0 l 1
 65 44 l 1
 155.450595642 44 l 1
 138.989257812 61.15234375 l 0
 97.4912109375 101.70703125 65 174.7578125 65 292 c 0
 65 436 l 0
 65 594.772460938 164.849627572 653 280.621118012 653 c 0
 396.394440266 653 495 594.764648438 495 436 c 0
 495 292 l 0
 495 174.7578125 462.508789062 101.70703125 422.252310996 61.15234375 c 0
 405.791640382 44 l 1
 495 44 l 1
 495 0 l 1
 336.894409938 0 l 1
 336.894409938 44.86328125 l 1
 390.940217391 55.2138671875 441 142.1796875 441 292 c 0
 441 436 l 0
 441 559.03125 368.306337345 603 280.621118012 603 c 0
 192.93589868 603 119 559.03125 119 436 c 0
 119 292 l 0
 119 141.323242188 171.131829872 55.0546875 224.347826087 44.86328125 c 1
EndSplineSet
Layer: 2
Layer: 3
EndChar

StartChar: logicalnot
Encoding: 194 172 437
Width: 470
Flags: W
HStem: 243 36<80 350>
VStem: 350 40<94 243>
LayerCount: 4
Back
Fore
SplineSet
80 243 m 1
 80 279 l 1
 390 279 l 1
 390 94 l 1
 350 94 l 1
 350 243 l 1
 80 243 l 1
EndSplineSet
Layer: 2
Layer: 3
EndChar

StartChar: radical
Encoding: 195 8730 438
Width: 467
Flags: W
HStem: 0 21G<177.5 243.232>
LayerCount: 4
Back
Fore
SplineSet
189.474609375 0 m 1
 35 258 l 1
 75.779296875 258 l 1
 209.895507812 24.1689453125 l 1
 383.755859375 647 l 1
 419.95703125 647 l 1
 237.594726562 -0 l 1
 189.474609375 0 l 1
EndSplineSet
Layer: 2
Layer: 3
EndChar

StartChar: approxequal
Encoding: 197 8776 439
Width: 480
VWidth: 0
Flags: W
HStem: 129 34<261.105 357.349> 194 34<114.196 214.398> 269 34<261.105 357.349> 334 34<114.196 214.398>
LayerCount: 4
Back
Fore
SplineSet
166.512695312 194 m 0
 141.298828125 194 115.12109375 181.943359375 87.6953125 157.73828125 c 1
 68 182.97265625 l 1
 102.725585938 214.584960938 135.713867188 228 166.512695312 228 c 0
 196.085916796 228 219.315110059 216.084960938 243.109604797 195.044921875 c 1
 263.359221949 175.71484375 283.467108788 163 308.512695312 163 c 0
 334.233398438 163 359.021484375 177.379882812 385.383789062 201.981445312 c 1
 405.181640625 175.997070312 l 1
 369.952148438 142.985351562 337.233398438 129 306.512695312 129 c 0
 280.390346177 129 255.705785078 140.685546875 229.909248441 164.986328125 c 1
 211.065595988 181.510742188 192.893340272 194 166.512695312 194 c 0
166.512695312 334 m 0
 141.298828125 334 115.12109375 321.943359375 87.6953125 297.73828125 c 1
 68 322.97265625 l 1
 102.725585938 354.584960938 135.713867188 368 166.512695312 368 c 0
 196.085916796 368 219.315110059 356.084960938 243.109604797 335.044921875 c 1
 263.359221949 315.71484375 283.467108788 303 308.512695312 303 c 0
 334.233398438 303 359.021484375 317.379882812 385.383789062 341.981445312 c 1
 405.181640625 315.997070312 l 1
 369.952148438 282.985351562 337.233398438 269 306.512695312 269 c 0
 280.390346177 269 255.705785078 280.685546875 229.909248441 304.986328125 c 1
 211.065595988 321.510742188 192.893340272 334 166.512695312 334 c 0
EndSplineSet
Layer: 2
Layer: 3
EndChar

StartChar: summation
Encoding: 183 8721 440
Width: 460
VWidth: 0
Flags: W
HStem: 0 50<128.139 400> 597 50<127.49 399>
LayerCount: 4
Back
Fore
SplineSet
260 345.270507812 m 1
 260 320.5546875 l 1
 128.138671875 50 l 1
 400 50 l 1
 400 0 l 1
 60 0 l 1
 60 27.37890625 l 1
 222.96468099 332.145507812 l 1
 60 619.755859375 l 1
 60 647 l 1
 399 647 l 1
 399 597 l 1
 127.490234375 597 l 1
 260 345.270507812 l 1
EndSplineSet
Layer: 2
Layer: 3
EndChar

StartChar: Delta
Encoding: 198 8710 441
Width: 609
Flags: W
HStem: 0 58<106.99 493.83>
LayerCount: 4
Back
Fore
SplineSet
564.83984375 0 m 1
 35 0 l 1
 276.855219928 647 l 1
 323.891755042 647 l 1
 564.83984375 0 l 1
106.990234375 58 m 1
 493.830078125 58 l 1
 300.378511877 601.529296875 l 1
 106.990234375 58 l 1
EndSplineSet
Layer: 2
Layer: 3
EndChar

StartChar: r.alt
Encoding: 488 57364 442
Width: 359
VWidth: 0
Flags: W
HStem: 0 21G<65 113.222> 421 46<182.217 304>
VStem: 65 48.0752<0 348.46>
LayerCount: 4
Back
Fore
SplineSet
65 0 m 1
 65 261.6015625 l 2
 65 403.049804688 157.84765625 467 250 467 c 0
 304 467 l 1
 304 421 l 1
 250 421 l 0
 182.506835938 421 115 367.673828125 115 262.305664062 c 0
 113.075195312 0 l 1
 65 0 l 1
EndSplineSet
Layer: 2
Layer: 3
EndChar

StartChar: a.alt
Encoding: 489 57344 443
Width: 467
VWidth: 0
Flags: W
HStem: 0 56<145.467 348> 243 41<152.844 347.841> 423 44<88 302.575>
VStem: 58 49<90.3664 205.192> 348 51<56 237.912 277.344 374.476>
LayerCount: 4
Back
SplineSet
348 170 m 6
 348 229 l 5
 322 232 298 233 277 233 c 4
 175 233 127 206 127 140 c 4
 127 92 171 60 237 60 c 4
 314 60 348 96 348 170 c 6
419 176 m 6
 419 59 347 -6 237 -6 c 4
 138 -6 58 55 58 146 c 4
 58 236 136 294 275 294 c 4
 298 294 322 293 348 289 c 5
 348 377 304 413 241 413 c 4
 190 413 88 413 88 413 c 5
 88 477 l 5
 88 477 176 477 241 477 c 4
 337 477 419 425 419 290 c 6
 419 176 l 6
EndSplineSet
Fore
SplineSet
227 56 m 0
 348 56 l 1
 348 237.912109375 l 1
 339.146484375 238.934570312 l 0
 312.702148438 241.985351562 288.317382812 243 267 243 c 0
 164.624023438 243 107 217.4921875 107 143 c 0
 107 86.9267578125 158.921875 56 227 56 c 0
231 467 m 0
 322.72265625 467 399 418.39453125 399 286.126953125 c 0
 399 0 l 1
 227 0 l 0
 131.458007812 0 58 57.1435546875 58 144.073242188 c 0
 58 229.040039062 127.868164062 284 265 284 c 0
 287.711914062 284 311.1484375 283.013671875 336.479492188 279.116210938 c 0
 348 277.34375 l 1
 348 289 l 0
 348 381.345703125 299.276367188 423 231 423 c 0
 88 423 l 1
 88 467 l 1
 231 467 l 0
EndSplineSet
Layer: 2
Layer: 3
EndChar

StartChar: b.alt
Encoding: 490 57345 444
Width: 460
VWidth: 0
Flags: W
HStem: 0 56<125 298.9> 421 46<125 298.909>
VStem: 75 50<56 421 467 657> 356.6 48.4<119.022 357.978>
LayerCount: 4
Back
SplineSet
270 60 m 4
 332 60 395 106 395 204 c 6
 395 267 l 6
 395 365 332 411 270 411 c 6
 145 411 l 5
 145 205 l 6
 145 106 208 60 270 60 c 4
270 -6 m 4
 174 -6 75 60 75 204 c 6
 75 667 l 5
 145 667 l 5
 145 477 l 5
 270 477 l 6
 367 477 465 410 465 267 c 6
 465 205 l 6
 465 61 367 -6 270 -6 c 4
EndSplineSet
Fore
SplineSet
125 56 m 1
 232.4 56 l 2
 294.394882812 56 356.6 106.927734375 356.6 210 c 0
 356.6 267 l 0
 356.6 370.072265625 294.394882812 421 232.4 421 c 0
 125 421 l 1
 125 56 l 1
405 205.3984375 m 0
 405 63.9501953125 317.18015625 0 232.4 0 c 2
 75 0 l 1
 75 657 l 1
 125 657 l 1
 125 467 l 1
 232.4 467 l 0
 317.20171875 467 405 403.013671875 405 262.624023438 c 0
 405 205.3984375 l 0
EndSplineSet
Layer: 2
Layer: 3
EndChar

StartChar: c.alt
Encoding: 491 57346 445
Width: 405
VWidth: 0
Flags: W
HStem: 0 47.1191<169.035 345> 421 46<170.41 335>
VStem: 55 50<115.42 353.248>
LayerCount: 4
Back
Fore
SplineSet
55 261.6015625 m 0
 55 403.049804688 147.84765625 467 240 467 c 2
 335 467 l 1
 335 421 l 1
 240 421 l 0
 172.614257812 421 105 368.833007812 105 263.252929688 c 0
 105 204.866210938 l 0
 105 100.5234375 169.505859375 47.119140625 240 47.119140625 c 0
 345 47.119140625 l 1
 345 0 l 1
 240 0 l 0
 147.775390625 0 55 62.9755859375 55 204.375976562 c 0
 55 261.6015625 l 0
EndSplineSet
Layer: 2
Layer: 3
EndChar

StartChar: d.alt
Encoding: 492 57347 446
Width: 460
VWidth: 0
Flags: W
HStem: 0 56<162.658 335> 421 46<162.658 335>
VStem: 55 50<119.022 357.978> 335 50<56 421 467 657>
LayerCount: 4
Back
SplineSet
230 60 m 4
 168 60 105 106 105 204 c 6
 105 267 l 6
 105 365 168 411 230 411 c 6
 355 411 l 5
 355 205 l 6
 355 106 292 60 230 60 c 4
230 -6 m 4
 326 -6 425 60 425 204 c 6
 425 667 l 5
 355 667 l 5
 355 477 l 5
 230 477 l 6
 133 477 35 410 35 267 c 6
 35 205 l 6
 35 61 133 -6 230 -6 c 4
EndSplineSet
Fore
SplineSet
105 210 m 0
 105 106.927734375 167.205117188 56 229.2 56 c 2
 335 56 l 1
 335 421 l 1
 229.2 421 l 0
 167.205117188 421 105 370.072265625 105 267 c 0
 105 210 l 0
385 0 m 1
 229.2 0 l 2
 144.41984375 0 55 63.9501953125 55 205.3984375 c 0
 55 262.624023438 l 0
 55 403.013671875 144.39828125 467 229.2 467 c 0
 335 467 l 1
 335 657 l 1
 385 657 l 1
 385 0 l 1
EndSplineSet
Layer: 2
Layer: 3
EndChar

StartChar: e.alt
Encoding: 493 57348 447
Width: 466
VWidth: 0
Flags: W
HStem: 0 47.0645<166.855 378> 228 44<106 360> 429 44<166.256 298.987>
VStem: 58 48<112.989 228 272 364.198> 360 48<272 364.129>
LayerCount: 4
Back
Fore
SplineSet
378 0 m 1
 233 0 l 2
 150.017578125 0 58 58.3310546875 58 198.190429688 c 0
 58 267.659179688 l 0
 58 409.067382812 150.84765625 473 233 473 c 0
 315.155273438 473 408 412.5390625 408 268 c 0
 408 228 l 1
 106 228 l 1
 106 202.899414062 l 0
 106 94.4033203125 173.813476562 47.064453125 233 47.064453125 c 0
 270.495117188 47.064453125 351.319335938 47.7724609375 378 48.0166015625 c 1
 378 0 l 1
106 282 m 0
 106 272 l 1
 360 272 l 1
 360 282 l 0
 360 376.48046875 292.165039062 429 233 429 c 0
 176.231445312 429 106 381.6875 106 282 c 0
EndSplineSet
Layer: 2
Layer: 3
EndChar

StartChar: f.alt
Encoding: 494 57349 448
Width: 330
VWidth: 0
Flags: W
HStem: 0 21G<75 125> 426 41<125 255> 596 42<142.558 275>
VStem: 75 50<0 426 467 579.903>
LayerCount: 4
Back
Fore
SplineSet
75 0 m 1
 75 518 l 2
 75 601.377929688 130.827148438 638 185 638 c 0
 275 638 l 1
 275 596 l 1
 185 596 l 0
 153.524414062 596 125 569.755859375 125 518 c 0
 125 467 l 1
 255 467 l 1
 255 426 l 1
 125 426 l 1
 125 0 l 1
 75 0 l 1
EndSplineSet
Layer: 2
Layer: 3
EndChar

